<?xml version="1.0" encoding="utf-8"?>
<!-- Generator: Adobe Illustrator 19.1.0, SVG Export Plug-In . SVG Version: 6.00 Build 0)  -->
<svg version="1.1" id="Layer_1" xmlns="http://www.w3.org/2000/svg" xmlns:xlink="http://www.w3.org/1999/xlink" x="0px" y="0px"
	 width="35px" height="25.4px" viewBox="214.5 402.2 35 25.4" style="enable-background:new 214.5 402.2 35 25.4;"
	 xml:space="preserve" role="img" aria-labelledby="title desc">
    <title>gov.uk crown logo</title>
    <desc>gov.uk</desc>
<style type="text/css">
	.st0{fill:#FFFFFF;}
</style>
<g>
	<path class="st0" d="M221.1,410.2c1,0.4,2-0.1,2.4-1c0.4-0.9-0.1-2-1-2.4c-0.9-0.4-2,0.1-2.4,1
		C219.8,408.8,220.2,409.8,221.1,410.2"/>
	<path class="st0" d="M216.9,412.7c1,0.4,2-0.1,2.4-1c0.4-0.9-0.1-2-1-2.4c-0.9-0.4-2,0.1-2.4,1C215.6,411.2,216,412.3,216.9,412.7"
		/>
	<path class="st0" d="M215.7,417.3c1,0.4,2-0.1,2.4-1c0.4-0.9-0.1-2-1-2.4c-0.9-0.4-2,0.1-2.4,1C214.3,415.9,214.8,417,215.7,417.3"
		/>
	<path class="st0" d="M225.8,411.7c1,0.4,2-0.1,2.4-1c0.4-0.9-0.1-2-1-2.4c-0.9-0.4-2,0.1-2.4,1
		C224.4,410.2,224.9,411.3,225.8,411.7"/>
	<path class="st0" d="M242.8,410.2c-1,0.4-2-0.1-2.4-1c-0.4-0.9,0.1-2,1-2.4c0.9-0.4,2,0.1,2.4,1
		C244.2,408.8,243.7,409.8,242.8,410.2"/>
	<path class="st0" d="M247,412.7c-1,0.4-2-0.1-2.4-1c-0.4-0.9,0.1-2,1-2.4c0.9-0.4,2,0.1,2.4,1C248.4,411.2,247.9,412.3,247,412.7"
		/>
	<path class="st0" d="M248.2,417.3c-1,0.4-2-0.1-2.4-1c-0.4-0.9,0.1-2,1-2.4c0.9-0.4,2,0.1,2.4,1C249.6,415.9,249.2,417,248.2,417.3
		"/>
	<path class="st0" d="M238.1,411.7c-1,0.4-2-0.1-2.4-1c-0.4-0.9,0.1-2,1-2.4c0.9-0.4,2,0.1,2.4,1C239.5,410.2,239,411.3,238.1,411.7
		"/>
	<path class="st0" d="M232.9,406.9L232.9,406.9l2.3,1.2v-3.5l-2.3,0.7l0,0c-0.1-0.1-0.1-0.2-0.2-0.2l0,0l0.9-3l-1.7,0l-1.7,0l0.9,3
		l0,0c-0.1,0.1-0.2,0.1-0.2,0.2l0,0l-2.3-0.7v3.5l2.3-1.2l0,0c0.1,0.1,0.2,0.2,0.2,0.2l-1.3,4.1c0,0,0,0,0,0l0,0l0,0
		c-0.1,0.2-0.1,0.4-0.1,0.6c0,1.1,0.8,2,1.9,2.2c0,0,0,0,0,0c0.1,0,0.2,0,0.3,0c0.1,0,0.2,0,0.3,0c0,0,0,0,0,0
		c1.1-0.2,1.9-1.1,1.9-2.2c0-0.2,0-0.4-0.1-0.6v0l0,0c0,0,0,0,0,0l-1.3-4.1C232.8,407.1,232.9,407,232.9,406.9"/>
	<path class="st0" d="M232,426.8c4.4,0,8.7,0.3,12.4,0.8c1.1-4.5,2.4-7,3.7-8.9l-2.5-0.9c0.3,1.3,0.3,1.9,0,2.7
		c-0.4-0.4-0.8-1.2-1.1-2.3l-1.2,4.1c0.7-0.5,1.3-0.8,2-0.9c-1.2,2.5-2.6,3.1-3.6,3c-1.1-0.2-1.7-1.2-1.5-2.1
		c0.3-1.2,1.5-1.6,2.1-0.1c1.1-2.3-0.8-3-2-2.3c1.9-1.9,2.1-3.6,0.6-5.6c-2.1,1.6-2.2,3.2-1.2,5.5c-1.2-1.4-3.2-0.7-2.5,1.6
		c0.9-1.4,2.1-0.5,1.9,0.8c-0.2,1.1-1.7,2.1-3.6,1.9c-2.7-0.2-2.9-2.1-2.9-3.7c0.7-0.1,1.9,0.5,2.9,1.9l0.4-4.3
		c-1.1,1.2-2.1,1.4-3.2,1.4c0.4-1.2,2.1-3.1,2.1-3.1h-2.5h0h0h-2.9c0,0,1.7,1.9,2.1,3.1c-1.1,0-2.1-0.3-3.2-1.4l0.4,4.3
		c1-1.4,2.2-2.1,2.9-1.9c-0.1,1.5-0.2,3.4-2.9,3.7c-1.9,0.2-3.4-0.8-3.6-1.9c-0.2-1.3,1-2.2,1.9-0.8c0.7-2.3-1.2-3.1-2.5-1.6
		c1-2.3,0.9-3.9-1.2-5.5c-1.5,2-1.3,3.7,0.6,5.6c-1.2-0.7-3.1,0-2,2.3c0.6-1.4,1.9-1.1,2.1,0.1c0.2,0.9-0.4,1.9-1.5,2.1
		c-0.9,0.2-2.4-0.5-3.6-3c0.7,0,1.2,0.3,2,0.9l-1.2-4.1c-0.3,1.1-0.7,1.9-1.1,2.3c-0.3-0.8-0.2-1.4,0-2.7l-2.5,0.9
		c1.3,1.8,2.6,4.4,3.7,8.9C223.3,427.1,227.5,426.8,232,426.8"/>
</g>
</svg>
