<?xml version="1.0" encoding="utf-8"?>
<!-- Generator: Adobe Illustrator 19.1.0, SVG Export Plug-In . SVG Version: 6.00 Build 0)  -->
<svg version="1.1" id="Layer_1" xmlns="http://www.w3.org/2000/svg" xmlns:xlink="http://www.w3.org/1999/xlink" x="0px" y="0px"
     width="125px" height="102px" viewBox="0 0 125 102" style="enable-background:new 0 0 125 102;" xml:space="preserve" aria-labelledby="title desc" role="img">
<title>British Government Crest</title>
<desc>Dieu et mon droit, Honi soit qui mal y pense</desc>
<style type="text/css">
	.st0{fill:#6f787b;}
</style>
<g>
<path class="st0" d="M58.3,5.2C59,4.6,59.7,4,60.6,3.8c0,0.9-0.7,1.7-1.4,2.2c1.2,0,2.4,0,3.5,0c-0.7-0.6-1.4-1.3-1.3-2.3
		c0,0,0.1,0.1,0.2,0.1c0.8,0.2,1.5,0.8,2.1,1.4c0-1.2,0-2.3,0-3.5c-0.7,0.6-1.4,1.2-2.3,1.4c0.1-1,0.8-1.7,1.3-2.4
		c-0.7-0.1-1.4,0-2.1-0.1c-0.4,0-0.9,0-1.3,0c0.6,0.7,1.2,1.5,1.3,2.5C59.7,3,59,2.4,58.3,1.8C58.3,2.9,58.3,4.1,58.3,5.2z" />
<path class="st0" d="M124.5,49.1c-0.2-0.5-0.5-0.9-1-1.2c-1-0.7-2.1-1.1-3.1-1.9c-0.9-0.7-1.6-1.7-1.9-2.8c0-0.2-0.1-0.4-0.1-0.6
		c-0.2,0-0.1-0.2,0-0.2c0.1,0.1,0.1,0.3,0.1,0.4c0.5,1,1.2,2,2.2,2.5c0.6,0.3,1.4,0.3,2.1,0.1c0,0,0-0.1,0-0.2
		c-0.2,0-0.3-0.1-0.5-0.1c-0.4-0.2-0.8-0.6-1-1.1c-0.1-0.1-0.1-0.3-0.2-0.4c-0.2-0.8-0.3-1.7-0.5-2.5c-0.2-0.8-0.6-1.6-1.4-1.9
		c-0.7-0.3-1.4-0.2-2.1-0.3c-0.5-0.5-1.1-0.8-1.8-1c-0.7-0.1-1.4-0.1-2,0c-2,0.5-3.8,2.3-4.1,4.4c-0.3,1.7,0,3.5,0.8,5.1
		c1.2,2.4,3.5,4,5.4,5.8c1.2,1.2,2.3,2.5,2.8,4.2c0,0.2,0.1,0.4,0.1,0.6c0.1,0.7,0.1,1.4,0,2.2c-0.3,1-1,1.9-1.9,2.3
		c-0.6,0.2-1.1,0.3-1.7,0.2c-0.1-0.1-0.3-0.1-0.4-0.2c-1.4-0.7-2.2-2.2-2.9-3.6c-0.1-0.1-0.1-0.2-0.2-0.3c-0.9-1.9-2.3-3.6-3.6-5.3
		c0.6,0.4,1.2,0.5,1.9,0.3c0.3-0.2,0.7-0.3,0.9-0.6c0.4-0.5,0.5-1.1,0.3-1.7c-0.2-0.9-0.9-1.7-1.7-2c-0.4-0.2-0.9-0.2-1.4-0.1
		c-0.4,0.2-0.9,0.4-1.1,0.9c-0.3,0.5-0.2,1-0.2,1.6c-1.3-1.8-2.8-3.5-3.6-5.6c-0.2-0.4-0.2-0.9-0.2-1.4c0.1-0.2,0.1-0.4,0.2-0.5
		c0.4-1,1.1-1.8,1.7-2.6c0.2,0,0.5,0.2,0.6-0.1c1.1-1.2,2.2-2.4,3.3-3.6c0,0,0.1,0,0.1,0c-0.4-0.2-0.7-0.5-1-0.8
		c0.3-0.6,0.5-1.2,0.6-1.8c0.2,0.6,0.4,1.3,1,1.6c0.3,0.2,0.6,0.2,0.9,0.1c0-0.1-0.1-0.3-0.1-0.4c-0.1-0.4-0.1-0.9,0-1.3
		c0-0.3,0-0.6,0.1-0.9c0.1-1,0.1-2,0-2.9c-0.1-0.2-0.1-0.4-0.1-0.7c0.5,0.6,1,1.2,1.8,1.5c0.3,0,0.5,0,0.8,0
		c-0.3-0.3-0.6-0.6-0.7-1.1c-0.3-0.7-0.2-1.5-0.1-2.3c0-0.9,0.1-1.9-0.2-2.8c0-0.1-0.1-0.2-0.1-0.3c-0.2-0.7-0.5-1.3-0.9-1.9
		c0.6,0.2,1.4,0.2,1.8-0.4c-0.1,0-0.3,0-0.4-0.1c-0.7-0.2-1.2-0.8-1.5-1.4c-0.5-1-1.2-2.1-2.3-2.5c0,0,0,0-0.1-0.1
		c-0.4-0.2-0.9-0.4-1.3-0.5c0.7-0.2,1.5-0.6,1.5-1.4c-0.4,0.1-0.8,0.2-1.2-0.1c-0.6-0.3-1.2-0.7-1.9-1c-0.9-0.4-1.9-0.5-2.9-0.5
		c-0.4-1.6-1.6-2.9-3.1-3.6c0.3,1,0.1,1.9-0.2,2.9c-4-3.9-8-7.8-12-11.7c-0.2-0.2-0.5-0.5-0.8-0.6c-0.3,0.1-0.2,0.5,0,0.6
		c3.5,4.4,7,8.8,10.5,13.1c-0.8,0.3-1.5,0.6-2.3,0.9c-0.6,0.2-1,0.8-1,1.4c-0.1,0.1-0.2,0.1-0.3,0.2c-1.7,0.9-3.4,2-4.8,3.3
		c-0.3,0.3-0.2,0.7-0.2,1c0,0.1,0.1,0.2,0.2,0.3c0.1,0.4,0,0.9,0.2,1.4c0.1,0,0.2,0,0.3,0c1.1-0.5,2.2-1.3,3.4-1.6
		c0.2,0,0.4,0,0.6,0c0.1,0,0.2,0.1,0.3,0.2c0,0.1,0,0.3,0,0.4c-0.3,0.3-0.8,0.5-1.2,0.7c-0.2,0.1-0.4,0.1-0.6,0.2
		c-0.5,0.2-1.1,0.5-1.4,1c-0.1,0.4,0.5,0.3,0.7,0.3c0.1,0.3,0.2,0.8,0.7,0.8c0.3-0.1,0.5-0.4,0.8-0.5c0.1,0.1,0.2,0.2,0.2,0.3
		c0,0.6-0.2,1.2-0.4,1.8c1-0.1,1.8-0.9,2-1.9c0.1-0.5,0-1.2,0.5-1.5c0,0.1,0.1,0.2,0.2,0.3c0.1,0.4,0,0.9,0,1.4
		c0.6-0.2,1-0.8,1.1-1.4c0-0.4,0-0.7,0-1.1c0.3-0.2,0.6-0.5,1-0.4c0.4,0.2,0.8,0.6,1.3,0.8c0.1,0.1,0.3,0.1,0.4,0.2
		c0.4,0,0.8,0,1.1,0c1-0.2,1.9-0.8,2.4-1.7c0.4-0.7,0.4-1.6,0.1-2.4c0.2,0.3,0.5,0.6,0.6,1c0.2,0.7,0.3,1.4,0,2
		c-0.3,0.8-1.1,1.4-1.8,2c-1.8,1.3-4,2.1-5.6,3.6c-0.1,0-0.3-0.1-0.4-0.1c-0.2-0.1-0.4-0.1-0.6-0.2c-0.5-0.2-1-0.4-1.5-0.5
		c-0.5,1.6-1,3.2-1.5,4.8c-0.1,0.1,0.1,0.2,0.1,0.3c-1.3,1.7-2.4,3.6-2.8,5.8c0,0.1-0.1,0.3-0.1,0.3c-0.5-0.5-1.1-1-1.7-1.5
		c0.1-0.4,0.2-0.8,0.1-1.2c-0.1-0.2-0.1-0.5-0.2-0.7c-0.3-0.5-0.6-0.9-1.2-1c-0.6-0.2-1.3,0.1-1.7,0.6c-0.7-0.5-1.3-1-2-1.5
		c-0.5-0.4-0.8-0.9-1.4-1.1c-0.6,0-1.2,0-1.8,0c-0.8,0.7-1.7,1.4-2.6,2c0.5,0.5,0.9,1,1.4,1.5c0.4-0.3,0.7-0.6,1.1-0.8
		c0.3,0,0.6-0.1,0.8,0c0.3,0.1,0.6,0.4,0.8,0.7c1.2,1.6,2.5,3.1,3.8,4.7c-0.5,0.2-1.1,0.4-1.7,0.4c-0.6,0-1.3,0-1.9-0.1
		c-0.3,0-0.6-0.1-0.8,0.2c-0.3,0.4-0.6,0.9-1,1.4c-0.2,0.3-0.2,0.6-0.1,0.9c0.4,0.7,0.8,1.4,1.2,2.1c0.7,1.3,1.5,2.6,2.1,4
		c0.2,0.5,0.4,1,0.8,1.3c0.4,0.4,1,0.7,1.5,0.9c0.6,0.2,1.1,0.5,1.6,0.8c0.7,0.4,1.3,0.7,2,1.2c0-0.4,0.1-0.8,0.1-1.2
		c-0.7-0.5-1.5-0.7-2.2-1.1c0.3,0,0.6,0,0.9,0c0.8,0.2,1.5,0.5,2.3,0.8c-0.2-1.1-1-1.9-1.7-2.8c-0.2-0.3-0.6-0.3-0.9-0.4
		c-0.4-0.1-0.9,0-1.3,0.1c-0.1,0.2-0.1,0.4-0.2,0.5c-0.2,0-0.4,0-0.6-0.1c-0.1-0.2-0.1-0.5,0.1-0.7c0.3-0.3,0.4-0.9,0.1-1.2
		c-0.3-0.3-0.8-0.3-1.2-0.4c-0.7-1.1-1.3-2.2-2-3.3c0-0.3-0.1-0.6,0.2-0.8c0.5-0.4,1.2-0.1,1.7,0c1.9,0.5,3.8,0.5,5.7,0.6
		c0,0.5,0.1,1,0.3,1.5c0,0.1-0.1,0.2-0.1,0.2c-0.6-1.2-2.2-1.7-3.4-1.2c-0.7,0.3-1.2,1.1-1.1,1.9c0.2,0.8,0.8,1.6,1.6,1.9
		c0.1,0.1,0.3,0.1,0.4,0.2c0.5,0,1,0.1,1.5,0c0.6-0.3,1.2-0.8,1.2-1.5c0.1-0.5-0.1-0.9-0.2-1.3c0.1,0.1,0.2,0.2,0.3,0.3l-0.1,0
		c0.3,0.7,0.6,1.4,1,2.1c0.6,0.8,1.3,1.4,2.2,1.9c1.1,0.6,2.3,0.7,3.4,1.2c1,0.5,2,1.2,2.6,2.2c0.2,0.3,0.5,0.7,0.5,1.1
		c-2.2-0.1-4.5,0.1-6.6,1.1c-0.1,0-0.2,0.1-0.2,0.1c-1.1,0.6-2,1.7-2.3,2.9c-0.2,1-0.3,2.1,0,3.2c0.3,0.8,0.9,1.5,1.5,2
		c0.7,0.6,1.2,1.4,1.2,2.4c-0.1,0.5-0.5,0.9-1,1.2c-0.9,0.6-1.9,0.9-2.9,1.1c-0.1,0-0.3,0.1-0.5,0.1c-0.2,0-0.3,0.1-0.5,0.1
		c-0.4,0.1-0.8,0.2-1.2,0.3c-1,0.2-2,0.3-3,0.5c-1.2,0.2-2.4,0.5-3.3,1.4C79,73,77.8,74,76.8,75.1c0.4,0.1,0.8,0.2,1.3,0.1
		c0.6-0.6,1.1-1.3,1.6-2c0.1-0.2,0.3-0.3,0.5-0.3c0,0.3-0.1,0.5-0.2,0.8c-0.3,0.6-0.7,1.2-1,1.7c0.5,0.1,1.1,0.1,1.7,0
		c0.2,0,0.5,0,0.7-0.1c0.8-0.2,1.8-0.6,1.9-1.5c0.1-0.6-0.3-0.9-0.6-1.4c0.1-0.3,0.5-0.4,0.8-0.5c0.6,0.1,1,0.6,1.3,1.1
		c0.3,0.4,0.8,0.3,1.2,0.2c0.6-0.2,1.2-0.5,1.7-0.7c0.9-0.4,1.8-0.8,2.7-1.1c0.2-0.1,0.4-0.2,0.6-0.2c1.2-0.5,2.4-1,3.6-1.5
		c0.5-0.2,1-0.4,1.5-0.7c0.2-0.1,0.5-0.4,0.4-0.7c-0.2-0.4-0.7-0.7-0.9-1.1C95,66.5,95,65.7,95.1,65c0-0.9,0.4-1.8,1.2-2.2
		c0.9-0.6,2.1-0.6,3.1-0.6c-0.1,0.9-0.2,1.9,0.2,2.8c0.6,1.7,1.8,3,3.1,4.1c0.9,0.8,1.9,1.4,2.9,1.9c0.2,0.1,0.5,0.2,0.7,0.3
		c0.6,0.3,1.3,0.1,2,0.2c0.5,0.3,0.6,1,0.6,1.5c0,0.9,0.1,1.8,0.2,2.6c0.1,1.5,0,2.9-0.5,4.3c-0.4,0.9-1.3,1.4-2.1,2
		c-1.2,1.1-1.8,2.7-2.7,4c0.3,0.2,0.6,0.3,0.9,0.2c0.4-0.2,0.6-0.6,0.7-1c0-0.1,0.1-0.3,0.1-0.4c0.1-0.2,0.1-0.3,0.2-0.5
		c0.2-0.5,0.5-1,0.9-1.4c-0.3,1.2-0.7,2.3-1,3.5c0.5,0.1,1,0,1.5-0.1c0.9-0.3,1.9-0.8,2.5-1.6c0.2-0.3,0.2-0.7,0.1-1.1
		c-0.2-0.5-0.8-0.7-0.8-1.2c0-0.4,0.5-0.7,0.9-0.7c0.5,0,0.9,0.3,1.2,0.7c0.7-0.3,1-1.1,1.1-1.8c0.1-0.9,0-1.8,0-2.7
		c0.3,0.4,0.6,0.7,1.1,0.9c1.5,0.4,3.3-0.8,3.4-2.3c0.1-0.8-0.5-1.6-1.3-1.8c-1.3-0.4-2.8,0.5-3.3,1.7c-0.1-2-0.4-3.9-0.2-5.9
		c0-0.4,0-0.8-0.3-1c-0.4-0.2-0.7,0.1-1,0.3c-0.3,0.2-0.8,0.2-1.1-0.1c-0.9-0.7-1.6-1.6-1.8-2.7c-0.2-1,0.3-2,0.7-2.9
		c0.4-1,0.9-2,1-3c0.1-0.5,0-1.1,0.2-1.6c0.1,0,0.2-0.1,0.2-0.2c0.1,0,0.2,0.1,0.2,0.2c0,0.1,0.1,0.2,0.1,0.2c0.4,1,1,2,1.7,2.8
		c-0.2,1.7,0.7,3.5,2.3,4.3c0.1,0.1,0.3,0.1,0.4,0.2c0.2,0,0.3,0.1,0.5,0.1c0.3,0,0.6,0,0.9,0c0.2-0.1,0.4-0.1,0.5-0.2
		c0.4-0.1,0.7-0.4,1.1-0.6c-0.4,0-0.9,0-1.2-0.2c-0.8-0.4-1.3-1.2-1.6-1.9c0.4,0,0.7,0,1.1,0c0.6,0.7,1.7,0.8,2.6,0.6
		c1.2-0.3,2.1-1.4,2.3-2.5c-0.6,0.6-1.5,1-2.4,1c1.4-1.1,1.9-3.1,1.7-4.9c-0.1-1-0.4-2-0.9-2.9c-1-1.9-2.7-3.3-4.3-4.6
		c-1.4-1.2-2.8-2.5-3.6-4.2c-0.4-1-0.7-2.2-0.6-3.3c0.2-1.5,1.2-2.9,2.6-3.5c0.1,0,0.3-0.1,0.4-0.2c0.2,0,0.3-0.1,0.5-0.1
		c0.2,0,0.4,0,0.6,0c0.2,0,0.3,0.1,0.5,0.1c0.2,0.1,0.4,0.2,0.6,0.3c-0.1,0.2-0.3,0.4-0.4,0.6c-0.5,0.9-0.6,2-0.3,3.1
		c0.2,1,0.9,2,1.8,2.6c1.1,0.8,2.3,1.3,3.6,1.8c0.2,0.1,0.4,0.1,0.6,0.2c0.1,0.1,0.3,0.1,0.4,0.2c0.8,0.3,1.7,0.7,2.4,1.2
		c0.3,0.2,0.4,0.5,0.6,0.7C124.5,49.9,124.5,49.5,124.5,49.1z M94.5,21.1c0,0-0.1,0.1-0.1,0.1c0.2-0.5,0.2-1.2,0.5-1.6
		c0.4-0.5,1.2-0.5,1.7-0.2c0.5,0.3,1,0.6,1.5,0.8C96.9,20.2,95.7,20.5,94.5,21.1z M86.1,38.2c0,0.6-0.4,1.3-1.1,1.2
		c-0.3,0-0.5-0.2-0.6-0.4c-0.5-0.8-0.3-2,0.6-2.4C85.7,36.6,86.2,37.5,86.1,38.2z M88.2,48.1c-0.2,0.6-1,0.8-1.6,0.6
		c-0.7-0.2-1.5-0.8-1.4-1.7c0-0.5,0.5-0.7,0.9-0.8c0.5-0.1,1.1,0.1,1.5,0.4C87.9,47,88.3,47.6,88.2,48.1z M91.8,33.8
		c0.3-1,0.6-1.9,0.9-2.9c0-0.1,0.1-0.2,0.1-0.3c0.1-0.3,0.2-0.6,0.3-0.9c0.6,0.2,1.1,0.4,1.7,0.6c-0.5,0.2-1,0.5-1.4,1
		c0.3,0,0.5,0,0.8,0c0.1,0,0.2-0.1,0.2-0.1c0.1,0,0.2-0.1,0.2-0.1c-0.1,0.4-0.3,0.8-0.5,1.2c-0.1,0.2-0.1,0.3-0.2,0.5
		c-0.3-0.3-0.5-0.7-0.9-0.9c-0.1,0.2-0.1,0.4-0.1,0.7c0.2,0.6,0.7,1,1.3,1.2c0.1,0.1,0.3,0.1,0.4,0.2c0.3,0,0.6,0.1,0.9-0.1
		c0-0.2,0-0.3,0-0.5c-0.2-0.4-0.7-0.4-1.1-0.3c0-0.5,0.1-1,0.6-1.2c0.4-0.2,0.8,0.1,1.1,0.4c0.1-0.6,0.3-1.2,0.7-1.6
		c0.3-0.3,0.7-0.5,1-0.6c0.2,0.6,0.3,1.3,0,1.9c-0.1,0.3-0.3,0.6-0.6,0.8c0.4,0,0.9,0.1,1,0.5c0.3,0.5-0.2,1.1-0.6,1.3
		c-0.1-0.3-0.2-0.5-0.5-0.7c-0.1,0-0.3,0-0.4,0c-0.2,0.1-0.4,0.3-0.4,0.5c0,0.5,0.5,0.8,0.8,1c0.1,0,0.2,0.1,0.2,0.1
		c0.5,0.2,1.1,0.3,1.5-0.1c0.2-0.1,0.3-0.3,0.4-0.5c-0.5-0.1-1,0.2-1.4,0.4c0,0,0.1-0.1,0.1-0.2c0.2-0.3,0.3-0.6,0.5-1
		c0.2-0.3,0.4-0.7,0.5-1c0.1,0.4,0.2,0.9,0.6,1c0.1-0.5,0.2-1.1-0.1-1.6c0.8,0.3,1.5,0.9,2.3,1.3c-0.5,0.1-1.2,0.3-1.5,0.9
		c0.4,0.1,0.8,0,1.2-0.1c-0.5,0.7-0.9,1.4-1.3,2c0-0.5,0-1-0.3-1.4c-0.3,0.5-0.3,1.2,0.2,1.7c0.4,0.4,1,0.8,1.7,0.7
		c0.3,0,0.5-0.4,0.4-0.7c0-0.3-0.3-0.4-0.5-0.5c-0.1,0-0.3,0-0.4,0c0,0-0.1,0.1-0.1,0.1c0-0.2,0-0.4,0-0.6c0.1-0.3,0.3-0.5,0.6-0.6
		c0.2,0,0.6-0.1,0.8,0.1c0.2,0.1,0.3,0.3,0.4,0.5c0.3-0.9,1.1-1.8,2.1-1.8c0.3,0.9-0.1,1.9-0.9,2.5c0,0,0,0.1,0,0.1
		c0.4,0,0.7,0.3,0.8,0.7c0.1,0.5-0.3,0.9-0.8,1.1c-0.1-0.3-0.3-0.7-0.6-0.7c-0.4-0.1-0.8,0.3-0.5,0.7c0.4,0.6,1.1,1,1.8,1.2
		c0.2,0,0.4-0.1,0.6-0.1c0.2-0.1,0.3-0.2,0.5-0.3c0-0.1-0.1-0.1-0.1-0.2c-0.3-0.1-0.7-0.2-1.1-0.2c0.4-0.5,0.7-0.9,1.1-1.4
		c0,0.4,0.2,0.9,0.5,1.2c0.1-0.5,0.2-1.1,0.1-1.7c0.4,0.4,0.9,0.7,1.3,1.1c0.1,0.1-0.1,0.2-0.1,0.3c-0.9,1-1.9,2-2.8,3
		C100.5,38.8,96.1,36.3,91.8,33.8z M103.2,66.4c-0.5,0-0.9-0.4-1-0.8c-0.2-1,0.6-2,1.6-2.1c0.5,0,1,0.3,1.1,0.8
		C105.1,65.2,104.2,66.3,103.2,66.4z M112.9,76.7c0.2-0.6,0.8-1.1,1.5-1.3c0.4-0.1,1,0,1.3,0.3c0.2,0.2,0.2,0.6,0.1,0.9
		c-0.2,0.7-0.9,1.2-1.6,1.3c-0.4,0.1-0.9,0-1.1-0.4C112.8,77.4,112.8,77.1,112.9,76.7z M107.7,50.3c0.5-0.3,1.2-0.1,1.6,0.3
		c0.4,0.3,0.6,0.7,0.7,1.1c0,0.3,0.1,0.7-0.1,0.9c-0.2,0.4-0.8,0.5-1.2,0.4c-0.8-0.2-1.4-1-1.5-1.8
		C107.2,50.9,107.3,50.5,107.7,50.3z M108.5,59.2c-0.2,0.6-0.6,1.1-1.3,1.3c-0.5,0.2-1.2-0.1-1.4-0.7c-0.3-1.1,0.8-2.5,1.9-2.2
		C108.5,57.8,108.7,58.6,108.5,59.2z" />
<path class="st0" d="M21.6,8.5c0.3-0.3,0.5-0.6,0.8-0.8c0,0.2,0,0.5,0.1,0.7c0,0.4,0,0.7,0,1.1c0.1,0.5,0.7,0.8,1.3,0.6
		c0.6-0.2,0.8-1.1,0.3-1.5c-0.5-0.4-0.9-0.7-1.3-1.2c0.4,0,0.9,0.1,1.3,0.1C24,7,23.9,6.6,23.7,6.1c-0.4,0.1-0.7,0.5-1,0.7
		c-0.1-0.4-0.1-0.9-0.1-1.3c-0.5,0.1-0.9,0.3-1.3,0.5c0.3,0.4,0.6,0.7,0.8,1.1c-0.4,0.1-0.8,0.1-1.2,0.1C21.2,7.6,21.4,8,21.6,8.5z" />
<path class="st0" d="M27.6,6.4c0-0.5-0.6-0.9-1.1-0.6c-0.5,0.2-0.6,1-0.1,1.3C26.9,7.4,27.6,7,27.6,6.4z" />
<path class="st0" d="M28.4,7.4c0.5,0.3,1.2-0.1,1.1-0.6c0-0.5-0.4-0.8-0.9-0.7c-0.3,0-0.4,0.3-0.6,0.5C28,6.9,28.1,7.3,28.4,7.4z" />
<path class="st0" d="M60.4,6.4c-1.3,0.3-2.3,1.3-2.5,2.6c0.8,0,1.7,0,2.5,0C60.4,8.1,60.4,7.2,60.4,6.4z" />
<path class="st0" d="M61.7,6.4c0,0.9,0,1.7,0,2.6c0.8,0,1.7,0,2.5,0c0,0,0-0.1,0-0.2c0-0.1-0.1-0.2-0.1-0.4
		C63.7,7.4,62.7,6.6,61.7,6.4z" />
<path class="st0" d="M25.5,8.4c0.2-0.1,0.4-0.3,0.4-0.5c0.2-0.5-0.3-1-0.8-1c-0.6,0-0.9,0.8-0.5,1.2C24.8,8.5,25.2,8.4,25.5,8.4z" />
<path class="st0" d="M29.2,8.6c0.2,0.4,0.6,0.6,1,0.4c0.2-0.1,0.3-0.3,0.5-0.5c0-0.2,0-0.5-0.2-0.7c-0.3-0.3-0.8-0.3-1.1,0
		C29.2,8,29.2,8.3,29.2,8.6z" />
<path class="st0" d="M20.8,10.1c0.5,0.3,1.1-0.1,1.1-0.6c0.1-0.5-0.6-0.9-1.1-0.7C20.3,9,20.3,9.9,20.8,10.1z" />
<path class="st0" d="M20,9.7c0.2-0.6-0.5-1.1-1-0.9c-0.5,0.2-0.6,0.9-0.2,1.2C19.1,10.5,19.9,10.3,20,9.7z" />
<path class="st0" d="M26.9,9.8c0,0.4,0.3,0.8,0.5,1.1c-0.1,0-0.3,0-0.4,0c-0.1,0-0.2,0.1-0.3,0.1c-0.2,0.3-0.1,0.7,0,1
		c0.2-0.1,0.3-0.3,0.5-0.4c0.4,0.1,0.5,0.6,0.4,0.9c-0.3,0.6-1.1,0.9-1.8,0.8c-0.4-0.2-0.6-0.5-0.7-0.9c0.5-0.1,0.9,0.1,1.3,0.3
		c-0.2-0.6-0.3-1.1-0.5-1.7c-0.2,0.4-0.5,0.8-1,1c0-0.5,0.2-1,0.3-1.4c-0.7,0.3-1.4,0.5-2,0.8c0.4,0.3,0.9,0.5,1.2,0.9
		c-0.4,0.1-0.8,0.1-1.2,0c0,0-0.1,0-0.2,0c0.2,0.5,0.5,0.9,0.7,1.4c0,0,0.1,0,0.1,0c0.1-0.4,0.3-0.8,0.7-1.1
		c0.2,0.4,0.2,0.7,0.2,1.1c-0.2,0.5-0.6,0.7-1.1,0.8c-0.4,0.1-0.9,0.1-1.2-0.3c-0.1-0.2,0-0.4,0-0.6c0.2,0,0.4,0,0.6,0
		c-0.1-0.3-0.2-0.6-0.5-0.7c-0.3-0.1-0.5,0.1-0.7,0.4c0.1-0.8-0.5-1.7-1.4-1.7c0,0.3,0,0.7,0,1c0.2,0.4,0.6,0.7,1,0.9
		c-0.2,0.1-0.5,0.1-0.6,0.4c-0.1,0.3,0.2,0.6,0.3,0.8c0.1-0.3,0.2-0.7,0.6-0.5c0.4,0.2,0.3,0.6,0.3,0.9c-0.1,0.1-0.2,0.2-0.4,0.3
		c-0.6,0.1-1.3-0.2-1.6-0.6c0.3,0,0.6,0,0.9,0.1c-0.4-0.4-0.7-0.9-1.1-1.3c0,0.3,0,0.7-0.1,1c-0.1-0.2-0.2-0.3-0.3-0.5
		c0-0.1,0-0.3,0-0.4c0,0-0.1,0-0.2,0c-0.2,0.2-0.5,0.4-0.7,0.7c1.1,0.7,2,1.7,2.8,2.7c0.3-0.2,0.5-0.3,0.8-0.5
		c0.7-0.4,1.5-0.8,2.3-1.1c1.4-0.6,2.8-1.2,4.3-1.6c0.6-0.2,1.2-0.3,1.8-0.5c-0.2-1.3-0.3-2.6,0.1-3.8c-0.4,0-0.7,0-1.1,0
		c0.1,0.1,0.1,0.2,0.2,0.4c0.1,0.2,0.1,0.4,0.2,0.6c-0.3-0.2-0.5-0.4-0.7-0.7c0,0.6,0.1,1.1,0.2,1.7c0.2-0.2,0.4-0.4,0.6-0.5
		c0,0.5-0.2,1.1-0.6,1.5c-0.3,0.1-0.6,0.1-0.8,0c-0.1-0.1-0.2-0.3-0.3-0.4c0-0.2,0-0.3,0.1-0.5c0.3-0.1,0.5,0,0.7,0.1
		c0-0.4-0.1-0.7-0.4-0.9c-0.2,0-0.4,0.1-0.6,0.2c0-0.4,0.1-0.7,0-1.1c-0.1-0.4-0.5-0.7-0.8-0.9C27,9.1,26.8,9.5,26.9,9.8z" />
<path class="st0" d="M50.1,11.8c0.5,0.2,1.1,0,1.3-0.4c0.3-0.6-0.1-1.5-0.8-1.5c-0.4-0.1-0.8,0.2-1.1,0.5c-0.1,0.2-0.1,0.5-0.1,0.7
		C49.6,11.4,49.8,11.7,50.1,11.8z" />
<path class="st0" d="M71.3,11.9c0.5,0.1,1.1-0.2,1.3-0.7c0.1-0.4-0.1-0.9-0.4-1.1c-0.5-0.4-1.3-0.2-1.6,0.4
		C70.3,11,70.6,11.7,71.3,11.9z" />
<path class="st0" d="M52.7,12c0.7,0.4,1.6-0.3,1.5-1c0-0.7-0.9-1.2-1.5-0.8C52,10.5,52,11.7,52.7,12z" />
<path class="st0" d="M57.9,10.2c0,0.1,0.1,0.3,0.1,0.4c0,0.1,0.1,0.2,0.1,0.2c0.3,0.7,0.9,1.2,1.5,1.5c0.7,0.3,1.6,0.4,2.4,0.2
		c0.8-0.3,1.5-0.9,1.9-1.6c0.1-0.2,0.1-0.4,0.2-0.6c0,0,0.1-0.1,0.1-0.1c-0.3,0-0.5,0-0.8,0C61.6,10.2,59.8,10.2,57.9,10.2z" />
<path class="st0" d="M69,12.1c0.4,0,0.6-0.3,0.8-0.6c0-0.3,0.1-0.8-0.2-1c-0.3-0.4-0.9-0.5-1.4-0.3c-0.5,0.3-0.6,1-0.3,1.5
		C68.2,12,68.6,12.2,69,12.1z" />
<path class="st0" d="M17.7,11.7c0.4,0.4,1.2,0,1.2-0.6c0.1-0.5-0.6-0.9-1-0.7C17.3,10.6,17.2,11.4,17.7,11.7z" />
<path class="st0" d="M47.8,12.7c0.2,0,0.5,0,0.7-0.1c0.6-0.3,0.7-1.2,0.2-1.6c-0.5-0.5-1.5-0.3-1.7,0.3
		C46.8,11.9,47.2,12.5,47.8,12.7z" />
<path class="st0" d="M74.3,12.6c0.4-0.1,0.8-0.5,0.7-1c0-0.4-0.3-0.8-0.6-0.9c-0.3-0.1-0.7-0.1-1,0.1c-0.3,0.2-0.5,0.6-0.5,1
		C73,12.4,73.7,12.8,74.3,12.6z" />
<path class="st0" d="M55.5,12.8c0.6,0.1,1.2-0.4,1.2-1c0-0.5-0.4-0.9-0.8-1.1c-0.1,0-0.3,0-0.4,0c-0.3,0.1-0.6,0.2-0.7,0.5
		C54.4,11.9,54.8,12.8,55.5,12.8z" />
<path class="st0" d="M66.3,12.8c0.7,0.1,1.2-0.6,1.1-1.2c-0.1-0.4-0.4-0.7-0.8-0.8c-0.1,0-0.3,0-0.4,0c-0.3,0.1-0.6,0.3-0.7,0.6
		C65.1,12,65.6,12.8,66.3,12.8z" />
<path class="st0" d="M59,13.2c0.3-0.8-0.6-1.6-1.3-1.3c-0.7,0.2-0.9,1.2-0.4,1.7C57.8,14.2,58.9,14,59,13.2z" />
<path class="st0" d="M63.7,11.9c-0.6,0.2-0.9,0.9-0.6,1.5c0.2,0.5,0.8,0.6,1.3,0.5c0.3-0.2,0.6-0.5,0.6-0.9
		C65.1,12.3,64.3,11.7,63.7,11.9z" />
<path class="st0" d="M19.1,13c0-0.5-0.6-0.7-1-0.6c-0.2,0.2-0.5,0.4-0.5,0.7c0,0.5,0.5,0.8,1,0.7C18.9,13.6,19.2,13.3,19.1,13z" />
<path class="st0" d="M46.6,14.2c0.3-0.1,0.4-0.4,0.5-0.7c0-0.5-0.2-1-0.7-1.2c-0.2,0-0.4,0-0.6,0c-0.3,0.1-0.5,0.3-0.7,0.6
		c0,0.4-0.1,0.8,0.2,1.1C45.6,14.4,46.2,14.5,46.6,14.2z" />
<path class="st0" d="M75,13.4c0,0.6,0.7,1.1,1.3,0.9c0.3-0.1,0.5-0.3,0.7-0.6c0-0.3,0-0.6,0-0.8c-0.2-0.3-0.5-0.6-1-0.6
		C75.4,12.3,74.9,12.9,75,13.4z" />
<path class="st0" d="M59.3,14.2c0,1.2,0,2.5,0,3.7c0,0.2,0,0.3,0.1,0.5c0.4,0,0.8,0,1.1,0c0-1.5,0-2.9,0-4.4c-0.1,0-0.2,0-0.3,0
		c-0.3-0.1-0.6-0.2-0.8-0.3C59.3,13.9,59.2,14,59.3,14.2z" />
<path class="st0" d="M61.6,18.4c0.4,0,0.8,0,1.1,0c0-1.6,0-3.1,0-4.7c-0.4,0.1-0.8,0.2-1.2,0.3C61.6,15.5,61.6,17,61.6,18.4z" />
<path class="st0" d="M44.9,16.7c0.2,0,0.3-0.1,0.5-0.1c0.3-0.2,0.5-0.4,0.6-0.7c0.2-0.6-0.3-1.2-0.9-1.3c-0.5-0.1-0.9,0.3-1.1,0.7
		c0,0.3-0.1,0.7,0.1,0.9C44.3,16.5,44.6,16.6,44.9,16.7z" />
<path class="st0" d="M76.1,15.7c0,0.4,0.3,0.9,0.7,1c0.6,0.2,1.4-0.3,1.3-1c0-0.7-0.7-1.2-1.3-1C76.4,14.8,76,15.2,76.1,15.7z" />
<path class="st0" d="M44.7,19.1c0.6,0,1.1-0.7,0.9-1.3c-0.1-0.5-0.7-0.8-1.2-0.7c-0.7,0.1-1,0.9-0.7,1.5
		C43.9,18.9,44.3,19.2,44.7,19.1z" />
<path class="st0" d="M76.8,17.3c-0.6,0.4-0.5,1.5,0.1,1.8c0.5,0.3,1.1,0,1.4-0.4c0.1-0.3,0.1-0.7-0.1-1
		C78,17.1,77.3,16.9,76.8,17.3z" />
<path class="st0" d="M53.5,17.3c-0.3,0.6-0.7,1.2-1,1.9c0,0.3-0.1,0.6,0,0.9c0.3,0.8,1,1.3,1.4,2.1c0.3-0.8,0.8-1.4,1-2.2
		c0.1-0.7-0.4-1.4-0.8-1.9C53.9,17.9,53.8,17.5,53.5,17.3z" />
<path class="st0" d="M67.2,19.4c-0.2,0.4-0.1,0.8,0.1,1.2c0.2,0.6,0.6,1.1,0.8,1.6c0,0,0.1,0,0.1-0.1c0.4-0.7,1-1.1,1.3-1.8
		c0.1-0.4,0.1-0.8,0-1.2c-0.3-0.6-0.5-1.2-1-1.7C68.1,18.1,67.5,18.6,67.2,19.4z" />
<path class="st0" d="M47.8,23.9c-0.2-0.7-0.1-1.5,0.1-2.2c0.1-0.2,0.2-0.4,0.2-0.6c0.1-0.1,0.1-0.2,0.2-0.3c0,0,0-0.1,0-0.2
		c-0.2,0.1-0.4,0.2-0.6,0.3c-0.8,0.3-1.5,0.6-2.3,1c1.1,1.3,1.9,2.8,2.6,4.3c0.5,1.1,0.9,2.2,1.3,3.3c0.1,0.1-0.1,0.2-0.2,0.3
		c-0.6,0.6-0.8,1.4-0.6,2.2c0.2,0.9,0.9,1.7,1.6,2.1c-3.3,2.2-5.9,5.2-7.7,8.6c-0.1,0.1-0.2,0.3-0.2,0.4c-0.4,0.9-0.8,1.7-1.1,2.7
		c0.4,0.3,0.6,0.8,1,0.9c0.2-0.4,0.5-0.8,0.9-1.1c0.4,0.2,1,0.3,1.3,0.6c-0.4,0.3-0.9,0.6-1.2,1.1c0.5,0,0.8-0.5,1.1-0.7
		c0.4-0.3,0.8-0.3,1.2-0.2c0.3,0.2,0.7,0.3,0.9,0.7c0.2,0.3,0.2,0.8,0.1,1.1c-0.2,0.5-0.6,1-1.1,1.3c-0.3-0.1-0.6-0.3-0.9-0.4
		c-0.1,0-0.3-0.1-0.2-0.2c0.4-0.4,0.9-0.7,1-1.2c-0.4,0-0.7,0.3-1,0.5c-0.2,0.2-0.5,0.3-0.7,0.4c0.2,0.5,0.6,0.9,0.8,1.5
		c0.3,0.7,0.1,1.5,0.4,2.3c0.2,0.8,0.9,1.3,1.2,2c0.1,0.3,0,0.6,0.1,0.9c0,0.4,0.2,0.9,0.4,1.2c0-0.3,0-0.6-0.1-0.9
		c0-0.2,0-0.3,0-0.5c4.7,0,9.5,0,14.2,0c0,5.1,0,10.3,0,15.4c-0.6,0-1.3,0.2-1.7,0.7c0.9,0.5,1.9,0.7,2.8,1.1
		c0.2,0.1,0.4,0.1,0.7,0.2c0.5,0.1,1,0.4,1.5,0.4c0-0.8,0.5-1.5,0.9-2.2c-0.4,0-0.8,0-1.1-0.1c-0.7-0.1-1.4-0.1-2.1-0.2
		c0-5.1,0-10.3,0-15.4c4.6,0,9.2,0,13.9,0c0,0.4,0,0.9,0,1.3c-0.1,0.4-0.1,0.7-0.1,1.1c0,0.2-0.1,0.5-0.1,0.7c-0.2,1-0.4,2-0.8,2.9
		c-1.3,3.8-4,7.2-7.6,9c-0.7,0.3-0.9,1.1-1.2,1.7c-0.1,0.3-0.2,0.5-0.3,0.8c0,0.2,0,0.4-0.1,0.7c0.3,0.1,0.6,0.2,0.9,0.3
		c1.3,0.4,2.6,0.6,3.9,0.9c0.9,0.1,1.7,0.3,2.6,0.2c0.3,0,0.6-0.3,0.8-0.5c3.4-2.8,6-6.6,7.4-10.7c0-0.1,0.1-0.3,0.2-0.4
		c0-0.1,0.1-0.2,0.1-0.3c0.6-2,1-4.1,1.2-6.2c0-1.2,0-2.4,0-3.7c-0.6-0.4-1-1-1.4-1.6c-0.8-0.3-1.6-0.6-2.4-0.9
		c-0.2-0.1-0.4-0.1-0.5-0.1c-0.6,0.1-1.1,0.3-1.7,0.4c-0.1-0.4-0.2-0.8-0.3-1.2c0.5-0.2,1-0.3,1.4-0.4c0.2-0.1,0.5-0.1,0.6-0.3
		c0.4-0.5,0.7-0.9,1.1-1.4c-0.2-0.4-0.5-0.8-0.7-1.2c-0.4-0.7-0.9-1.4-1-2.3c-0.6,0.3-1.2,0.6-1.8,0.9c0.2,0.5,0.5,1,0.8,1.5
		c-0.4,0.2-0.7,0.4-1.1,0.6c-0.4-0.8-0.8-1.6-1.2-2.4c0-0.1-0.1-0.2-0.1-0.3c0.4-0.2,0.8-0.4,1.2-0.6c1-0.4,1.9-0.9,2.8-1.4
		c0.1,0.1,0.2,0.2,0.3,0.3c0.2-0.3,0.4-0.7,0.7-1c-1.8-3-4.2-5.6-7.1-7.6c0.6-0.4,1.2-1,1.5-1.7c0.3-0.9,0.2-2-0.5-2.7
		c-0.2-0.1-0.2-0.3-0.1-0.5c0.3-0.9,0.7-1.8,1-2.7c0.1-0.3,0.2-0.5,0.3-0.8c0.7-1.4,1.4-2.8,2.4-4c-1-0.4-1.9-0.9-2.9-1.2
		c0,0,0.1,0.1,0.1,0.2c0.1,0.1,0.1,0.3,0.2,0.4c0.3,0.8,0.4,1.6,0.3,2.5c-0.8-0.4-1.3-1.2-1.6-2.1c-0.1,0.3-0.1,0.5-0.2,0.8
		c-0.2,0.8-0.5,1.6-0.9,2.3c0.7-0.4,1.6-0.6,2.3-0.3c-0.3,0.4-0.7,0.7-1.2,1c-1.1,0.5-2.4,0.4-3.4-0.2c-0.5-0.2-0.9-0.6-0.9-1.1
		c0.1-0.5,0.5-1.1,1.1-0.9c0.5,0.2,0.4,0.9,0.4,1.4c0.5-0.5,0.8-1.1,1-1.8c0.1-0.4,0.1-0.9-0.2-1.2c-0.3-0.3-0.7-0.3-1.1-0.2
		c-0.6,0.2-1,0.8-1.3,1.4c-0.1,0.1-0.1,0.2-0.2,0.4c-0.1,0.1-0.1,0.2-0.1,0.3c-0.1-0.6-0.3-1.3-0.6-1.8c-0.3-0.4-0.9-0.7-1.4-0.4
		c-0.4,0.2-0.5,0.7-0.6,1c0,0.2,0,0.4,0,0.6c0.1,0.5,0.2,1,0.5,1.5c0.1-0.4,0.2-0.9,0.6-1.2c0.3-0.3,0.9-0.1,1,0.3
		c0.1,0.3,0.1,0.7-0.1,1c-0.2,0.3-0.6,0.5-1,0.6c-0.2,0-0.3,0.1-0.5,0.1c-0.7,0.1-1.5,0.1-2.2-0.1c-0.1-0.1-0.3-0.1-0.4-0.1
		c-1-0.4-1.6-1.3-1.7-2.3c1,0.2,1.9,0.7,2.5,1.5c0-0.2,0-0.5-0.1-0.7c0-0.9-0.1-1.7,0-2.6c0-0.2,0-0.4,0-0.6
		c-0.6,0.8-1.5,1.4-2.5,1.5c0.3-1.1,1.1-2,2.1-2.6c-1.7,0-3.5,0-5.2,0c0.9,0.7,1.7,1.5,2,2.6c-1-0.2-1.8-0.7-2.4-1.5
		c0,0.5,0,1.1,0.1,1.6c0.1,0.2,0.1,0.5,0,0.8c0,0.5,0,1,0,1.4c0.7-0.7,1.5-1.2,2.4-1.4c0,1.2-1,2.2-2.1,2.5c-0.2,0-0.3,0.1-0.5,0.1
		c-0.6,0.1-1.1,0.1-1.7,0c-0.2-0.1-0.4-0.1-0.5-0.1c-0.4-0.2-0.9-0.4-1-0.9c-0.1-0.3-0.1-0.6,0.1-0.8c0.2-0.3,0.7-0.4,1-0.2
		c0.4,0.3,0.4,0.8,0.6,1.2c0.4-0.7,0.5-1.6,0.4-2.4c-0.1-0.3-0.2-0.5-0.5-0.7c-0.5-0.3-1.1-0.1-1.4,0.3c-0.4,0.5-0.6,1.2-0.7,1.9
		c-0.2-0.6-0.5-1.1-1-1.6c-0.3-0.3-0.7-0.6-1.2-0.5c-0.3,0-0.6,0.3-0.7,0.5c-0.2,1,0.2,2.1,1,2.8c0-0.1-0.1-0.2-0.1-0.4
		c0-0.4,0-1,0.5-1.1c0.8-0.2,1.4,0.9,0.9,1.5c-0.5,0.7-1.4,0.9-2.3,1.1c-1.2,0.2-2.3-0.3-3.1-1.2c0.8-0.4,1.6-0.1,2.4,0.2
		c-0.3-0.6-0.5-1.2-0.7-1.7c-0.1-0.3-0.2-0.5-0.2-0.8c0-0.2-0.1-0.4-0.1-0.6C49.1,22.7,48.6,23.4,47.8,23.9z M50,35.6
		c0.3,0.3,0.6,0.6,0.8,0.9c0,0-0.1,0.1-0.1,0.1c-0.3,0.2-0.5,0.5-0.8,0.7c0.7,0.8,1.4,1.5,2.1,2.3c-0.2,0.4-0.6,0.6-0.9,0.9
		c-0.7-0.8-1.4-1.5-2.2-2.3c-0.3,0.3-0.6,0.6-0.9,0.8c-0.3-0.3-0.6-0.6-0.8-0.9C48.2,37.3,49.1,36.5,50,35.6z M46.6,38.9
		c1.1,0.9,2.3,1.8,3.5,2.7c-0.2,0.4-0.5,0.7-0.8,1c-1.1-0.9-2.3-1.8-3.5-2.7C46.1,39.6,46.3,39.2,46.6,38.9z M46.5,46.1
		c-1.1,0.4-2.3-0.3-2.7-1.4c-0.1-0.5-0.2-1,0-1.5c0.3-0.7,0.8-1.4,1.6-1.6c1.1-0.3,2.3,0.4,2.7,1.4c0.2,0.6,0.1,1.1-0.1,1.7
		C47.7,45.4,47.2,45.9,46.5,46.1z M46.6,54.5c0-0.6,0-1.2,0.1-1.9c0.1-0.3,0.1-0.6,0.1-0.9c0-0.2,0.1-0.5,0.1-0.7
		c0.3-1.3,0.6-2.5,1.2-3.7c0.7-1.7,1.8-3.4,3-4.8c1.8-2,4.2-3.6,6.8-4.3c0.3-0.1,0.7-0.1,1-0.2c0.6-0.1,1.2-0.2,1.8-0.2
		c0,5.5,0,11,0,16.5C56.1,54.5,51.3,54.4,46.6,54.5z M58.9,36.3c-0.2,0.4-0.4,0.8-0.6,1.2c-0.6,0.1-1.2,0.1-1.8,0
		c-0.6-0.1-1.3,0-1.8-0.3c-1-0.5-1.5-1.6-1.2-2.7c0.3-1,1.3-1.7,2.3-1.8c0.2,0,0.3,0,0.5,0c0.8,0.1,1.5,0.6,1.8,1.3
		c0.1,0.4,0.3,0.7,0.3,1.1c0,0.4-0.2,0.9-0.4,1.3C58.3,36.3,58.6,36.3,58.9,36.3z M61.6,36.8c-0.6,0.1-1.2,0-1.7-0.2
		c-0.5-0.3-0.8-0.8-0.9-1.4c0-1,0-2,0-3c0.4,0,0.9,0,1.3,0c0,1,0,1.9,0,2.9c0,0.3,0.3,0.4,0.5,0.5c0.3,0,0.9,0,0.9-0.5
		c0.1-1,0-1.9,0-2.9c0.5,0,0.9,0,1.4,0c0,0.8,0,1.6,0,2.4c0,0.5-0.1,1.1-0.4,1.5C62.4,36.6,62,36.7,61.6,36.8z M73.4,73.1
		c-0.3-0.3-0.7-0.6-0.9-0.9c0.3-0.4,0.7-0.7,1-1c0.1-0.1-0.1-0.3-0.2-0.4c-0.3,0.3-0.7,0.7-1,1c-0.1,0.1-0.3,0-0.4-0.1
		c-0.2-0.2-0.4-0.5-0.7-0.7c0.4-0.4,0.7-0.7,1.1-1.1c-0.1-0.1-0.2-0.2-0.3-0.3c-0.4,0.4-0.8,0.8-1.2,1.1c-0.3-0.3-0.7-0.5-0.8-0.9
		c0.7-0.7,1.4-1.4,2.1-2c1.1,1.1,2.2,2.1,3.3,3.2C74.7,71.7,74,72.4,73.4,73.1z M76,69.7c-0.4-0.2-0.8-0.6-1.3-0.8
		c0.5-0.2,1.3-0.3,1.4-0.9c-0.5,0.1-1,0.4-1.5,0.6c-0.8,0.1-1.7-0.5-1.7-1.4c0-0.9,0.8-1.5,1.5-1.7c0.5,0.2,0.8,0.6,1.3,0.8
		c-0.5,0.1-1.1,0.4-1.5,0.7c0,0.1,0,0.2,0,0.3c0.4-0.1,0.7-0.3,1.1-0.4c0.2-0.1,0.4-0.1,0.5-0.2c0.1,0,0.3,0,0.4,0
		c0.6,0.2,1.1,0.6,1.1,1.3C77.4,68.7,76.8,69.4,76,69.7z M76.7,54.8c0.1-0.3,0.1-0.6,0.1-0.9c1.5,0,3,0,4.6,0c0,0.6,0,1.2,0,1.8
		c-0.1,0.4-0.3,0.9-0.6,1.1c-0.6,0.4-1.5,0.3-1.9-0.3c-0.3-0.4-0.4-0.9-0.4-1.4c-0.5-0.1-1.1,0-1.7-0.1
		C76.7,55.1,76.7,54.9,76.7,54.8z M76.6,57.4c1.3,0.2,2.5,0.5,3.8,0.7c0.2,0.1,0.5,0.1,0.7,0.1c0,0.2,0,0.5-0.1,0.7
		c0,0.2-0.1,0.4-0.1,0.6c-0.1,0.6-0.2,1.1-0.3,1.7c-0.4-0.1-0.8-0.1-1.2-0.2c0.1-0.5,0.2-1,0.3-1.6c-0.1,0-0.3,0-0.4-0.1
		c-0.1,0.5-0.2,1-0.3,1.5c-0.4-0.1-0.8-0.2-1.2-0.2c0.1-0.5,0.2-1,0.3-1.5c-0.1,0-0.3-0.1-0.4-0.1c-0.1,0.5-0.2,1.1-0.3,1.6
		c-0.4-0.1-0.8-0.1-1.2-0.2C76.2,59.4,76.4,58.4,76.6,57.4z M75.9,60.7c0.3,0.1,0.6,0.2,0.9,0.3c1.1,0.4,2.2,0.9,3.4,1.3
		c-0.1,0.3-0.2,0.6-0.3,0.9c-0.8,0.3-1.7,0.6-2.5,0.9c-0.2,0.1-0.3,0.1-0.5,0.2c0.7,0.2,1.4,0.6,2.1,0.8c-0.1,0.4-0.3,0.8-0.4,1.2
		c-0.7-0.3-1.4-0.6-2.2-0.9c-0.2-0.1-0.4-0.1-0.5-0.2c-0.5-0.2-1.1-0.4-1.6-0.6c0.1-0.3,0.3-0.7,0.4-1c0.9-0.3,1.8-0.6,2.6-0.9
		c0.1,0,0.1-0.1,0.2-0.1c-0.1,0-0.3-0.1-0.4-0.1c-0.6-0.2-1.1-0.5-1.7-0.7c0-0.1,0.1-0.2,0.1-0.3C75.7,61.3,75.8,61,75.9,60.7z
		 M74.1,47.5c0.6,1.5,1,3,1.2,4.5c0.1,0.8,0.2,1.6,0.2,2.4c-4.6,0-9.2,0-13.9,0c0-5.5,0-11,0-16.5c0.5,0.1,1,0.1,1.4,0.2
		c0.2,0,0.4,0.1,0.6,0.1c3.9,0.8,7.2,3.6,9.2,6.9C73.4,45.9,73.8,46.7,74.1,47.5z M63.6,37.1c0-0.3,0.1-0.6,0.2-0.9
		c0-0.2,0.1-0.4,0.1-0.6c0.1-0.2,0.1-0.4,0.1-0.7c0-0.2,0.1-0.4,0.1-0.6c0.1-0.6,0.3-1.3,0.4-1.9c0.2,0,0.5,0.1,0.7,0.1
		c0.2,0,0.4,0.1,0.5,0.1c0,0.2-0.1,0.4-0.1,0.6c-0.1,0.4-0.1,0.7-0.2,1c0,0.2-0.1,0.4-0.1,0.6c-0.1,0.4-0.2,0.8-0.2,1.2
		c0,0.2-0.1,0.4-0.1,0.6c0,0.2-0.1,0.4-0.1,0.7C64.5,37.2,64.1,37.1,63.6,37.1z M75.7,38.8c0.2,0.2,0.4,0.5,0.5,0.7
		c-0.2,0.5-0.5,1-0.8,1.5C75,42,74.4,43,73.9,44.1c0,0-0.1,0-0.1,0c-0.2-0.4-0.5-0.7-0.8-1.1c0.1-0.3,0.3-0.6,0.4-0.9
		c-0.3-0.4-0.6-0.7-0.8-1.1c0,0-0.1-0.1-0.1-0.1c-0.2,0.1-0.5,0.2-0.8,0.2c-0.3-0.3-0.7-0.6-1-1c0.5-0.1,1-0.3,1.5-0.4
		c0.3-0.1,0.5-0.2,0.8-0.2c0.1,0,0.2-0.1,0.3-0.1C74.1,39.2,74.9,39,75.7,38.8z M72.5,35.7c0.3,0.2,0.5,0.4,0.8,0.6
		c-0.9,1.2-1.8,2.5-2.8,3.7c-0.4-0.2-0.7-0.5-1.1-0.8c0.5-0.6,0.9-1.2,1.4-1.8c-0.5,0.1-0.9,0.2-1.4,0.3c0-0.5-0.1-1-0.2-1.4
		c-0.5,0.6-0.9,1.3-1.4,1.9c-0.2-0.1-0.4-0.2-0.6-0.3c-0.2-0.1-0.4-0.2-0.6-0.3c0,0,0-0.1,0-0.2c0.9-1.2,1.7-2.5,2.6-3.7
		c0.1,0,0.2,0,0.3,0.1c0.2,0.1,0.4,0.2,0.6,0.3c0.1,0.7,0.2,1.3,0.3,2C71.2,36,71.9,35.9,72.5,35.7z M49.8,30.8
		c0.6-0.7,1.5-1,2.4-1.3c2.3-0.6,4.6-0.7,6.9-0.8c2.7,0,5.4,0,8.1,0.3c1,0.1,2.1,0.3,3.1,0.6c0.8,0.3,1.6,0.6,2.1,1.4
		c0.1,0.3,0.2,0.6,0.1,0.9c-0.2,0.8-0.9,1.4-1.6,1.7c-0.6-0.4-1.3-0.8-1.9-1.1c-0.2-0.1-0.5-0.2-0.7-0.3c-1.2-0.5-2.5-0.8-3.9-1
		C63,31,61.5,31,60.1,31c-0.5,0-1.1,0-1.6,0.1c-2.6,0.3-5.2,1.1-7.4,2.5c-0.6-0.4-1.3-0.9-1.5-1.6C49.6,31.6,49.6,31.1,49.8,30.8z" />
<path class="st0" d="M45.8,19.8c-0.3-0.4-0.9-0.3-1.3-0.1c-0.2,0.3-0.5,0.6-0.4,1c0,0.7,0.8,1.1,1.4,0.9
		C46.2,21.3,46.4,20.3,45.8,19.8z" />
<path class="st0" d="M76.5,19.6c-0.3,0.2-0.6,0.5-0.6,0.9c-0.1,0.6,0.5,1.1,1.1,1.1c0.7,0,1.2-0.9,0.8-1.5
		C77.7,19.6,77,19.4,76.5,19.6z" />
<path class="st0" d="M15.5,85.6c0.2,0,0.4,0.1,0.6,0.1c0.3,0,0.6,0,0.9,0c0.6-0.2,0.9-0.8,1.4-1.2c0.3-0.2,0.7-0.1,1,0
		c0.2,0.3,0.1,0.6,0,0.9c0.1,0,0.3-0.1,0.4-0.1c0.5-0.2,0.9-0.6,1.1-1.1c0-0.5,0.1-1-0.2-1.4c0-0.2-0.1-0.4,0-0.6
		c0.3-0.1,0.6-0.1,0.9-0.1c0.2,0.1,0.5,0.2,0.6,0.5c0.2,0.3,0,0.6,0,0.8c0.4-0.1,0.7-0.2,0.9-0.6c0.2-0.3,0.2-0.7,0.3-1.1
		c-0.1-0.3-0.1-0.5-0.3-0.8c-0.4-0.6-1.2-0.7-1.8-0.6c-0.1-0.2-0.3-0.4-0.5-0.6c-0.1,0-0.2-0.1-0.2-0.1c-0.3-0.1-0.5-0.1-0.8-0.2
		c-0.4,0-0.8,0-1.2,0.1c-0.5,0.2-0.8,0.7-1.2,1c-0.5,0.4-1.1,0.3-1.7,0.1c-1.1-0.5-1.8-1.6-2.3-2.7c-0.5-1.4-0.7-2.8-0.7-4.3
		c0.1-1,0.7-1.8,1.5-2.2c1.2-0.7,2.6-1,3.8-1.7c2.4-1.3,4.5-3.2,5.9-5.6c0.6-1.1,0.9-2.2,1.1-3.4c0.1-0.4,0.1-0.9,0.1-1.3
		c0.1-0.7,0.1-1.4,0-2.1c0-0.4,0-0.8,0-1.1c0.7,0.4,1.4,1,1.9,1.7c0.7,1,0.9,2.1,0.9,3.3c0.1,1.1-0.3,2.2-1.2,2.8
		c-0.4,0.3-1,0.5-1.5,0.7c0,0.2,0,0.5,0,0.7c0.2,0.3,0.5,0.4,0.8,0.6c0.3,0.2,0.5,0.7,0.5,1c0,0.2,0.1,0.5,0.1,0.7
		c0,0.2,0.1,0.3,0.1,0.5c0.5,1.4,1.4,2.6,2.5,3.4c0.1-0.9,0-1.8,0-2.7c0.2,0.2,0.5,0.3,0.6,0.6c0.6,1,0.5,2.3,1.2,3.3
		c0.4,0.6,1.1,0.9,1.8,0.9c0.2,0,0.3,0,0.5,0c0,0-0.1-0.1-0.2-0.1c-0.3-0.3-0.5-0.9-0.2-1.3c0.2-0.3,0.6-0.2,0.8,0
		c0.6,0.5,1,1.1,1.4,1.7c0.1,0.2,0.4,0.3,0.6,0.3c0.7,0.1,1.4,0,2.1,0c0.4-0.1,0.6-0.6,1-0.5c0.2,0,0.4,0,0.5,0.1
		c0.4,0.3,0.2,0.8,0.2,1.2c-0.1,0.2-0.2,0.4-0.2,0.6c0.6-0.2,1.2-0.5,1.5-1c0.2-0.4,0.3-0.9,0.2-1.3C41,73.1,41,72.9,41,72.7
		c0.3-0.1,0.7-0.3,1.1-0.2c0.6,0.2,0.9,0.8,1.1,1.3c0.2-0.3,0.4-0.6,0.6-0.9c0-0.2,0-0.4,0-0.7c0-0.1-0.1-0.2-0.1-0.4
		c-0.3-0.6-0.8-1.1-1.5-1.3c0-0.5-0.4-0.9-0.9-1.1c-0.7,0-1.5-0.1-2.2,0c-0.4,0.2-0.7,0.5-1,0.8c-0.5,0.3-1,0.1-1.5,0
		c-1.1-0.4-2-1-2.9-1.7c-1.2-1-2.4-2.1-3-3.6c-0.1-0.3-0.1-0.6,0-0.9c0.3-0.6,0.8-1,1.3-1.4c0.8-0.7,1.7-1.3,2.4-2.1
		c0.4-0.6,0.7-1.2,0.7-2c0-1.4-0.7-2.8-1.8-3.7c-1.5-1.3-3.2-2.3-4.8-3.5c-0.1,0-0.2-0.2-0.1-0.3c0.6-0.5,1.4-0.8,2.2-0.9
		c1.3-0.2,2.6-0.1,3.8,0.4c0.2-0.6,0.6-1,0.9-1.5c0-0.1,0.1-0.3,0.1-0.4c0-0.1,0.1-0.3,0.1-0.4c0.5,0.9,0,2,0.2,2.9
		c0.1,0.1,0.1,0.4,0.3,0.4c0.6-0.5,1.4-0.8,1.7-1.6c0.1-0.2,0-0.6,0.2-0.7c-0.1,0.2,0,0.5-0.1,0.8c-0.1,0.7-0.2,1.4-0.1,2.1
		c0,0.3,0.2,0.5,0.4,0.8c0.1-0.3,0.2-0.7,0.4-0.9c0.3-0.3,0.8-0.4,1.2-0.1c0.5,0.5,0.2,1.4-0.3,1.7c-0.5,0.3-0.9,0.6-1.2,1.1
		c0,0.3-0.1,0.7,0.1,1c0.2,0.4,0.7,0.6,0.8,1c-0.1,0.4-0.5,0.8-1,0.7c-0.2,0-0.5-0.1-0.7-0.2c0.2,0.4,0.5,0.8,1,1
		c0.4,0.2,0.8,0.2,1.2,0.1c0.7-0.2,1.2-0.8,1.5-1.4c0.3,0.8,0.2,2-0.7,2.4c0.1,0,0.3,0.1,0.4,0.1c0.2,0,0.4,0,0.6,0
		c0.5-0.1,1-0.4,1.2-0.8C43,58.3,43,57.6,43,57c0.4,0.1,1,0.3,1.1,0.8c0.2,0.5,0,1-0.2,1.5c0.7-0.1,1.5-0.5,1.7-1.2
		c0.2-0.6-0.2-1.2-0.4-1.7c-0.2-0.5,0-1.1-0.2-1.6c-0.3-0.6-0.8-1.2-1.1-1.9c0-0.2,0-0.5-0.1-0.7c-0.1-0.3-0.1-0.6-0.1-0.9
		c-0.2-0.9-0.6-1.7-1.2-2.4c-1.3-1.5-2.7-3-4-4.5c-0.8-1-1.8-1.9-2.6-2.9c0.6,0.1,1.1,0.5,1.5,0.9c0.9,0.9,1.8,1.7,2.6,2.6
		c0.2-0.4,0.4-0.9,0.6-1.3c0.7-1.5,1.5-3,2.5-4.4C44,38,45,36.9,46,35.8c-0.9,0.2-1.8,0.6-2.7,1.1c0-1.1-0.3-2.4-1.2-3.2
		c0-0.2,0-0.4,0-0.7c0.1-0.3,0.1-0.5,0-0.8c0-0.5-0.1-0.9-0.3-1.4c-0.7-1.6-2.1-2.7-3.5-3.7c1.1,0.3,2,1.1,3.1,1.3
		c0.5,0.2,1.1-0.1,1.5-0.4c0,0,0-0.1,0-0.1c-0.7-0.1-1-0.7-1.4-1.2c-1.2-1.8-2.8-3.2-4.6-4.2l0-0.1c-0.1,0-0.3-0.1-0.4-0.1
		c0.2,0,0.3,0,0.5,0c1.3,0.4,2.1,1.6,3.5,1.8c0.6,0.1,1.2-0.2,1.7-0.5c-0.1,0-0.3-0.1-0.4-0.1c-0.4-0.2-0.9-0.5-1.2-0.9
		c-0.7-0.8-1.4-1.7-2.2-2.5c-0.7-0.8-1.7-1.3-2.7-1.7c0.8,0.1,1.6,0.4,2.4,0.1c0.5-0.1,0.9-0.5,1.3-0.9c-0.4,0-0.9,0-1.2-0.1
		c-0.8-0.3-1.4-0.8-2.3-0.9c0.1-0.6,0.3-1.1,0.3-1.7c0-0.7-0.2-1.5-0.5-2.1c-1,0-1.9,0.4-2.7,0.9c-0.2-0.9-1.3-0.9-2-0.8
		c0.1,0.3,0.1,0.6,0.1,0.8c-0.1,0.2-0.2,0.2-0.4,0.2c-1.5,0.4-3,0.8-4.5,1.4c-0.9,0.3-1.7,0.8-2.5,1.2c-0.6,0.3-1.1,0.7-1.7,1
		c-0.1,0.1-0.3,0.2-0.4,0.2c-0.3-0.1-0.4-0.4-0.6-0.6c-0.6,0.4-1.2,1.1-0.9,1.9c-1,0.1-2.1,0.4-2.9,1.1c0.1,1.3,1.2,2.3,2.3,2.9
		c-0.5,0.5-0.9,1.1-1.1,1.8c-0.2,0.5-0.1,1.1-0.1,1.6c-0.1,0.6,0,1.3-0.2,1.9c-0.2,0.5-0.5,0.9-0.8,1.3c0.1,0,0.4,0,0.5,0
		c0.4-0.1,0.7-0.2,1-0.5c0.7-0.6,1-1.6,1.3-2.4c0.2-0.6,0.4-1.3,1-1.6c0,0.3,0,0.6-0.1,0.9c-0.1,0.2-0.1,0.4-0.1,0.5
		c-0.1,0.2-0.1,0.5-0.2,0.7c-0.3,0.8-0.7,1.5-1,2.3c0,0.2-0.1,0.4-0.1,0.5c-0.1,0.7-0.2,1.4-0.1,2.2c0.1,0.3,0.1,0.5,0.1,0.8
		c0.2,1,0.6,2.2-0.1,3.1c0.7-0.1,1.2-0.8,1.5-1.4c0.8-1.8,0.7-3.8,1.5-5.6c0.1-0.2,0.2-0.6,0.4-0.5c0.3,1,0,2-0.3,2.9
		c-0.1,0.5-0.2,1-0.3,1.4c-0.1,1.3,0,2.6-0.2,3.9c-0.1,0.5-0.3,1-0.6,1.4c0.6,0,1.2-0.4,1.6-0.9c1-1.1,1.4-2.6,2.2-3.7
		c0-0.1,0.1-0.2,0.1-0.3c0,0.1,0,0.2,0,0.3c-0.1,0.1-0.1,0.3-0.2,0.4c-0.5,1.4-0.9,2.8-1.4,4.2c0,0.1-0.1,0.2-0.1,0.4
		c0,0.1-0.1,0.2-0.1,0.3c-0.3,1-0.7,2-1,3c-0.1,0.1-0.1,0.3-0.2,0.4c-0.1,0.3-0.2,0.6-0.3,0.9c-0.6,1.5-1.2,3.1-2.2,4.5
		c-2,2.8-3.7,5.8-5.6,8.6c-1,1.4-2.1,3-3.8,3.7c-0.7,0.3-1.5,0.3-2.2,0.1c-0.8-0.2-1.5-0.8-1.8-1.6c-0.1-0.1-0.1-0.3-0.2-0.4
		c-0.1-0.7-0.1-1.4,0-2.2c0.2-0.8,0.5-1.7,1-2.4c1.1-1.9,2.7-3.4,4.3-5c1.6-1.6,3.2-3.2,4.4-5c0.7-1.1,1.2-2.3,1.4-3.5
		c0.1-0.9,0-1.9-0.4-2.7c-0.6-1.4-2.2-2.3-3.7-2.3c-1.3,0-2.4,0.6-3.4,1.4c-0.5-0.1-1-0.3-1.5-0.3c-0.7,0-1.4,0.3-1.8,0.9
		c-0.8,0.9-1.2,2.1-1.6,3.1C5,40,4.9,40.2,4.9,40.3c-0.4,1-1,2.2-2.2,2.5c-0.2,0-0.3,0-0.5,0.1c0.7,0.3,1.5,0.2,2.1-0.1
		c1.2-0.5,2.2-1.5,3-2.5c-0.1,0.6-0.3,1.1-0.6,1.6c-0.7,1-1.9,1.6-2.9,2.2c-1.2,0.7-2.5,1.5-2.9,2.8c-0.3,0.6-0.3,1.4-0.3,2.1
		c0.2-0.2,0.3-0.4,0.3-0.6l-0.1,0c0.2-0.4,0.5-0.8,0.9-1.1c1.1-1,2.5-1.5,3.8-2.1c1.1-0.5,2.2-0.9,3.2-1.5c1.2-0.7,2.3-1.5,2.9-2.7
		c0.5-0.9,0.6-2,0.4-3c-0.2-0.4-0.5-0.8-0.8-1.1c0.2-0.1,0.5-0.3,0.8-0.4c0.8-0.3,1.7-0.4,2.4,0c0.7,0.3,1.2,1.1,1.3,1.9
		c0.2,1-0.1,2.1-0.5,3.1c-1.2,2.3-3.1,4-4.8,5.9c-2,2.1-4.2,4.3-5.2,7.1c-0.4,1-0.5,2.2-0.4,3.3C4.9,58,5,58.3,5.1,58.6
		c0.2,0.4,0.4,0.8,0.6,1.2c-0.1,0-0.2,0.1-0.3,0.1c-0.2,0-0.5,0-0.7,0c-0.4-0.2-0.8-0.4-1.2-0.7c0,1,0.7,1.8,1.6,2.1
		c0.8,0.4,1.8,0.4,2.6,0c0.4,0.1,0.8,0.2,1.1,0.2c-0.5,1.2-1.9,1.7-3.1,1.7c0.4,0.3,0.8,0.5,1.2,0.6c0.2,0,0.4,0.1,0.7,0.1
		c0.3,0,0.7,0,1,0c1.1-0.2,2.2-0.6,3-1.3c0.8-0.6,1.4-1.5,1.4-2.6c2.1-1.7,3.3-4.3,4.9-6.5c0,0.2,0,0.5-0.1,0.7c0,0.1,0,0.3-0.1,0.5
		c-0.9,1.6-1.8,3.3-2.5,5.1c-0.1,0.1-0.1,0.3-0.2,0.4c0,0.1-0.1,0.2-0.1,0.3c0,0.1-0.1,0.2-0.1,0.3c-0.3,1-0.5,2-0.6,3
		c-0.1,0.9-0.3,1.8-0.6,2.7c-0.4,1.1-1,2.2-2,2.8c-0.7,0.5-1.7,0.7-2.4,0.2c-0.3-0.1-0.6-0.1-0.8,0c-0.2,0.1-0.3,0.3-0.3,0.5
		c-0.1,0.6,0.4,1.1,0.2,1.7c-0.2,0.4-0.5,0.7-0.7,1.1c-0.5,0.7-0.9,1.6-1,2.4c-0.1,0.4-0.1,0.8,0,1.2c0.1,1,0.6,2,0.5,3.1
		c0,0,0.1,0,0.1,0c1-0.7,1.5-1.8,1.9-2.9c0,0.2,0,0.4,0.1,0.6c0.1,0.4,0,0.8,0,1.1c-0.1,1-0.8,2-0.7,3c0,0.6,0.3,1.2,0.5,1.7
		c0,0,0.1,0,0.2,0c0.1-0.6,0.6-1,1.2-1.1c0.4-0.1,0.9,0.2,1.1,0.6c0,0.3-0.3,0.5-0.5,0.7c-0.2,0.2-0.3,0.5-0.4,0.8
		c0,0.4,0,0.8,0,1.1c0.3,0.7,1,1,1.7,0.9c-0.1-0.1-0.2-0.2-0.3-0.3c0-0.1,0-0.2,0-0.3c0.2-0.1,0.3-0.3,0.5-0.4
		c0.1,0,0.2-0.1,0.4-0.1C13.8,85.2,14.7,85.3,15.5,85.6z M32.6,16.4c0,0,0.1-0.1,0.2-0.1c-0.1,0.2-0.2,0.4-0.3,0.7
		c0,0.1-0.1,0.3-0.1,0.4c0,0.2-0.1,0.4-0.1,0.7c0,0.9-1.1,1.5-1.9,1.3c-0.6-0.3-1.2-0.6-1.5-1.3C30.1,17.6,31.4,17,32.6,16.4z
		 M26.6,22.4c0.2-0.1,0.3-0.1,0.5-0.2c1-0.4,2.1-0.8,3.1-1.2c0.3-0.1,0.7-0.2,1-0.1c0.3,0.2,0.6,0.5,0.9,0.8c0,0.1,0,0.2,0,0.4
		c-0.5,0.1-0.9-0.4-1.4-0.2c-0.2,0.1-0.4,0.4-0.3,0.6c0.2,0.3,0.6,0.3,0.9,0.5c-0.5,0.3-1.3,0.6-1.4,1.2c0,0.6,0.4,1.1,0.9,1.3
		c0.2,0,0.5,0,0.8,0c0.5,0.3,0.8,0.9,1,1.5c0.3,0.6,0.3,1.4-0.2,1.9c-0.3,0.4-0.8,0.6-1.2,0.7c-1,0.1-1.9-0.7-2.1-1.6
		c-0.1-0.5-0.3-0.9-0.3-1.4c0.2-0.4,0.7-0.6,0.7-1.1c0.1-0.5-0.1-1.1-0.6-1.3c-0.5-0.1-1.1,0.1-1.6,0.2c0.1-0.3,0.3-0.7,0.2-1.1
		c-0.1-0.2-0.4-0.2-0.6-0.1c-0.5,0.2-0.5,0.8-0.8,1c-0.4-0.2-0.2-0.7-0.2-1.1C25.7,22.8,26.1,22.6,26.6,22.4z M23.6,21.8
		c-0.4-0.3-0.7-0.6-1.1-0.8c-0.3-0.1-0.5-0.2-0.8-0.3c0.9-0.3,1.8-0.5,2.7-0.9c0.3-0.1,0.6-0.2,0.9-0.3c0.2-0.1,0.3-0.1,0.5-0.2
		c0.1,0.7,0,1.5-0.4,2.1C25.1,21.8,24.2,22.1,23.6,21.8z" />
<path class="st0" d="M87.2,35.5c0.4,0.1,0.8,0.2,1.3,0.1c0.7-0.2,1.4-0.7,1.8-1.4c0.3-0.6,0.3-1.3,0-1.9c-0.3-0.5-1-0.8-1.5-0.8
		c-1.3,0-2.6,1.3-2.4,2.6C86.3,34.8,86.7,35.3,87.2,35.5z M88.5,32.5c0.3,0,0.7-0.1,0.9,0.2c0.3,0.2,0.4,0.7,0.2,1
		c-0.3,0.8-1.1,1.3-2,1.1c-0.3-0.1-0.4-0.3-0.5-0.5C87,33.4,87.7,32.7,88.5,32.5z" />
<path class="st0" d="M55.1,34.2c-0.5,0.4-0.4,1.4,0.2,1.7c0.6,0.3,1.4,0,1.7-0.6c0-0.4,0-0.8-0.2-1.1
		C56.3,33.8,55.6,33.9,55.1,34.2z" />
<path class="st0" d="M71.3,44.8c0.1-0.2,0.3-0.4,0.3-0.7c-0.3,0-0.5,0-0.8,0.2c-1.5-1.9-3.4-3.6-5.7-4.5c-0.4-0.1-0.8-0.3-1.1-0.4
		c-0.1-0.2-0.2-0.5-0.4-0.5c-0.2-0.1-0.4,0.1-0.5,0.3c-0.2-0.1-0.4-0.2-0.7-0.3c0,0.2,0.1,0.5,0.1,0.7c-0.1,0.1-0.4,0.2-0.3,0.4
		c0,0.3,0.2,0.4,0.4,0.6c0,1.7,0,3.5,0,5.2c-0.3,0-0.5,0.1-0.7,0.3c0.2,0.1,0.5,0.2,0.7,0.3c0,1.9,0,3.7,0,5.6
		c-0.2,0.1-0.5,0.3-0.4,0.6c0,0.3,0.3,0.3,0.5,0.4c0,0-0.1,0.1-0.1,0.1c-0.1,0.1-0.1,0.3-0.2,0.4c0.1,0,0.1,0.1,0.2,0.1
		c0.2,0,0.4-0.1,0.5-0.1c0.1,0.1,0.2,0.3,0.2,0.4c0.2,0,0.3-0.1,0.5-0.1c0.1-0.1,0.1-0.2,0.2-0.3c1.3,0,2.5,0,3.8,0
		c0,0.3,0.1,0.5,0.3,0.7c0.1-0.1,0.2-0.3,0.3-0.4c0-0.1,0-0.2,0-0.2c1.4,0,2.8,0,4.2,0c0.2,0.2,0.3,0.4,0.6,0.5
		c0.2-0.1,0.4-0.3,0.4-0.5c0.2,0.1,0.4,0.1,0.6,0.2c0-0.2-0.1-0.4-0.2-0.7c0.1-0.1,0.3-0.2,0.4-0.3c0-0.3-0.2-0.6-0.5-0.7
		c-0.1-0.2-0.1-0.5-0.1-0.7c-0.4-2.1-1.2-4.2-2.4-6C71.4,45.1,71.3,45,71.3,44.8z M72.7,48.4c0.6,1.5,0.9,3,1.1,4.6
		c-3.6,0-7.2,0-10.7,0c0-4.5,0-8.9,0-13.4c0.2,0,0.5,0.1,0.6,0.1c-0.1,0.1-0.3,0.1-0.4,0.2c0,4.3,0,8.6,0,12.9c3.5,0,6.9,0,10.4,0
		c-0.1-1.3-0.4-2.7-0.9-3.9c-0.1-0.1-0.1-0.3-0.2-0.4c-1.2-3.1-3.4-6-6.4-7.6c-0.8-0.4-1.7-0.8-2.6-1c0.1-0.1,0.2-0.1,0.2-0.2
		c1.9,0.6,3.6,1.6,5,2.9c1.5,1.5,2.8,3.2,3.6,5.2C72.5,48,72.6,48.2,72.7,48.4z M64,46.3c0.2-0.1,0.4-0.2,0.5-0.3
		c-0.2-0.1-0.4-0.3-0.6-0.3c0-0.2,0.1-0.4,0-0.6c-0.1-0.1-0.3-0.2-0.4-0.2c0-1.4,0-2.8,0-4.2c0.1,0,0.3,0.1,0.4,0.2
		c0-0.2,0-0.4,0-0.6c0.4,0.2,0.9,0.3,1.3,0.5c0.1,0.1,0.3,0.1,0.4,0.2c1.5,0.8,2.8,1.9,3.9,3.2c0,0.2,0,0.3,0,0.5
		c0.1,0.1,0.3,0.1,0.4,0.2c0,0-0.1,0-0.1,0c-0.1,0.2-0.1,0.4-0.2,0.5c0.2,0,0.4,0,0.6-0.1c0,0.2,0.1,0.5,0.4,0.5
		c0.3,0.1,0.3,0.4,0.5,0.6c0.5,0.9,0.9,1.8,1.2,2.7c0.1,0.3,0.2,0.6,0.3,0.9c0.1,0.6,0.2,1.1,0.4,1.7c-0.2,0-0.3,0-0.5-0.1
		c0,0.1,0,0.3,0.1,0.4c0,0,0.1,0.1,0.1,0.1c-1.2,0-2.4,0-3.6,0c0-0.1-0.1-0.2-0.1-0.3c-0.1,0-0.2-0.1-0.2-0.1
		c-0.1,0-0.3,0.1-0.4,0.1c-0.1-0.2-0.1-0.5-0.4-0.5c-0.1,0.2-0.2,0.3-0.3,0.5c-0.1,0-0.2-0.1-0.4-0.1c-0.2,0.1-0.4,0.2-0.4,0.5
		c-1,0-2,0-3.1,0c0,0,0.1-0.1,0.1-0.1c0-0.1,0-0.3,0-0.4c-0.2,0-0.4,0.1-0.6,0.2c0-1.6,0-3.3,0-4.9c0.1,0,0.3-0.1,0.4-0.2
		C64,46.7,64,46.5,64,46.3z" />
<path class="st0" d="M60,41.9c-0.9-0.5-2-0.1-2.9-0.6c0.1-0.1,0.1-0.3,0.2-0.4c0.3,0,0.5-0.1,0.7-0.1c0.7-0.2,1.1-0.8,1.7-1.2
		c0.1,0,0.2,0,0.3-0.1c0,0,0-0.1,0.1-0.2c-0.3,0-0.5,0.1-0.8,0.1c-0.3,0.1-0.6,0.4-0.8,0.6c0-0.1,0-0.3,0-0.4
		c-0.5,0.3-1.1,0.5-1.4,1c-0.3,0.3-0.4,0.8,0,1c0.9,0.4,1.9,0.1,2.8,0.5c0,0.2,0.1,0.4-0.1,0.5c-0.6,0.3-1.3,0.3-1.9,0.1
		c-0.5-0.2-1.1-0.1-1.7-0.1c0.2-0.3,0.2-0.6,0.4-0.9c-0.3-0.4-0.7-1-1.3-0.7c-0.1,0-0.2,0-0.3,0c-0.1,0.2-0.2,0.4-0.3,0.6
		c-0.1,0.4-0.2,0.8-0.3,1.3c-0.1-0.1-0.2-0.2-0.4-0.3c0-0.4,0.3-0.8,0-1.1c0,0.1-0.1,0.2-0.1,0.3c-0.2,0.1-0.3-0.2-0.5-0.2
		c-0.1,0.2-0.1,0.3,0,0.5c-0.1,0.1-0.2,0.3-0.3,0.5c0.1,0,0.3,0,0.4,0c0,0.2,0.1,0.3,0.2,0.5c-0.1,0-0.2,0-0.2,0
		c-0.1,0-0.2-0.1-0.2-0.2c0,0.1,0,0.2,0.1,0.4c0.3,0,0.6,0.1,0.9,0.3c0,0.1,0,0.2,0,0.3c-0.4,0.1-0.7,0.1-1.1,0.2
		c-0.2,0.1-0.6,0.4-0.7,0c-0.1-0.2-0.3-0.3-0.5-0.4c0,0.1,0,0.3,0,0.4c-0.2,0-0.4,0.1-0.5,0.3c0.2,0,0.3,0.2,0.5,0.2
		c0,0.2,0.1,0.4,0.2,0.6c0.1-0.2,0.2-0.3,0.3-0.4c0.2,0.3,0.5,0,0.7,0l-0.1,0.3c0.2-0.2,0.4-0.2,0.6-0.2c0.1,0.1,0.2,0.2,0.3,0.4
		c0-0.1,0-0.2,0-0.3c0.2,0,0.4,0,0.6,0c0.1-0.1,0.2-0.2,0.3-0.3c0.2,0,0.3,0,0.5,0.1c0.2-0.1,0.5-0.3,0.7-0.4c0-0.1,0-0.3,0-0.4
		c0.3,0,0.6,0,0.9,0c0,0.3,0.1,0.5,0.4,0.5c-0.1,0.1-0.2,0.1-0.3,0.2c-0.1-0.1-0.2-0.3-0.3-0.4c-0.2,0-0.4,0.1-0.6,0.3
		c0.1,0,0.2,0,0.3,0c0,0.2,0,0.4,0.1,0.6c0.2,0,0.3,0.1,0.4,0.2L57,45c0-0.4,0.3-0.2,0.5-0.1c0.1-0.1,0.1-0.2,0.2-0.3
		c0.2,0,0.5,0.1,0.7-0.2c-0.1-0.2-0.3-0.4-0.2-0.7c0,0,0.1,0.1,0.1,0.1c0.2,0,0.3,0,0.5,0c0.1-0.3,0.4-0.2,0.6-0.2
		c0,0.2,0,0.3,0,0.5c-0.1,0-0.3,0-0.4,0c-0.1,0.1-0.2,0.1-0.3,0.2c0.2,0.1,0.4,0.2,0.4,0.4c0.1,0.1,0.2,0.2,0.2,0.3
		c0-0.1,0.1-0.2,0.3-0.3c0.1,0.1,0.2,0.2,0.4,0.3c0-0.3,0-0.6,0.1-0.9c0.1-0.2,0-0.3-0.1-0.4c0-0.1,0.1-0.2,0.1-0.2
		c-0.4-0.2-0.9-0.2-1.4-0.4c0.5,0,1-0.1,1.4-0.4C60.4,42.5,60.3,42,60,41.9z M55.4,41.4c0.1-0.1,0.4,0.1,0.2,0.2
		C55.5,41.7,55.3,41.5,55.4,41.4z M55.6,42.4c-0.1,0-0.2,0-0.3,0c0-0.1,0.1-0.2,0.2-0.3c0-0.1,0-0.3,0-0.3c0.1,0.1,0.3,0.1,0.4,0.2
		c-0.1,0-0.3,0-0.3,0C55.6,42.1,55.6,42.3,55.6,42.4z M55.9,41.7c0.2,0,0.2,0,0.2,0.2C55.9,41.9,55.9,41.8,55.9,41.7z" />
<path class="st0" d="M74.2,40.5c-0.2,0.1-0.4,0.1-0.5,0.2c0.1,0.1,0.2,0.2,0.3,0.4C74.1,40.8,74.1,40.7,74.2,40.5z" />
<path class="st0" d="M63.9,47.9c0,0.1,0,0.2-0.1,0.3c0.2,0,0.4,0,0.6,0.1c0.1,0.1,0.3,0.3,0.4,0.4c0.1,0,0.2,0,0.2,0
		c0,0-0.1-0.1-0.1-0.2c0-0.1,0-0.2,0.1-0.4c0.4,0.2,0.5-0.3,0.8-0.3c0.3,0,0.4-0.5,0.8-0.4c0.2,0.1,0.4-0.1,0.5-0.3
		c0.1,0.5,0.5,0.8,0.9,1c0.2,0.1,0.4,0.2,0.6,0.3c-0.4,0-0.8-0.1-1.2,0c-0.3,0.1-0.5,0.3-0.7,0.6c-0.1,0.4,0.2,0.9,0.5,1.2
		c-0.3,0-0.6,0-0.9,0c-0.1-0.1-0.2-0.2-0.4-0.4c-0.2,0.1-0.4,0.1-0.5,0.2c0,0.1,0,0.3,0.2,0.3c-0.1,0.2,0,0.5,0.1,0.7
		c0.1-0.1,0.2-0.2,0.2-0.2c0,0.1,0.1,0.2,0.1,0.3c0.1,0,0.2,0,0.3,0c0-0.1,0-0.2,0-0.3c0.6,0.2,1.2,0,1.8-0.1c0.2-0.3-0.2-0.7-0.3-1
		c0.1-0.4,0.5-0.6,0.9-0.6c0.3,0.6,0.6,1.1,1.3,1.4c0.3,0.1,0.6-0.1,0.9-0.3c0,0.2,0.1,0.6-0.1,0.7c-0.3-0.2-0.6,0-0.9,0.2
		c0.2,0.1,0.4,0.2,0.5,0.3c-0.1,0.2,0.1,0.4,0.2,0.5c0.1-0.1,0.2-0.2,0.3-0.2c0.2,0.1,0.4,0.2,0.6,0.3c0-0.2,0-0.4,0-0.5
		c-0.1-0.1-0.1-0.2-0.1-0.2c0.2-0.2,0.4-0.4,0.6-0.6c-0.1,0-0.2-0.1-0.3-0.1c0.1-0.1,0.3-0.2,0.4-0.4c-0.1,0-0.3,0-0.4,0
		c0.5-0.2-0.2-0.8-0.5-0.4c-0.2,0-0.4,0-0.7,0c-0.3-0.2-0.6-0.4-0.7-0.8c0.3,0.2,0.7,0.5,1.1,0.4c0.2,0,0.4-0.2,0.5-0.4
		c0-0.2,0-0.4,0-0.5c-0.4-0.7-1.6-0.9-1.6-1.9c0-0.1-0.1-0.2-0.1-0.3c-0.2-0.3-0.3-0.7-0.5-1.1c-0.2,0.5-0.3,1.1,0,1.6
		c0.4,0.8,1.4,1.1,1.9,1.8c0,0.1,0,0.2,0,0.3c-0.2,0-0.4,0.1-0.5,0c-0.5-0.2-0.9-0.7-1.2-1.1c-0.3-0.4-0.7-0.9-0.9-1.4
		c0-0.2,0-0.4,0-0.6c0.1-0.3,0.1-0.5,0.2-0.8c0.1-0.3,0-0.6-0.1-0.9c-0.3-0.4-0.5-0.7-0.5-1.2c-0.1,0-0.2,0-0.3,0
		c-0.2-0.2-0.4-0.3-0.6-0.5c-0.1,0.1-0.2,0.1-0.2,0.2c-0.1,0-0.2,0-0.3,0c-0.2,0.1-0.4,0.2-0.7,0.3c-0.1,0.3,0.2,0.5,0.4,0.7
		c0.1-0.1,0.2-0.2,0.2-0.3c0.1,0,0.2,0.1,0.3,0.1c0,0.1,0,0.2,0,0.2c-0.2,0-0.4,0-0.7,0c0,0.2,0,0.3,0,0.5c0.3,0,0.7,0,1,0
		c0.1,0.6-0.6,0.7-0.8,1.2c-0.1-0.1-0.3-0.2-0.3-0.3c-0.3-0.4-0.6-0.8-1.1-1c-0.2-0.4,0.2-1-0.3-1.4c0,0.2-0.1,0.4-0.1,0.5
		c-0.2-0.1-0.3-0.3-0.5-0.4c0,0.1,0,0.4,0,0.5c0.1,0,0.2,0.1,0.3,0.1c-0.1,0-0.3,0-0.4,0c0,0.1-0.1,0.4-0.1,0.5c0.2,0,0.3,0,0.5-0.1
		c0,0.2,0,0.4,0,0.6c-0.1-0.1-0.2-0.2-0.3-0.3c0,0.1,0,0.3,0,0.4c0.2,0.1,0.3,0.1,0.5,0.1c0,0.2,0.1,0.3,0.2,0.5c0.1,0,0.2,0,0.2,0
		c0.2,0.5,0.5,1,1.1,1.3c-0.4,0.3-0.7,0.9-1.3,1c-0.1-0.1-0.2-0.2-0.2-0.3c-0.2,0-0.4,0-0.6,0c0.1,0.1,0.2,0.2,0.2,0.3
		C64.1,47.7,64,47.8,63.9,47.9z M64.4,47.6C64.7,47.5,64.4,48,64.4,47.6L64.4,47.6z" />
<path class="st0" d="M45.2,43.2c-0.3,0.3-0.3,0.6-0.3,1c0.2,0.5,0.7,0.8,1.2,0.7c0.8-0.1,1.2-1.3,0.6-1.8
		C46.2,42.7,45.5,42.7,45.2,43.2z" />
<path class="st0" d="M58.1,45.6c0.1-0.1,0.1-0.2,0.2-0.3c-0.7,0.2-1.5-0.2-2.2,0.2c-0.3,0-0.7-0.1-1,0.1l0.1,0
		c-0.4,0-0.5,0.5-0.3,0.7c0.2,0.3,0.6,0.3,1,0.3c0.5,0,1.1,0,1.6-0.1c0.7-0.1,1.4-0.1,2.1,0c0,0.1,0,0.2,0,0.3
		c-0.8,0.3-1.6,0.2-2.5,0.1c-1.1-0.2-2.2-0.1-3.3-0.1c0-0.1,0.1-0.2,0.1-0.4c0-0.2,0.1-0.4,0.3-0.5c-0.1-0.1-0.2-0.1-0.3-0.2
		c-0.1-0.3-0.3-0.5-0.5-0.6c-0.3,0-0.6,0-1,0c0,0.1,0,0.2,0,0.4c-0.3,0.2-0.3,0.5-0.4,0.8c0,0.1,0.1,0.2,0.1,0.2c0,0.1,0,0.2,0,0.3
		c-0.4-0.1-0.7-0.4-1-0.7c0-0.2,0-0.4,0.1-0.6c0-0.2,0-0.4-0.1-0.5c-0.1,0-0.2,0-0.2,0c0,0.1,0,0.2,0,0.3c-0.1,0-0.2,0-0.3,0
		c0-0.1-0.1-0.2-0.1-0.2c-0.1,0-0.2,0-0.2,0c0,0.2,0,0.3,0.1,0.5c-0.1,0.2-0.2,0.4-0.2,0.6c0.2,0,0.4,0,0.6-0.1
		c0,0.1-0.1,0.2-0.2,0.2c0.1,0.1,0.2,0.2,0.3,0.2c0,0-0.1,0.1-0.2,0.2c-0.1-0.1-0.2-0.2-0.3-0.2c-0.1,0.4,0.2,0.5,0.6,0.4
		c0.5,0.2,0.8,0.5,1.3,0.7c0,0.1,0.1,0.2,0.1,0.3c-0.2,0-0.3,0-0.5,0c-0.1,0-0.3,0.1-0.4,0.2c-0.1,0-0.2,0.1-0.4,0.1
		c-0.1,0-0.2-0.1-0.2-0.1c0-0.1,0-0.2-0.1-0.3c-0.2-0.1-0.4-0.2-0.6-0.2c0,0.1,0.1,0.3,0.1,0.4c-0.1,0-0.2,0-0.3,0.1
		c-0.1,0.1-0.2,0.2-0.4,0.3c0.1,0,0.2,0,0.3,0c0,0.2,0.2,0.2,0.3,0.2c0,0.2,0,0.6,0.3,0.6c0.1-0.2,0.2-0.3,0.3-0.5
		c0.1,0.4,0.5,0.1,0.7,0.1c0,0.1,0,0.2,0,0.3c0.1-0.1,0.2-0.2,0.2-0.3c0.2,0,0.5,0.1,0.6,0.3c0,0,0.1,0,0.1,0c0-0.3,0.3-0.3,0.5-0.3
		l0,0.2c0.4-0.1,0.7-0.4,1-0.7c0.2,0,0.4,0,0.6,0c0.2-0.1,0.3-0.4,0.6-0.5c0.4-0.1,0.7,0,1.1,0c0,0.1,0,0.3,0,0.4
		c0.1,0.1,0.3,0.1,0.4,0.2c-0.1,0-0.3,0.1-0.4,0.2c-0.1-0.1-0.2-0.4-0.4-0.4c-0.2,0-0.4,0.2-0.6,0.3c0.1,0,0.2,0,0.3,0.1
		c0,0.2,0,0.4,0,0.6c0.3,0,0.5,0.1,0.6,0.3c0-0.1,0.1-0.3,0.1-0.4c0.1,0,0.3,0.1,0.4,0.2c0-0.5,0.5-0.3,0.8-0.3c0-0.2,0-0.5-0.2-0.6
		c0,0,0-0.1-0.1-0.2c0.5,0,1,0.1,1.5-0.1c0.2-0.1,0.4-0.1,0.6-0.1c0,0.2,0,0.3,0,0.5c-0.3-0.1-0.7,0-0.9,0.3c0.1,0,0.2,0.1,0.4,0.1
		c0,0,0.1,0.1,0.2,0.1c0,0-0.1,0.1-0.1,0.1c0.1,0.1,0.2,0.3,0.3,0.4c0-0.1,0.1-0.4,0.3-0.3c0.1,0.1,0.3,0.1,0.4,0.2
		c0-0.1,0-0.3,0.1-0.4c-0.1-0.1-0.1-0.2-0.2-0.3c0.1,0,0.2-0.1,0.2-0.1c0-0.3,0-0.6,0-0.9c-0.4-0.2-0.8-0.2-1.3-0.2
		c0.4,0,0.8-0.1,1.2-0.3c0.1-0.2,0.1-0.3,0.2-0.5c-0.4-0.3-0.9-0.4-1.4-0.4c-0.9,0-1.9,0.2-2.8,0.1c-0.2,0-0.4-0.1-0.7-0.2
		c0-0.1,0-0.2,0.1-0.3c0.3,0,0.7-0.1,1,0c0.8,0.3,1.6,0.2,2.4,0c0.5-0.1,1-0.1,1.5-0.1C59.6,45.3,58.8,45.5,58.1,45.6z M53.1,45.8
		c-0.1,0.2-0.3,0.1-0.3-0.1C52.8,45.6,53.1,45.7,53.1,45.8z M53,46.8c-0.1,0.1-0.2,0.1-0.2,0.2c-0.1-0.3,0.3-0.6,0.1-0.9
		c0.2,0.1,0.3,0.2,0.5,0.2C53.2,46.3,52.9,46.5,53,46.8z M53.3,46.1c0-0.2,0.3-0.2,0.4,0C53.7,46.3,53.4,46.2,53.3,46.1z" />
<path class="st0" d="M79.7,49c-0.1,0.2-0.3,0.4-0.3,0.6c0.3,0,0.5,0.1,0.8,0.3c-0.1-0.3-0.2-0.6-0.4-0.9C79.8,49.1,79.8,49,79.7,49
		z" />
<path class="st0" d="M55.5,50.2c0.4,0,0.8,0.3,1.2,0.3c1.1,0.1,2.2-0.5,3.4-0.3c-0.1-0.1-0.2-0.2-0.3-0.2c-0.2-0.1-0.5-0.2-0.7-0.1
		c-0.2,0-0.5,0.1-0.6-0.1c-0.6,0.1-1.2,0-1.7,0c-0.4,0-0.7,0.2-1,0.2c-0.5,0-1-0.1-1.5,0.1c-0.3,0.1-0.4,0.3-0.4,0.6
		c0.3,0.3,0.7,0.4,1.1,0.4c0.6,0,1.2,0,1.9,0c0.7-0.1,1.3-0.1,2-0.2c0.2,0.1,0.5,0.1,0.7,0.1c0,0.1,0,0.2-0.1,0.2
		c-0.9,0.3-1.8,0.2-2.7,0.1c-1.1-0.1-2.2-0.1-3.3-0.1c-0.3,0-0.6,0-0.8,0.1c-0.1,0-0.1-0.1-0.2-0.1l0.1,0c0.1-0.3,0.2-0.6,0.4-0.9
		c-0.2-0.1-0.3-0.3-0.4-0.5c-0.3-0.4-0.9-0.2-1.3-0.3c0,0.1,0,0.2,0,0.3c-0.1,0.1-0.2,0.2-0.3,0.3c0,0.2,0,0.4-0.1,0.5
		c0,0.1,0,0.3,0,0.4c-0.2,0-0.3,0-0.5,0c-0.2-0.2-0.4-0.4-0.7-0.6c0-0.3,0-0.7,0-1c-0.1-0.1-0.2-0.1-0.3-0.2c0,0.1,0,0.3,0,0.4
		c-0.2-0.1-0.3-0.1-0.4-0.3c-0.1,0-0.2,0-0.2,0c0,0.2,0.1,0.3,0.1,0.5c-0.1,0.2-0.2,0.4-0.2,0.6c0.2,0,0.4-0.1,0.5-0.1
		c-0.1,0.2-0.1,0.4,0.1,0.5c-0.1,0.1-0.1,0.1-0.2,0.2c-0.1-0.1-0.2-0.2-0.3-0.3c0,0.1,0,0.3,0.1,0.4c0.3,0,0.6,0.1,0.9,0.3
		c0.3,0.2,0.5,0.7,1,0.5c0,0.1,0.1,0.3,0.1,0.4c-0.6-0.1-1.1,0.2-1.6,0.2c-0.1-0.1-0.1-0.3-0.2-0.4c-0.2,0-0.3-0.1-0.5-0.1
		c0,0.1,0,0.3,0,0.4c-0.2,0.1-0.4,0.1-0.5,0.2c0,0.1,0,0.2-0.1,0.2c0.1,0,0.2,0,0.2,0c0,0.2,0.1,0.2,0.3,0.2c0,0.2,0.1,0.4,0.2,0.7
		c0.1-0.1,0.3-0.3,0.4-0.5c0.1,0.4,0.5,0.1,0.7,0c0,0.1,0,0.2,0,0.3c0.1-0.1,0.2-0.2,0.2-0.3c0.3,0,0.6,0.1,0.6,0.4
		c0.1-0.1,0.1-0.2,0.2-0.2c0.3,0,0.5-0.1,0.8,0c0.4-0.2,0.9-0.4,1.3-0.7c0.3,0,0.6,0,0.9,0c0.3-0.2,0.5-0.4,0.8-0.5
		c0.4,0,0.7,0,1.1,0c0,0.1,0,0.3,0,0.4c0.2,0.1,0.3,0.1,0.5,0.2c-0.2,0-0.3,0.1-0.5,0.1c-0.1-0.1-0.2-0.3-0.3-0.4
		c-0.3,0-0.4,0.2-0.6,0.3c0.1,0,0.3,0,0.4,0.1c0,0.1-0.1,0.2-0.2,0.3c0,0.1,0.1,0.2,0.1,0.4c0.1,0,0.2,0,0.3,0
		c0.1,0.1,0.2,0.2,0.4,0.3c0-0.1,0-0.3,0.1-0.4c0.2,0.1,0.3,0.1,0.5,0.2c0-0.1,0-0.2,0.1-0.3c0.2,0,0.5,0,0.7,0
		c0-0.3-0.2-0.6-0.3-0.8c0.2,0,0.5,0.1,0.7,0.1c0.5,0,0.9-0.4,1.4-0.3c0,0.2,0,0.4,0,0.6c-0.1,0-0.3-0.1-0.4-0.1
		c-0.2,0.1-0.3,0.2-0.5,0.3c0.2,0.1,0.4,0.2,0.5,0.3c0,0-0.1,0.1-0.1,0.1c0.1,0.1,0.2,0.3,0.3,0.4c0.1-0.1,0.1-0.2,0.2-0.3
		c0.1,0.2,0.3,0.3,0.5,0.3c0-0.2,0-0.5-0.1-0.7c0.4-0.2,0.1-0.7,0.2-1.1c-0.5-0.2-1-0.2-1.4-0.2c0.5-0.1,1.3,0,1.6-0.6
		c-0.3-0.4-0.9-0.5-1.3-0.5c-1.3,0-2.6,0.2-3.9,0.1c-0.2,0-0.5-0.1-0.7-0.3c0.1-0.1,0.2-0.2,0.4-0.3C54.7,50.4,55.1,50.2,55.5,50.2z
		 M51.5,50.3c0-0.1,0-0.2,0-0.2C51.8,49.9,51.8,50.5,51.5,50.3z M51.6,51.4c-0.3-0.1-0.1-0.4,0-0.6c0-0.1,0-0.3,0-0.4
		c0.1,0.1,0.2,0.2,0.4,0.2C51.6,50.7,51.7,51.1,51.6,51.4z M52.3,50.6c-0.1,0.1-0.4,0-0.3-0.2C52.2,50.3,52.4,50.4,52.3,50.6z" />
<path class="st0" d="M80,55.8c0-0.1,0-0.4,0-0.5c-0.1,0-0.3,0-0.4,0c0,0.1,0,0.3,0,0.4C79.7,55.8,79.9,55.8,80,55.8z" />
<path class="st0" d="M62.2,59.3l0.2,0c0.1,0.1,0.1,0.2,0.3,0.2c0,0.3,0.1,0.5,0.4,0.7c0-0.1,0-0.2,0-0.3c0.1-0.1,0.2-0.2,0.2-0.4
		c0,0.4,0.4,0.2,0.7,0.1c0,0.4,0.3,0,0.6,0.1c0.2,0,0.3,0.2,0.4,0.3c0.1-0.2,0.3-0.3,0.5-0.3l0.1,0.2c0.2-0.1,0.4-0.2,0.6-0.5
		c0.2,0,0.4-0.1,0.6-0.2c0.3,0,0.6,0,0.9,0c0.3-0.1,0.6-0.4,0.9-0.5c0.4-0.1,0.8,0,1.1,0c0,0.1,0,0.3,0,0.4c0.1,0.1,0.3,0,0.4,0.2
		c-0.1,0-0.3,0.2-0.4,0c-0.1-0.1-0.2-0.3-0.4-0.3c-0.2,0.1-0.4,0.2-0.5,0.4c0.1,0,0.3,0,0.4,0c0,0.1-0.1,0.2-0.1,0.3
		c0.1,0.1,0.1,0.3,0.2,0.4c0,0,0.1-0.1,0.1-0.2c0.1,0.1,0.2,0.2,0.3,0.4c0.1,0,0.2-0.1,0.2-0.1c0,0-0.1-0.1-0.2-0.2
		c0.2-0.1,0.4,0,0.6,0.1c0-0.1,0.1-0.2,0.1-0.3c0.2,0,0.4,0,0.7,0c0-0.1,0-0.3,0-0.4c-0.1-0.1-0.2-0.3-0.3-0.4
		c0.3,0,0.5,0.1,0.8,0.1c0.5,0,0.9-0.4,1.3-0.3c0,0.2,0,0.4,0,0.5c-0.2,0-0.3,0-0.5,0c-0.2,0.1-0.3,0.2-0.5,0.3c0.1,0,0.2,0,0.3,0
		c0.1,0.1,0.1,0.3,0.2,0.4c0,0.1,0.1,0.2,0.1,0.3c0.1-0.1,0.2-0.2,0.3-0.2c0.2,0.1,0.3,0.2,0.5,0.3c0-0.1,0-0.3,0.1-0.5
		c0-0.1-0.1-0.2-0.1-0.2c0.2-0.1,0.3-0.3,0.3-0.5c-0.2-0.2,0-0.5,0-0.7c-0.2,0.2-0.3,0.1-0.4-0.1c-0.4,0-0.7,0-1.1-0.1
		c0.5-0.1,1.1,0,1.5-0.4c0.1-0.4-0.4-0.6-0.7-0.6c-1.5-0.1-3,0.2-4.5,0c-0.2,0-0.4-0.1-0.5-0.3c0.1,0,0.2-0.1,0.3-0.2
		c0.5,0,1,0,1.5,0c0.1,0.1,0.2,0.1,0.3,0.2c0.6,0.1,1.1,0.1,1.7,0c0.7-0.2,1.4-0.4,2.2-0.4c-0.6-0.2-1.2-0.1-1.8,0.1
		c0.1-0.1,0.3-0.2,0.4-0.3c-0.4,0-0.9,0-1.3,0c-0.2,0-0.5,0-0.8,0c-0.3,0-0.5,0.2-0.8,0.2c-0.6,0-1.3-0.1-1.8,0.2
		c0,0.2-0.2,0.3-0.1,0.5c0.1,0.3,0.4,0.3,0.7,0.4c1.5,0.3,3-0.2,4.5-0.1c0.2,0,0.6,0.1,0.4,0.3c-0.8,0.4-1.8,0.2-2.7,0.1
		c-1.4-0.1-2.9-0.3-4.3,0c0.1-0.2,0.3-0.5,0.3-0.7c0-0.1,0.1-0.2,0.1-0.3c-0.3-0.2-0.3-0.6-0.7-0.7c-0.3-0.2-0.7,0-1-0.1
		c0,0.2,0,0.5-0.3,0.5c-0.2,0-0.1,0.3,0,0.3c-0.1,0.1-0.1,0.2-0.2,0.3c0.1,0.1,0.1,0.3,0.2,0.4c-0.6,0.1-1-0.3-1.3-0.7
		c0-0.3,0.1-0.5,0-0.8c-0.1-0.1-0.2-0.2-0.2-0.4c0,0.2,0,0.3-0.1,0.5c-0.2-0.1-0.4-0.2-0.6-0.4c0,0.2,0,0.4,0.2,0.6
		c-0.1,0-0.2,0-0.2,0c0,0.2,0,0.4-0.1,0.6c0.1,0,0.3-0.1,0.3-0.1c0.1,0.2,0.1,0.4,0.3,0.6c-0.2,0.2-0.3,0-0.5,0
		c0,0.3,0.3,0.5,0.6,0.4c0.1,0.1,0.2,0.1,0.2,0.2c0.3,0.1,0.5,0.4,0.7,0.6c0.3-0.3,0.5,0.1,0.6,0.3c-0.5,0-0.9,0.2-1.3,0.2
		c-0.1-0.3-0.4-0.5-0.7-0.6c0,0.1,0,0.3,0,0.4c-0.2,0-0.3,0.1-0.5,0.1C62.3,59.1,62.2,59.2,62.2,59.3z M66.1,56.9
		c-0.1,0.1-0.2,0.1-0.3,0c0-0.1,0-0.2,0-0.2C65.9,56.6,66.1,56.7,66.1,56.9z M65.3,56.4c0.2-0.1,0.3,0.3,0.1,0.3
		C65.2,56.8,65.1,56.5,65.3,56.4z M65.5,57.1l-0.1,0c0-0.1,0-0.2,0-0.2c0.1,0.1,0.2,0.1,0.3,0.2c0,0,0,0.1,0,0.2L65.5,57.1
		c0,0.2,0,0.4,0,0.5c-0.1,0-0.2,0-0.3,0C65.1,57.4,65.3,57.2,65.5,57.1z" />
<path class="st0" d="M59.7,58.8c0-0.2,0.1-0.4,0-0.6C59.5,58,59.2,58,59,57.9c0-0.6-0.1-1.3-0.8-1.6c-0.8-0.4-1.6,0.1-2.4,0.3
		c-0.1,0-0.2,0.1-0.3,0.1c-0.1,0-0.2,0.1-0.3,0.1c-1.3,0.4-2.7,0.6-4.1,0.1c-0.5-0.1-1-0.5-1.5-0.6c-0.1,0.2-0.1,0.4-0.2,0.5
		c0-0.3-0.3-0.5-0.6-0.6c-0.3,0.1-0.5,0.2-0.6,0.5c0,0.2,0,0.5,0.2,0.6c0.2,0.2,0.5,0.2,0.8,0.1c-0.1,0.2-0.4,0.6,0.1,0.6
		c-0.1,1.1,0.1,2.1,0.4,3.2c0,0.1,0.1,0.2,0.1,0.3c1,2.7,3.4,5,6.2,5.8c0.4,0,0.8-0.1,1.1,0c0.4,0.1,0.6,0.7,0.3,1.1
		c-0.2,0.3-0.5,0.2-0.8,0.2c0-0.1-0.1-0.2-0.1-0.3c0.1-0.3,0.5-0.1,0.7-0.4c0-0.1-0.1-0.2-0.2-0.3c-0.3-0.1-0.8-0.1-1,0.2
		c-0.4,0.4-0.2,1,0.2,1.3c0.3,0.3,0.7,0.2,1,0.2c0.6,0,1-0.5,1.2-1.1c0-0.1,0-0.3,0-0.4c0.2,0,0.3-0.1,0.5-0.1
		c0.1-0.3,0.2-0.6,0.1-0.9c0,0-0.1-0.1-0.2-0.1c0.1-2.6,0.1-5.3,0.2-7.9C59.2,59,59.5,58.9,59.7,58.8z M51,61
		c-0.1-0.3-0.1-0.5-0.1-0.8c0-0.5,0-1,0-1.5c1.9,2.6,3.7,5.3,5.5,7.9C53.9,65.7,51.7,63.7,51,61z M56.8,65c0,0.2,0,0.4-0.1,0.6
		c0,0.1-0.1,0.2-0.1,0.3c-1.6-2.4-3.4-4.8-5-7.2c0.4,0,0.8,0,1.2,0c1.3,1.9,2.7,3.9,4.1,5.8C56.8,64.6,56.8,64.8,56.8,65z M57,63.5
		c-1.2-1.7-2.4-3.4-3.6-5.1c0.1,0,0.3,0,0.4-0.1c0.1,0,0.2-0.1,0.3-0.1c0.1,0,0.3-0.1,0.4-0.1c0.9,1.3,1.8,2.6,2.7,3.9
		C57.2,62.5,57.1,63,57,63.5z M57.2,58.7c0.2,0.1,0.4,0.1,0.6,0.2c-0.1,0.7-0.2,1.5-0.4,2.2c-0.7-1.1-1.5-2.1-2.2-3.2
		c0.7-0.2,1.3-0.6,2-0.8c0.2-0.1,0.5-0.1,0.7,0c0,0.3,0.1,0.5,0,0.8c-0.1,0-0.3,0-0.3,0c-0.2,0.1-0.4,0.2-0.4,0.3
		C57,58.4,57.1,58.5,57.2,58.7z" />
<path class="st0" d="M72.4,75.8c-1.3,0.1-2.5,0-3.8-0.2c-0.2-0.1-0.4-0.1-0.7-0.1c-0.2,0-0.4-0.1-0.6-0.1c-2.7-0.6-5.3-1.5-7.8-2.5
		c-0.4-0.2-0.8-0.3-1.2-0.5c-0.8-0.3-1.6-0.7-2.4-1c0.1-1.3-0.7-2.5-1.9-3c-0.2-0.1-0.4-0.1-0.5-0.2c-0.3,0-0.5,0-0.8,0
		c-0.2,0.1-0.4,0.1-0.6,0.1c-1.7-1.6-3.1-3.5-4-5.6c-0.1-0.2-0.2-0.4-0.3-0.6c-0.5-1.3-0.9-2.6-1.1-4c0,0-0.1,0-0.2,0
		c0,0.1,0,0.2,0,0.3c-0.3,0.6-0.8,1.1-1.4,1.4c-0.1,0-0.2,0.1-0.2,0.1c-0.5,0.2-1.1,0.3-1.6,0.3c0-0.2,0-0.4-0.1-0.6
		c-0.3,0-0.5,0.4-0.8,0.5c-0.7,0.4-1.6,0.2-2.4,0c0.1,0.9,0.4,1.8,0.7,2.6c0.4,1.3,0.9,2.7,1.6,3.9c0,0.1,0.1,0.2,0.1,0.2
		c1.4,2.6,3.2,5,5.4,7c0,0.3,0,0.5,0,0.8c0.1,0.1,0.1,0.3,0.2,0.4c0.4,0.9,1.2,1.6,2.1,1.9c0.7,0.1,1.5-0.1,2.1-0.5
		c0.4,0.1,0.8,0.4,1.2,0.5c1.3,0.6,2.6,1.1,4,1.4c1.9,0.5,3.8,1,5.8,1.1c0.6,0.1,1.3,0.1,1.9,0c1.3-0.2,2.5-0.7,3.7-1.3
		C70.1,77.6,71.4,76.8,72.4,75.8z M42.4,62.1c0.4-0.9,1.4-1.6,2.4-1.5c0.9,0.1,1.7,0.7,2,1.5c0.2,0.7,0.3,1.4-0.1,2.1
		c-0.5,1-1.7,1.4-2.7,1.2C42.7,65,41.9,63.4,42.4,62.1z M46.2,70.5c-0.2-0.3-0.5-0.7-0.7-1c0.4-0.3,0.9-0.6,1.3-0.9
		c-0.1-0.5-0.5-0.8-0.7-1.2c-0.5,0.3-0.9,0.6-1.4,1c-0.2-0.4-0.6-0.7-0.7-1.1c1.2-0.9,2.5-1.8,3.7-2.6c0.2,0.4,0.5,0.7,0.7,1
		c-0.4,0.3-0.9,0.7-1.4,1c0.3,0.4,0.5,0.7,0.8,1.1c0.5-0.3,0.9-0.6,1.4-1c0.3,0.4,0.5,0.7,0.8,1.1C48.7,68.7,47.5,69.7,46.2,70.5z
		 M54,69.8c-1.1-0.2-1.7,0.9-2.3,1.5c0.3,0.3,0.6,0.5,0.8,0.9c0.1,0.2,0,0.5,0,0.7c-0.5,0.6-1.3,0.1-1.9-0.2c-0.4,0.6-1,1.3-0.8,2.1
		c0.3,0.7,1.2,0.8,1.7,1.3c-0.4,0.2-0.9,0.3-1.3,0.1c-0.8-0.3-1.5-1-1.7-1.9c0-1.1,0.5-2.1,1.1-2.9c-0.2-0.3-0.4-0.7-0.5-1
		c0.4,0.1,0.7,0.1,1.1,0.2c0.8-0.8,1.6-1.6,2.8-1.9c1-0.2,1.8,0.5,2.3,1.3c0.1,0.2,0.1,0.4,0.2,0.5C54.9,70.4,54.5,70,54,69.8z
		 M57.6,76.2c-0.8,0.5-2-0.1-2-1.1c-0.1-0.8,0.7-1.5,1.4-1.4c0.5,0,1,0.5,1.2,0.9C58.3,75.2,58.1,75.9,57.6,76.2z M63.1,78.2
		c-0.6,0.1-1.3-0.3-1.4-0.9c-0.2-0.6,0.2-1.4,0.9-1.5c0.6-0.2,1.2,0.2,1.5,0.8c0,0.2,0,0.5,0,0.7C63.9,77.7,63.6,78,63.1,78.2z" />
<path class="st0" d="M62.2,63.4c0,0.1,0.1,0.2,0.2,0.2c0.1,0.2,0.1,0.3,0.2,0.5c0,0,0.1,0.1,0.2,0.2c0-0.2,0.1-0.3,0.2-0.5
		c0.1,0.2,0.4,0.2,0.6,0c0,0,0.1,0.1,0.2,0.2c0.2-0.1,0.4-0.1,0.6-0.1c0.1,0.1,0.2,0.2,0.3,0.3c0.2-0.3,0.5-0.5,0.8-0.2
		c0.2-0.1,0.4-0.3,0.5-0.4c0.3-0.1,0.5-0.3,0.8-0.3c0.2-0.2,0.3-0.4,0.5-0.5c0.3,0,0.6,0,0.9,0.1c0,0.3,0.3,0.5,0.5,0.6
		c-0.1,0-0.3,0-0.4,0.1c-0.2-0.1-0.3-0.3-0.5-0.3c-0.2,0-0.4,0.2-0.5,0.3c0.1,0,0.2,0,0.3,0c0,0.1-0.1,0.3-0.1,0.4
		c0.1,0.3,0.4,0.2,0.5,0.5c0,0,0.1,0,0.2,0c0-0.1,0-0.3,0-0.3c0.2,0,0.3,0.1,0.5,0.1c0-0.1,0.1-0.2,0.1-0.3c0.2,0,0.4,0,0.6,0
		c0-0.1,0.1-0.2,0.1-0.2c-0.1-0.2-0.2-0.4-0.3-0.6c0.2,0.1,0.5,0.1,0.7,0.1c0.5,0,0.9-0.4,1.4-0.2c-0.1,0.1-0.1,0.3-0.2,0.4
		c-0.3,0-0.5,0-0.8,0.1c0,0,0,0.1-0.1,0.2c0.4,0,0.3,0.5,0.4,0.7c0-0.3,0.4-0.3,0.6-0.1c0,0,0.1,0,0.2,0c0-0.2,0.1-0.4,0-0.6
		c0.1-0.1,0.2-0.1,0.2-0.2l0-0.1c0.1-0.1,0.1-0.2,0.2-0.3c0,0-0.1-0.1-0.1-0.2c0.1-0.1,0.1-0.3,0.2-0.4c-0.3-0.1-0.5-0.2-0.8-0.2
		l0.2-0.1c-0.1,0-0.3,0-0.4,0c0,0-0.1-0.1-0.1-0.2c-0.4,0-0.7,0.1-1.1,0c-1.3-0.1-2.6-0.3-3.9-0.1c0.1-0.3,0.3-0.6,0.4-0.9
		c-0.3-0.1-0.3-0.5-0.6-0.6c-0.3-0.2-0.7-0.1-1-0.1c0,0.1,0,0.2,0,0.3c-0.1,0.1-0.2,0.2-0.3,0.3c0,0.2,0,0.4-0.1,0.5
		c0,0.2,0,0.3,0,0.5c-0.3,0-0.6-0.1-0.8-0.2c-0.1-0.3,0-0.6,0-0.8c0-0.2-0.2-0.3-0.3-0.4c0,0.1,0,0.3,0,0.4c0,0-0.1,0-0.2,0
		c-0.1-0.1-0.3-0.2-0.4-0.2c0,0.2,0.1,0.3,0.1,0.5c-0.1,0.1-0.2,0.3-0.2,0.5c0.1,0,0.4,0,0.5,0c0,0.1,0,0.2-0.1,0.3
		c0.1,0.1,0.2,0.1,0.3,0.2c-0.2,0.1-0.4,0-0.5-0.1c0,0.3,0.2,0.5,0.5,0.4c0.2,0.1,0.4,0.3,0.6,0.1c0.2,0.1,0.4,0.2,0.6,0.2
		c0,0.1,0,0.3,0,0.4c-0.4-0.1-0.8,0.1-1.2,0.2c-0.2,0-0.2-0.2-0.3-0.4c-0.1-0.1-0.3-0.1-0.4-0.2c0,0.1-0.1,0.3-0.1,0.4
		c-0.2,0-0.4,0.1-0.5,0.3C62,63.3,62.2,63.4,62.2,63.4z M65.4,60.9c-0.2,0.1-0.3,0-0.2-0.2C65.4,60.6,65.4,60.7,65.4,60.9z
		 M65.3,61.3c0-0.1,0-0.2-0.1-0.3c0.2,0,0.4,0,0.5-0.2c0.1,0,0.2,0.1,0.3,0.1c-0.2,0.2-0.4,0.3-0.7,0.4c0,0.1,0,0.3,0,0.4
		c-0.1,0-0.3,0-0.3,0C65,61.6,65.2,61.5,65.3,61.3z" />
<path class="st0" d="M70.6,60.7c0.2-0.1,0.4-0.1,0.6-0.2c-0.8,0-1.6-0.3-2.4,0c-0.4,0.1-0.8,0-1.2,0.2c-0.3,0.2-0.1,0.7,0.2,0.8
		c1.1,0.3,2.3-0.1,3.4,0c0.2,0,0.5,0,0.5,0.2c-0.1,0.3-0.5,0.2-0.7,0.2c0.4,0.3,1.2,0.1,1-0.5c0,0-0.1-0.1-0.2-0.2
		c-0.4-0.2-0.9-0.1-1.4-0.1c-0.1-0.1-0.1-0.2-0.2-0.2c0.7-0.1,1.5-0.5,2.2-0.4C72,60.4,71.3,60.6,70.6,60.7z M68.3,61.3
		c-0.2,0-0.6-0.1-0.5-0.4c0.4-0.1,0.9-0.1,1.3,0.2c0.4,0,0.9,0.1,1.3-0.1c0,0.1,0,0.2,0,0.4C69.7,61.2,69,61.5,68.3,61.3z" />
<path class="st0" d="M45,64.1c0.2-0.2,0.5-0.3,0.6-0.6c0.3-0.7-0.3-1.6-1.1-1.5c-0.5,0-0.9,0.5-1,1c0,0.2,0.1,0.4,0.1,0.6
		c0.1,0.2,0.3,0.4,0.6,0.6C44.5,64.2,44.8,64.2,45,64.1z" />
<path class="st0" d="M64.3,68.5c0,0.1,0,0.2,0,0.2c0.1-0.1,0.2-0.2,0.2-0.3c0.2,0,0.4,0,0.6,0c0.2-0.3,0.3-0.6,0.4-0.9
		c0.3-0.1,0.6-0.2,0.9-0.3c0,0-0.1,0.1-0.1,0.2c0,0.3,0.1,0.5,0.2,0.8c0,0,0.1,0,0.2,0c-0.2,0-0.3,0.1-0.5,0.1
		c-0.1-0.1-0.2-0.3-0.3-0.4c-0.2,0.1-0.4,0.2-0.5,0.3l0.2,0c0,0.2,0,0.4,0,0.5c0.2,0.1,0.4,0.2,0.6,0.3c0-0.1,0-0.3,0-0.3
		c0.1,0,0.4,0.2,0.5,0c0.1-0.3,0.4-0.1,0.6-0.2c-0.1-0.5-0.2-0.9-0.3-1.4c0.3,0,0.7,0,1-0.1c0.1,0,0.2,0.1,0.3,0.2
		c0,0,0.1,0.1,0.1,0.1c-0.1,0.1-0.3,0.3-0.4,0.1c-0.2-0.1-0.4-0.1-0.6,0c0.1,0,0.2,0.1,0.2,0.2c-0.2,0.1-0.2,0.3-0.3,0.5
		c0.1,0,0.3,0,0.3,0c0.1,0.2,0.1,0.3,0.1,0.5c0.1-0.1,0.2-0.1,0.3-0.2c0,0,0-0.1,0-0.2c0.2,0,0.4-0.1,0.5-0.2c0-0.2,0.2-0.3,0.4-0.4
		c-0.1-0.1-0.1-0.1-0.2-0.2c0.1-0.1,0.2-0.2,0.3-0.3l-0.1-0.1c-0.1-0.1-0.2-0.3-0.4-0.4c0.5,0,1.1,0,1.5-0.3
		c0.1-0.1,0.3-0.2,0.4-0.3c0-0.2,0-0.3,0-0.5c-1.1-0.1-2.2,0.1-3.3,0c-0.1-0.2,0.1-0.4,0.3-0.5c0.4,0.3,1,0.2,1.5,0.2
		c0.8-0.1,1.6-0.5,2.5-0.5c-0.3-0.1-0.7-0.1-1-0.1l0.1-0.1c-0.3,0.2-0.7,0.2-1.1,0.2c0.1,0,0.4-0.1,0.5-0.1c-0.5-0.1-1-0.1-1.5-0.1
		c-0.5-0.1-1,0.2-1.5,0.5C67,65.2,67,65.5,67,65.7c1,0.5,2.2,0,3.3,0.2c0,0.1-0.1,0.2-0.1,0.2c-0.6,0.3-1.4,0.3-2.1,0.2
		c-0.8-0.2-1.7-0.2-2.5,0c0.2-0.3,0.3-0.6,0.4-1c-0.3-0.2-0.3-0.6-0.7-0.7c-0.3-0.1-0.6,0-0.9-0.1c0,0.1,0,0.2,0,0.3
		c-0.3,0.2-0.3,0.5-0.4,0.8c0,0.3,0,0.5,0,0.8c-0.2-0.3-0.5-0.6-0.8-0.9c0-0.3,0.1-0.7-0.1-1c-0.1,0-0.2,0-0.2,0
		c0,0.1,0.1,0.2,0.1,0.3c-0.2,0-0.4-0.1-0.6-0.2c0.1,0.3,0,0.6-0.1,0.9c0.1,0,0.3,0,0.4,0c0,0.2,0,0.3,0.1,0.4l0,0.1
		c-0.1,0-0.3,0-0.5,0.1c0.2,0.2,0.4,0.2,0.6,0.2c0.3,0.1,0.4,0.5,0.6,0.7c0.2,0.2,0.4,0.3,0.6,0.4c0,0,0,0.1,0,0.2
		c-0.4-0.1-0.8,0.2-1.3,0.2c-0.1-0.3-0.3-0.5-0.6-0.5c0,0.1,0,0.2,0,0.3c-0.1,0.1-0.3,0.1-0.4,0.1c0,0.1-0.1,0.2-0.1,0.3l0.2-0.1
		c0.1,0.1,0.2,0.2,0.3,0.3c0.1,0.2,0.2,0.4,0.3,0.6c0.1-0.2,0.1-0.3,0.2-0.4c0.2,0.2,0.6-0.1,0.8,0.2c0.1-0.2,0.3-0.1,0.5-0.2l0,0.1
		L64.3,68.5z M69.3,64.9C69.6,64.7,69.3,65.2,69.3,64.9L69.3,64.9z M64.8,64.9c0,0,0.1,0,0.1,0c0,0.1,0,0.4,0.1,0.5
		c0.1-0.1,0.2-0.1,0.4-0.2c0.1,0,0.1,0.1,0.2,0.1c-0.3,0.1-0.8,0.2-0.6,0.6c-0.2,0.1-0.3,0.1-0.3-0.1C65.1,65.7,64.8,65.2,64.8,64.9
		z" />
<path class="st0" d="M121.6,70.9c-0.7-0.7-1.7-1-2.7-0.9c-1,0.2-1.8,0.8-2.3,1.6c-0.6,1-0.5,2.4,0.2,3.3c0.9,1.3,2.8,1.7,4.1,0.9
		c1.1-0.6,1.7-1.8,1.6-3C122.4,72.1,122.1,71.4,121.6,70.9z M121.1,74.7c-0.3,0.3-0.7,0.5-1.1,0.7c-0.4,0-0.8,0.1-1.3,0
		c-0.8-0.3-1.4-0.9-1.6-1.7c-0.3-1.1,0.4-2.3,1.5-2.7c1.1-0.4,2.4,0.2,2.9,1.2c0,0.1,0.1,0.3,0.2,0.4
		C121.7,73.3,121.6,74.1,121.1,74.7z" />
<path class="st0" d="M104,71.8c-0.1-0.4-0.3-0.8-0.7-1c-0.6-0.7-1.8-0.7-2.5,0c-0.7,0.6-0.9,1.6-0.8,2.5c0.2,0.6,0.4,1.2,0.9,1.5
		c0.6,0.4,1.4,0.5,2,0.1c0.8-0.6,1.2-1.6,1.1-2.6C104.1,72.1,104,72,104,71.8z M102.8,74c-0.3,0.3-0.8,0.5-1.2,0.2
		c-1.1-0.7-1-2.5,0.1-3.1c0.6-0.2,1.2,0.2,1.3,0.8C103.4,72.6,103.3,73.4,102.8,74z" />
<path class="st0" d="M104.2,78.8c0.5,0.5,1.1,0.8,1.8,0.9c0.8,0.1,1.8-0.2,2.3-0.9c0.3-0.4,0.3-1,0.2-1.5c-0.3-1-1.3-1.6-2.2-1.7
		c-0.2,0-0.4,0-0.6,0c-0.2,0.1-0.4,0.1-0.7,0.1c-0.5,0.2-1,0.5-1.2,1C103.5,77.3,103.7,78.2,104.2,78.8z M105.4,76.5
		c0.8-0.2,1.9,0.1,2.3,0.9c0.2,0.5-0.1,1-0.5,1.2c-0.9,0.4-2.2,0.1-2.6-0.9C104.4,77.1,104.9,76.6,105.4,76.5z" />
<path class="st0" d="M107.9,88.4c-0.8,0.1-1.6,0.1-2.4,0c-0.3-0.1-0.5-0.1-0.8-0.1c-0.2,0-0.3-0.1-0.5-0.1
		c-1.3-0.3-2.5-0.8-3.7-1.4c-4.7-2.4-8.8-5.7-13.4-8.3c-0.2-0.1-0.3-0.2-0.5-0.3c-0.8-0.4-1.6-0.8-2.4-1.1C84.1,77.1,84,77,83.8,77
		c-0.1,0-0.2,0-0.3-0.1c-1.5-0.5-3.2-0.6-4.8-0.1c-0.1,0-0.2,0.1-0.3,0.1c-0.2,0.1-0.4,0.2-0.6,0.3c-1.3,0.6-2.3,1.7-2.8,3
		c-0.5,1.2-1.1,2.3-1.8,3.4c-0.3,0.5-0.6,0.9-0.9,1.4c-0.3,0.7-0.4,1.5,0,2.2c0.5,0.9,1.4,1.4,2.3,1.9c0.7,0.4,1.6,0.7,2.3,1.2
		c0.4,0.3,0.7,0.7,0.7,1.2c-1,0.5-2,0.8-3.1,1.1c-0.1,0-0.2,0-0.3,0.1c-0.2,0-0.3,0.1-0.5,0.1c-0.2,0-0.4,0.1-0.5,0.1
		c-2,0.5-4,0.8-6,1c-0.4,0-0.8,0-1.1,0.1c-2.2,0.2-4.4,0.2-6.6,0.2c-0.7,0-1.4,0-2.1-0.1c-0.5-0.1-1.1,0-1.6-0.1
		c-0.4,0-0.8,0-1.3-0.1c-2.1-0.2-4.2-0.6-6.2-1.1c-0.1,0-0.3-0.1-0.4-0.1c-1.2-0.3-2.4-0.7-3.5-1.2c0-0.8,0.7-1.3,1.4-1.6
		c0.1-0.1,0.2-0.1,0.3-0.2c0.9-0.4,1.8-0.9,2.6-1.5c0.7-0.5,1.3-1.2,1.3-2.1c0-1-0.7-1.8-1.2-2.7c-0.7-1.1-1.3-2.3-1.8-3.5
		c-0.8-1.7-2.3-2.9-4.1-3.3c-1.1-0.2-2.3-0.2-3.4,0c-0.2,0-0.3,0.1-0.5,0.1c-2.3,0.6-4.4,1.9-6.5,3.1c-3.9,2.4-7.7,5.3-11.9,7.3
		c-0.9,0.4-1.8,0.7-2.8,1c-0.4,0.1-0.7,0.2-1.1,0.2c-0.9,0.1-1.7,0.1-2.6,0c-0.2-0.1-0.4-0.1-0.5-0.1c-0.1-0.1-0.2-0.1-0.3,0
		c0.9,0.5,1.8,1,2.7,1.7c1.5,1.1,2.8,2.4,4.6,3c0.9,0.2,1.8,0.1,2.6,0c0.3-0.1,0.7-0.2,1-0.3c0.1,0,0.2-0.1,0.3-0.1
		c0.9-0.3,1.7-0.7,2.6-1.1c4-2.2,7.4-5.2,11.5-7.1c1.7-0.8,3.5-1.4,5.4-1.3c-0.8,0.9-1.8,1.6-2.8,2.4c-0.7,0.5-1.3,1.3-1.3,2.3
		c0,1,0.7,1.9,1.2,2.7c0.7,0.9,1.2,1.9,1.5,3c0.3,1.1,0.5,2.3,0.9,3.4c0.6,1.5,2.2,2.4,3.7,3c0.2,0.1,0.3,0.1,0.5,0.2
		c2,0.7,4.2,1,6.3,1.3c0.3,0,0.7,0,1,0.1c0.6,0.1,1.3,0,1.9,0.2c2.8,0.1,5.5,0.1,8.3,0c1,0,2-0.1,3-0.2c0.4-0.1,0.7-0.1,1.1-0.1
		c1.9-0.2,3.8-0.6,5.6-1.2c1.6-0.6,3.2-1.5,3.9-3.1c0.5-1.4,0.7-2.8,1.2-4.2c0.4-1,1-1.9,1.6-2.8c0.5-0.7,1-1.6,0.8-2.6
		c-0.1-0.8-0.7-1.4-1.3-1.8c-0.9-0.8-2-1.4-2.8-2.4c1.6-0.1,3.1,0.4,4.5,1c3.1,1.3,5.8,3.3,8.5,5.2c2,1.4,4.1,2.7,6.5,3.5
		c0.1,0,0.2,0.1,0.3,0.1c0.1,0,0.2,0,0.3,0.1c0.8,0.2,1.6,0.3,2.3,0.3c1-0.1,1.9-0.5,2.7-1.1c1.8-1.2,3.4-2.8,5.4-3.7
		c-0.1,0-0.2,0-0.2,0C108.4,88.3,108.2,88.4,107.9,88.4z M27.2,89.9c-0.7,0.9-1.8,1.3-2.7,1.8c-0.9-1.4-1.7-2.8-2.6-4.3
		c0.8-0.4,1.5-0.9,2.4-1.2c1.1-0.4,2.3,0.2,2.9,1.1C27.7,88.2,27.8,89.2,27.2,89.9z M30,88.6c-0.9-1.4-1.8-2.8-2.7-4.3
		c0.4-0.2,0.8-0.5,1.1-0.7c0.9,1.4,1.8,2.8,2.7,4.3C30.7,88.1,30.3,88.4,30,88.6z M32.8,86.7c-0.9-1.4-1.8-2.8-2.6-4.3
		c0.9-0.6,1.9-1.2,2.8-1.8c0.2,0.4,0.5,0.7,0.7,1.1c-0.5,0.3-1,0.7-1.6,1c0,0.2,0.1,0.3,0.2,0.5c0.6-0.3,1.1-0.7,1.6-1
		c0.2,0.4,0.5,0.7,0.7,1.1c-0.4,0.4-1,0.7-1.4,1c-0.1,0.2,0.1,0.4,0.2,0.5c0.5-0.3,1-0.6,1.5-1c0.1-0.1,0.2-0.1,0.3-0.1
		c0.2,0.4,0.4,0.7,0.7,1.1C34.7,85.5,33.8,86.1,32.8,86.7z M40,82.1c-0.3,0.9-1.3,1.3-2.1,1.5c-0.8,0.2-1.5-0.3-1.9-0.9
		c-0.4-0.6-0.6-1.3-0.9-1.9c-0.2-0.4-0.4-0.8-0.5-1.2c0.4-0.2,0.8-0.4,1.2-0.6l0.1,0c0.3,0.7,0.6,1.5,1,2.2c0.2,0.4,0.3,0.9,0.8,1.1
		c0.5,0,1.3-0.3,1.1-1c-0.2-0.6-0.5-1.1-0.7-1.7c-0.2-0.5-0.5-0.9-0.6-1.5c0.5-0.1,0.9-0.3,1.4-0.4c0.2,0.5,0.4,1.1,0.7,1.6
		c0.1,0.2,0.2,0.4,0.3,0.6C39.9,80.7,40.3,81.4,40,82.1z M43.9,90.2c-0.1,0.2-0.1,0.4-0.2,0.5c0,0.1,0,0.3,0,0.4
		c-1-0.6-2.1-1.2-2.7-2.3c-0.4-0.7-0.4-1.7,0.1-2.3c1.1-1.4,2.8-2.1,4-3.4c1.2,0.2,2.4,0.6,3.4,1.3c0.4,0.3,0.7,0.7,0.9,1.2
		c0,0.2,0,0.4,0,0.6c-0.2,0.4-0.5,0.8-0.9,1c-1.2,0.8-2.5,1.2-3.6,2C44.5,89.4,44.2,89.8,43.9,90.2z M47.1,98.6
		C47,97.8,47,97,47,96.3c-0.1-0.9-0.1-1.9-0.1-2.8c0.7,0.2,1.3,0.4,2,0.5c0.2,0,0.3,0.1,0.5,0.1c0.3,0.1,0.6,0.1,0.9,0.2
		c0.1,0.5,0,0.9,0,1.4c-0.3-0.1-0.6-0.1-0.9-0.2c-0.3-0.1-0.7-0.2-1-0.2c0,0.1,0,0.4,0,0.5c0.6,0.2,1.2,0.3,1.8,0.5
		c0,0.5,0,0.9,0.1,1.4c-0.6-0.2-1.2-0.3-1.7-0.5c0,0.2,0,0.4,0,0.6c0.6,0.3,1.3,0.3,1.9,0.5c0,0.5,0,0.9,0.1,1.4
		C49.3,99.4,48.2,99,47.1,98.6z M53.7,96.2c0,1.3,0,2.6,0,4c-0.5-0.1-1-0.1-1.5-0.2c0-1.3,0-2.6,0-3.9c-0.5-0.1-1-0.2-1.5-0.3
		c0-0.5,0-0.9,0-1.4c1.5,0.2,3,0.5,4.4,0.6c0,0.5,0,0.9,0,1.4C54.7,96.3,54.2,96.2,53.7,96.2z M63.4,100.5c-0.5,0-0.9,0-1.4,0
		c0-0.9,0-1.9,0-2.8c-0.4,0.4-0.8,0.9-1.2,1.3c0,0-0.1,0-0.1,0c-0.4-0.4-0.8-0.9-1.2-1.3c0,0.6-0.1,1.3,0,1.9c0,0.2-0.1,0.5,0,0.7
		c0,0-0.1,0.1-0.1,0.2c-0.4,0-0.9,0-1.3,0c0-1.7,0-3.5,0-5.2c0.5,0.1,1.1-0.2,1.4,0.3c0.4,0.5,0.9,1,1.3,1.6c0.5-0.6,1-1.2,1.5-1.8
		c0.4,0,0.8,0,1.2-0.1c0,0.5,0,1.1,0,1.6C63.4,98,63.5,99.3,63.4,100.5z M69.3,98.9c-0.8,1.4-2.9,1.9-4.3,1
		c-0.4-0.3-0.7-0.7-0.9-1.1c0-0.1-0.1-0.2-0.1-0.4c-0.1-0.8-0.1-1.6,0.5-2.3c1-1.4,3.2-1.6,4.4-0.4c0.3,0.3,0.5,0.7,0.7,1.1
		C69.7,97.5,69.7,98.3,69.3,98.9z M75.2,94.1c-0.1,1.5-0.2,3-0.3,4.5c-0.4,0.1-0.7,0.3-1.1,0.4c-0.7-0.7-1.4-1.5-2.2-2.2
		c-0.1,0.9-0.1,1.9-0.2,2.9c-0.5,0.1-1,0.2-1.4,0.3c0.1-1.8,0.2-3.6,0.3-5.4c0.4,0,0.9-0.4,1.2,0c0.7,0.7,1.4,1.4,2.1,2.1
		c0-0.4,0-0.8,0.1-1.2c0.1-0.5,0.1-1.1,0.1-1.6c0.5-0.1,1-0.3,1.4-0.4C75.3,93.7,75.3,93.9,75.2,94.1z M80.4,85.8
		c0.4,0.4,0.7,0.8,0.9,1.3c0,0.2,0.1,0.3,0.1,0.5c0,0.1,0,0.3,0,0.4c-0.1,0.2-0.1,0.4-0.1,0.6c-0.5,1.2-1.7,2-2.9,2.6
		c0-0.3,0-0.7-0.2-1c-0.5-0.7-1.2-1.2-1.9-1.6c-0.1-0.1-0.3-0.2-0.4-0.2c-0.9-0.4-1.8-0.8-2.5-1.4c-0.3-0.3-0.6-0.6-0.6-1.1
		c0-0.6,0.5-1.2,0.9-1.5c1-0.7,2.2-1,3.3-1.2C77.9,84.2,79.3,84.8,80.4,85.8z M83.2,82.4c-0.2,0-0.3,0.1-0.5,0.1
		c-0.4,0-0.7,0.1-1.1,0c-0.8-0.1-1.5-0.3-2.3-0.5c0.5-1.6,1.2-3.2,1.7-4.8c0.6,0.1,1.1,0.3,1.7,0.4c0.7,0.1,1.3,0.5,1.8,1
		c0.3,0.4,0.5,1,0.4,1.6C84.7,81.1,84.2,82,83.2,82.4z M86.7,85c0-0.3,0-0.5-0.1-0.8c0-0.5,0-1-0.2-1.5c0,0-0.1,0-0.2,0
		c-0.3,0.5-0.6,1-0.9,1.5c-0.4-0.2-0.8-0.4-1.2-0.6c0.8-1.5,1.7-2.9,2.5-4.4c0.6,0.3,1.1,0.6,1.6,0.9c0.6,0.3,1.1,0.9,1.1,1.6
		c0,0.7-0.7,1.4-1.4,1.4c0.1,1,0.2,1.9,0.3,2.9C87.7,85.6,87.2,85.3,86.7,85z M88.8,85.7c-0.3-1.2,0.5-2.5,1.6-2.9
		c0.5-0.2,1-0.2,1.5-0.1c0.6,0.2,1.3,0.5,1.7,1c0.3,0.3,0.4,0.7,0.6,1.1c0,0.3,0,0.6,0,0.9c0,0.1-0.1,0.2-0.1,0.4
		c-0.3,0.6-0.7,1.2-1.4,1.5C91.2,88.2,89.2,87.3,88.8,85.7z M94.3,90c-0.4-0.3-0.8-0.5-1.2-0.8c0.9-1.4,1.8-2.8,2.6-4.3
		c0.4,0.2,0.8,0.5,1.3,0.7c-0.7,1-1.3,2-1.9,3C94.8,89.1,94.5,89.6,94.3,90z M100.9,89.3c-0.5-0.2-1-0.5-1.5-0.7
		c-0.6,0.9-1.2,1.9-1.8,2.9c-0.1,0.3-0.4,0-0.6-0.1c-0.2-0.1-0.5-0.2-0.7-0.3c0.6-1,1.3-2.1,2-3.1c-0.4-0.3-0.9-0.5-1.3-0.8
		c0.2-0.4,0.4-0.8,0.6-1.1c0.6,0.4,1.2,0.7,1.8,1c0.8,0.4,1.5,0.8,2.3,1.1C101.4,88.6,101.2,89,100.9,89.3z" />
<path class="st0" d="M82.1,78.8c-0.2,0.6-0.4,1.2-0.7,1.7c-0.1,0.2-0.1,0.4-0.2,0.6c0.1,0,0.2,0,0.3,0.1c0.4,0.1,0.9,0.1,1.3,0
		c0.4-0.4,0.8-0.9,0.6-1.5C83.3,79,82.6,78.9,82.1,78.8z" />
<path class="st0" d="M63.9,90.2c0.1-0.2,0.1-0.5,0.2-0.7c0.1-0.5,0.2-1.1,0.5-1.5c0,0,0.1,0,0.2,0c0.4,0.3,0.5,0.7,0.7,1.1
		c0.6-0.5,0.9-1.2,1.1-1.9c0.2-1-0.3-2.1-1.2-2.5c-0.5-0.2-1-0.2-1.6-0.1c0-1.2,0-2.4,0-3.6c-1.7-0.1-3.5-0.4-5.2-0.8
		c-0.1,0-0.3-0.1-0.4-0.1c0,1.5,0,3,0,4.5c-0.5,0-1-0.1-1.5,0.1c-0.8,0.3-1.4,1.2-1.3,2.1c0,0.9,0.5,1.6,1,2.3c0,0,0.1,0,0.2,0
		c0-0.1,0.1-0.2,0.1-0.3c0.1-0.3,0.3-0.6,0.7-0.8c0.4,0.5,0.4,1.2,0.6,1.8c0.1,0.1,0.1,0.3,0.1,0.4c0.1,0.3,0.3,0.6,0.5,0.8
		c0.2,0.1,0.4,0.2,0.5,0.3c0.1,0,0.3,0,0.3,0c0,0.4-0.1,0.9,0.2,1.3c0.4,0.8,1.6,1,2.3,0.5c0.3-0.2,0.5-0.6,0.6-0.9
		c0-0.3,0-0.6,0-0.9c0.1,0,0.2,0,0.3,0C63.4,91.1,63.7,90.7,63.9,90.2z M61.9,92.1c-0.1,0.3-0.3,0.5-0.5,0.6c-0.4,0.1-0.9-0.1-1-0.5
		c-0.2-0.5,0.2-1.1,0.8-1.1c0.1,0,0.3,0.1,0.4,0.1C61.7,91.4,62,91.7,61.9,92.1z M61.4,90c-0.1-0.4,0.2-0.7,0.3-1.1
		c0.1-0.2-0.1-0.4-0.1-0.6c-0.2-0.1-0.5-0.1-0.7-0.1c-0.2,0.1-0.4,0.2-0.4,0.4c-0.1,0.5,0.4,0.8,0.3,1.2c0,0.8-1.2,1.1-1.7,0.5
		c-0.4-0.5-0.5-1.2-0.7-1.8c0-0.1-0.1-0.2-0.1-0.4c-0.2-0.4-0.3-0.9-0.8-1c-0.4-0.1-0.7,0.3-0.9,0.6c-0.2-0.4-0.4-0.8-0.4-1.3
		c0-0.6,0.4-1.2,1-1.3c0.5-0.2,1.1-0.1,1.5,0.3c0.5,0.5,0.5,1.3,0.9,1.8c0.4,0.3,1.1-0.1,0.9-0.6c-0.2-0.7-0.8-1-1.1-1.7
		c-0.3-0.5-0.1-1.1,0.2-1.6c0.4-0.6,0.9-1,1.5-1.5c0.6,0.5,1.2,1,1.6,1.7c0.2,0.5,0.3,1.1,0,1.5c-0.3,0.5-0.9,0.9-1,1.6
		c0,0.5,0.6,0.7,1,0.5c0.3-0.6,0.4-1.5,1-2c0.4-0.3,0.9-0.3,1.3-0.2c0.4,0.2,0.8,0.5,0.9,1c0.2,0.6-0.1,1.2-0.3,1.7
		c-0.2-0.4-0.6-0.8-1.1-0.6c-0.5,0.2-0.6,0.7-0.7,1.2c-0.2,0.6-0.3,1.3-0.7,1.9C62.6,90.9,61.6,90.7,61.4,90z" />
<path class="st0" d="M87.6,81.1c-0.1-0.1-0.2-0.1-0.3-0.2c-0.1,0.2-0.2,0.3-0.3,0.5c0,0-0.1,0.1-0.1,0.1c0.2,0.1,0.3,0.2,0.5,0.3
		c0.2,0,0.4,0,0.4-0.2C87.9,81.4,87.7,81.3,87.6,81.1z" />
<path class="st0" d="M91.8,84c-0.2,0-0.5,0-0.7,0c-0.5,0.2-0.9,0.7-0.9,1.3c0,0.8,0.9,1.3,1.6,1.2c0.4-0.1,0.7-0.3,0.9-0.6
		c0.1-0.4,0.2-0.9-0.1-1.2C92.4,84.2,92,84.1,91.8,84z" />
<path class="st0" d="M24.7,87.6c-0.3,0.1-0.6,0.2-0.8,0.4c0.3,0.7,0.8,1.3,1.1,1.9c0.4-0.1,0.9-0.4,1.1-0.8
		C26.5,88.2,25.6,87.2,24.7,87.6z" />
<path class="st0" d="M66,96.6c-0.7,0.4-0.8,1.5-0.2,2c0.4,0.4,1.1,0.4,1.6,0.2c0.4-0.2,0.6-0.5,0.7-0.8c0-0.3,0.1-0.7-0.2-1
		C67.6,96.3,66.6,96.2,66,96.6z" />
</g>
</svg>
