<svg id="Layer_1" xmlns="http://www.w3.org/2000/svg" width="35" height="25.4" viewBox="214.5 402.2 35 25.4"><title>gov.uk crown logo</title><desc>gov.uk</desc><style>.st0{fill:#fff}</style><path class="st0" d="M221.1 410.2c1 .4 2-.1 2.4-1 .4-.9-.1-2-1-2.4-.9-.4-2 .1-2.4 1-.3 1 .1 2 1 2.4M216.9 412.7c1 .4 2-.1 2.4-1 .4-.9-.1-2-1-2.4-.9-.4-2 .1-2.4 1-.3.9.1 2 1 2.4M215.7 417.3c1 .4 2-.1 2.4-1 .4-.9-.1-2-1-2.4-.9-.4-2 .1-2.4 1-.4 1 .1 2.1 1 2.4M225.8 411.7c1 .4 2-.1 2.4-1 .4-.9-.1-2-1-2.4-.9-.4-2 .1-2.4 1-.4.9.1 2 1 2.4M242.8 410.2c-1 .4-2-.1-2.4-1-.4-.9.1-2 1-2.4.9-.4 2 .1 2.4 1 .4 1-.1 2-1 2.4M247 412.7c-1 .4-2-.1-2.4-1-.4-.9.1-2 1-2.4.9-.4 2 .1 2.4 1 .4.9-.1 2-1 2.4M248.2 417.3c-1 .4-2-.1-2.4-1-.4-.9.1-2 1-2.4.9-.4 2 .1 2.4 1 .4 1 0 2.1-1 2.4M238.1 411.7c-1 .4-2-.1-2.4-1-.4-.9.1-2 1-2.4.9-.4 2 .1 2.4 1 .4.9-.1 2-1 2.4M232.9 406.9l2.3 1.2v-3.5l-2.3.7c-.1-.1-.1-.2-.2-.2l.9-3h-3.4l.9 3c-.1.1-.2.1-.2.2l-2.3-.7v3.5l2.3-1.2.2.2-1.3 4.1c-.1.2-.1.4-.1.6 0 1.1.8 2 1.9 2.2h.6c1.1-.2 1.9-1.1 1.9-2.2 0-.2 0-.4-.1-.6l-1.3-4.1c.1 0 .2-.1.2-.2M232 426.8c4.4 0 8.7.3 12.4.8 1.1-4.5 2.4-7 3.7-8.9l-2.5-.9c.3 1.3.3 1.9 0 2.7-.4-.4-.8-1.2-1.1-2.3l-1.2 4.1c.7-.5 1.3-.8 2-.9-1.2 2.5-2.6 3.1-3.6 3-1.1-.2-1.7-1.2-1.5-2.1.3-1.2 1.5-1.6 2.1-.1 1.1-2.3-.8-3-2-2.3 1.9-1.9 2.1-3.6.6-5.6-2.1 1.6-2.2 3.2-1.2 5.5-1.2-1.4-3.2-.7-2.5 1.6.9-1.4 2.1-.5 1.9.8-.2 1.1-1.7 2.1-3.6 1.9-2.7-.2-2.9-2.1-2.9-3.7.7-.1 1.9.5 2.9 1.9l.4-4.3c-1.1 1.2-2.1 1.4-3.2 1.4.4-1.2 2.1-3.1 2.1-3.1h-5.4s1.7 1.9 2.1 3.1c-1.1 0-2.1-.3-3.2-1.4l.4 4.3c1-1.4 2.2-2.1 2.9-1.9-.1 1.5-.2 3.4-2.9 3.7-1.9.2-3.4-.8-3.6-1.9-.2-1.3 1-2.2 1.9-.8.7-2.3-1.2-3.1-2.5-1.6 1-2.3.9-3.9-1.2-5.5-1.5 2-1.3 3.7.6 5.6-1.2-.7-3.1 0-2 2.3.6-1.4 1.9-1.1 2.1.1.2.9-.4 1.9-1.5 2.1-.9.2-2.4-.5-3.6-3 .7 0 1.2.3 2 .9l-1.2-4.1c-.3 1.1-.7 1.9-1.1 2.3-.3-.8-.2-1.4 0-2.7l-2.5.9c1.3 1.8 2.6 4.4 3.7 8.9 3.5-.5 7.7-.8 12.2-.8"/></svg>