<svg id="Layer_1" xmlns="http://www.w3.org/2000/svg" width="125" height="102" viewBox="0 0 125 102"><title>British Government Crest</title><desc>Dieu et mon droit, Honi soit qui mal y pense</desc><style>.st0{fill:#6f787b}</style><path class="st0" d="M58.3 5.2c.7-.6 1.4-1.2 2.3-1.4 0 .9-.7 1.7-1.4 2.2h3.5c-.7-.6-1.4-1.3-1.3-2.3 0 0 .1.1.2.1.8.2 1.5.8 2.1 1.4V1.7c-.7.6-1.4 1.2-2.3 1.4.1-1 .8-1.7 1.3-2.4-.7-.1-1.4 0-2.1-.1h-1.3c.6.7 1.2 1.5 1.3 2.5-.9-.1-1.6-.7-2.3-1.3v3.4zM124.5 49.1c-.2-.5-.5-.9-1-1.2-1-.7-2.1-1.1-3.1-1.9-.9-.7-1.6-1.7-1.9-2.8 0-.2-.1-.4-.1-.6-.2 0-.1-.2 0-.2.1.1.1.3.1.4.5 1 1.2 2 2.2 2.5.6.3 1.4.3 2.1.1v-.2c-.2 0-.3-.1-.5-.1-.4-.2-.8-.6-1-1.1-.1-.1-.1-.3-.2-.4-.2-.8-.3-1.7-.5-2.5s-.6-1.6-1.4-1.9c-.7-.3-1.4-.2-2.1-.3-.5-.5-1.1-.8-1.8-1-.7-.1-1.4-.1-2 0-2 .5-3.8 2.3-4.1 4.4-.3 1.7 0 3.5.8 5.1 1.2 2.4 3.5 4 5.4 5.8 1.2 1.2 2.3 2.5 2.8 4.2 0 .2.1.4.1.6.1.7.1 1.4 0 2.2-.3 1-1 1.9-1.9 2.3-.6.2-1.1.3-1.7.2-.1-.1-.3-.1-.4-.2-1.4-.7-2.2-2.2-2.9-3.6-.1-.1-.1-.2-.2-.3-.9-1.9-2.3-3.6-3.6-5.3.6.4 1.2.5 1.9.3.3-.2.7-.3.9-.6.4-.5.5-1.1.3-1.7-.2-.9-.9-1.7-1.7-2-.4-.2-.9-.2-1.4-.1-.4.2-.9.4-1.1.9-.3.5-.2 1-.2 1.6-1.3-1.8-2.8-3.5-3.6-5.6-.2-.4-.2-.9-.2-1.4.1-.2.1-.4.2-.5.4-1 1.1-1.8 1.7-2.6.2 0 .5.2.6-.1l3.3-3.6h.1c-.4-.2-.7-.5-1-.8.3-.6.5-1.2.6-1.8.2.6.4 1.3 1 1.6.3.2.6.2.9.1 0-.1-.1-.3-.1-.4-.1-.4-.1-.9 0-1.3 0-.3 0-.6.1-.9.1-1 .1-2 0-2.9-.1-.2-.1-.4-.1-.7.5.6 1 1.2 1.8 1.5h.8c-.3-.3-.6-.6-.7-1.1-.3-.7-.2-1.5-.1-2.3 0-.9.1-1.9-.2-2.8 0-.1-.1-.2-.1-.3-.2-.7-.5-1.3-.9-1.9.6.2 1.4.2 1.8-.4-.1 0-.3 0-.4-.1-.7-.2-1.2-.8-1.5-1.4-.5-1-1.2-2.1-2.3-2.5l-.1-.1c-.4-.2-.9-.4-1.3-.5.7-.2 1.5-.6 1.5-1.4-.4.1-.8.2-1.2-.1-.6-.3-1.2-.7-1.9-1-.9-.4-1.9-.5-2.9-.5-.4-1.6-1.6-2.9-3.1-3.6.3 1 .1 1.9-.2 2.9l-12-11.7c-.2-.2-.5-.5-.8-.6-.3.1-.2.5 0 .6 3.5 4.4 7 8.8 10.5 13.1-.8.3-1.5.6-2.3.9-.6.2-1 .8-1 1.4-.1.1-.2.1-.3.2-1.7.9-3.4 2-4.8 3.3-.3.3-.2.7-.2 1 0 .1.1.2.2.3.1.4 0 .9.2 1.4h.3c1.1-.5 2.2-1.3 3.4-1.6h.6c.1 0 .2.1.3.2v.4c-.3.3-.8.5-1.2.7-.2.1-.4.1-.6.2-.5.2-1.1.5-1.4 1-.1.4.5.3.7.3.1.3.2.8.7.8.3-.1.5-.4.8-.5.1.1.2.2.2.3 0 .6-.2 1.2-.4 1.8 1-.1 1.8-.9 2-1.9.1-.5 0-1.2.5-1.5 0 .1.1.2.2.3.1.4 0 .9 0 1.4.6-.2 1-.8 1.1-1.4v-1.1c.3-.2.6-.5 1-.4.4.2.8.6 1.3.8.1.1.3.1.4.2h1.1c1-.2 1.9-.8 2.4-1.7.4-.7.4-1.6.1-2.4.2.3.5.6.6 1 .2.7.3 1.4 0 2-.3.8-1.1 1.4-1.8 2-1.8 1.3-4 2.1-5.6 3.6-.1 0-.3-.1-.4-.1-.2-.1-.4-.1-.6-.2-.5-.2-1-.4-1.5-.5L91 33.6c-.1.1.1.2.1.3-1.3 1.7-2.4 3.6-2.8 5.8 0 .1-.1.3-.1.3-.5-.5-1.1-1-1.7-1.5.1-.4.2-.8.1-1.2-.1-.2-.1-.5-.2-.7-.3-.5-.6-.9-1.2-1-.6-.2-1.3.1-1.7.6-.7-.5-1.3-1-2-1.5-.5-.4-.8-.9-1.4-1.1h-1.8c-.8.7-1.7 1.4-2.6 2 .5.5.9 1 1.4 1.5.4-.3.7-.6 1.1-.8.3 0 .6-.1.8 0 .3.1.6.4.8.7 1.2 1.6 2.5 3.1 3.8 4.7-.5.2-1.1.4-1.7.4-.6 0-1.3 0-1.9-.1-.3 0-.6-.1-.8.2-.3.4-.6.9-1 1.4-.2.3-.2.6-.1.9l1.2 2.1c.7 1.3 1.5 2.6 2.1 4 .2.5.4 1 .8 1.3.4.4 1 .7 1.5.9.6.2 1.1.5 1.6.8.7.4 1.3.7 2 1.2 0-.4.1-.8.1-1.2-.7-.5-1.5-.7-2.2-1.1h.9c.8.2 1.5.5 2.3.8-.2-1.1-1-1.9-1.7-2.8-.2-.3-.6-.3-.9-.4-.4-.1-.9 0-1.3.1-.1.2-.1.4-.2.5-.2 0-.4 0-.6-.1-.1-.2-.1-.5.1-.7.3-.3.4-.9.1-1.2-.3-.3-.8-.3-1.2-.4-.7-1.1-1.3-2.2-2-3.3 0-.3-.1-.6.2-.8.5-.4 1.2-.1 1.7 0 1.9.5 3.8.5 5.7.6 0 .5.1 1 .3 1.5 0 .1-.1.2-.1.2-.6-1.2-2.2-1.7-3.4-1.2-.7.3-1.2 1.1-1.1 1.9.2.8.8 1.6 1.6 1.9.1.1.3.1.4.2.5 0 1 .1 1.5 0 .6-.3 1.2-.8 1.2-1.5.1-.5-.1-.9-.2-1.3l.3.3h-.1c.3.7.6 1.4 1 2.1.6.8 1.3 1.4 2.2 1.9 1.1.6 2.3.7 3.4 1.2 1 .5 2 1.2 2.6 2.2.2.3.5.7.5 1.1-2.2-.1-4.5.1-6.6 1.1-.1 0-.2.1-.2.1-1.1.6-2 1.7-2.3 2.9-.2 1-.3 2.1 0 3.2.3.8.9 1.5 1.5 2 .7.6 1.2 1.4 1.2 2.4-.1.5-.5.9-1 1.2-.9.6-1.9.9-2.9 1.1-.1 0-.3.1-.5.1s-.3.1-.5.1l-1.2.3c-1 .2-2 .3-3 .5-1.2.2-2.4.5-3.3 1.4-.6 1.3-1.8 2.3-2.8 3.4.4.1.8.2 1.3.1.6-.6 1.1-1.3 1.6-2 .1-.2.3-.3.5-.3 0 .3-.1.5-.2.8-.3.6-.7 1.2-1 1.7.5.1 1.1.1 1.7 0 .2 0 .5 0 .7-.1.8-.2 1.8-.6 1.9-1.5.1-.6-.3-.9-.6-1.4.1-.3.5-.4.8-.5.6.1 1 .6 1.3 1.1.3.4.8.3 1.2.2.6-.2 1.2-.5 1.7-.7.9-.4 1.8-.8 2.7-1.1.2-.1.4-.2.6-.2l3.6-1.5c.5-.2 1-.4 1.5-.7.2-.1.5-.4.4-.7-.2-.4-.7-.7-.9-1.1-.6-.7-.6-1.5-.5-2.2 0-.9.4-1.8 1.2-2.2.9-.6 2.1-.6 3.1-.6-.1.9-.2 1.9.2 2.8.6 1.7 1.8 3 3.1 4.1.9.8 1.9 1.4 2.9 1.9.2.1.5.2.7.3.6.3 1.3.1 2 .2.5.3.6 1 .6 1.5 0 .9.1 1.8.2 2.6.1 1.5 0 2.9-.5 4.3-.4.9-1.3 1.4-2.1 2-1.2 1.1-1.8 2.7-2.7 4 .3.2.6.3.9.2.4-.2.6-.6.7-1 0-.1.1-.3.1-.4.1-.2.1-.3.2-.5.2-.5.5-1 .9-1.4-.3 1.2-.7 2.3-1 3.5.5.1 1 0 1.5-.1.9-.3 1.9-.8 2.5-1.6.2-.3.2-.7.1-1.1-.2-.5-.8-.7-.8-1.2 0-.4.5-.7.9-.7.5 0 .9.3 1.2.7.7-.3 1-1.1 1.1-1.8.1-.9 0-1.8 0-2.7.3.4.6.7 1.1.9 1.5.4 3.3-.8 3.4-2.3.1-.8-.5-1.6-1.3-1.8-1.3-.4-2.8.5-3.3 1.7-.1-2-.4-3.9-.2-5.9 0-.4 0-.8-.3-1-.4-.2-.7.1-1 .3-.3.2-.8.2-1.1-.1-.9-.7-1.6-1.6-1.8-2.7-.2-1 .3-2 .7-2.9.4-1 .9-2 1-3 .1-.5 0-1.1.2-1.6.1 0 .2-.1.2-.2.1 0 .2.1.2.2s.1.2.1.2c.4 1 1 2 1.7 2.8-.2 1.7.7 3.5 2.3 4.3.1.1.3.1.4.2.2 0 .3.1.5.1h.9c.2-.1.4-.1.5-.2.4-.1.7-.4 1.1-.6-.4 0-.9 0-1.2-.2-.8-.4-1.3-1.2-1.6-1.9h1.1c.6.7 1.7.8 2.6.6 1.2-.3 2.1-1.4 2.3-2.5-.6.6-1.5 1-2.4 1 1.4-1.1 1.9-3.1 1.7-4.9-.1-1-.4-2-.9-2.9-1-1.9-2.7-3.3-4.3-4.6-1.4-1.2-2.8-2.5-3.6-4.2-.4-1-.7-2.2-.6-3.3.2-1.5 1.2-2.9 2.6-3.5.1 0 .3-.1.4-.2.2 0 .3-.1.5-.1h.6c.2 0 .3.1.5.1l.6.3c-.1.2-.3.4-.4.6-.5.9-.6 2-.3 3.1.2 1 .9 2 1.8 2.6 1.1.8 2.3 1.3 3.6 1.8.2.1.4.1.6.2.1.1.3.1.4.2.8.3 1.7.7 2.4 1.2.3.2.4.5.6.7.1-.4.1-.8.1-1.2zm-30-28l-.1.1c.2-.5.2-1.2.5-1.6.4-.5 1.2-.5 1.7-.2s1 .6 1.5.8c-1.2 0-2.4.3-3.6.9zm-8.4 17.1c0 .6-.4 1.3-1.1 1.2-.3 0-.5-.2-.6-.4-.5-.8-.3-2 .6-2.4.7 0 1.2.9 1.1 1.6zm2.1 9.9c-.2.6-1 .8-1.6.6-.7-.2-1.5-.8-1.4-1.7 0-.5.5-.7.9-.8.5-.1 1.1.1 1.5.4.3.4.7 1 .6 1.5zm3.6-14.3c.3-1 .6-1.9.9-2.9 0-.1.1-.2.1-.3l.3-.9c.6.2 1.1.4 1.7.6-.5.2-1 .5-1.4 1h.8c.1 0 .2-.1.2-.1.1 0 .2-.1.2-.1-.1.4-.3.8-.5 1.2-.1.2-.1.3-.2.5-.3-.3-.5-.7-.9-.9-.1.2-.1.4-.1.7.2.6.7 1 1.3 1.2.1.1.3.1.4.2.3 0 .6.1.9-.1v-.5c-.2-.4-.7-.4-1.1-.3 0-.5.1-1 .6-1.2.4-.2.8.1 1.1.4.1-.6.3-1.2.7-1.6.3-.3.7-.5 1-.6.2.6.3 1.3 0 1.9-.1.3-.3.6-.6.8.4 0 .9.1 1 .5.3.5-.2 1.1-.6 1.3-.1-.3-.2-.5-.5-.7h-.4c-.2.1-.4.3-.4.5 0 .5.5.8.8 1 .1 0 .2.1.2.1.5.2 1.1.3 1.5-.1.2-.1.3-.3.4-.5-.5-.1-1 .2-1.4.4 0 0 .1-.1.1-.2.2-.3.3-.6.5-1 .2-.3.4-.7.5-1 .1.4.2.9.6 1 .1-.5.2-1.1-.1-1.6.8.3 1.5.9 2.3 1.3-.5.1-1.2.3-1.5.9.4.1.8 0 1.2-.1-.5.7-.9 1.4-1.3 2 0-.5 0-1-.3-1.4-.3.5-.3 1.2.2 1.7.4.4 1 .8 1.7.7.3 0 .5-.4.4-.7 0-.3-.3-.4-.5-.5h-.4l-.1.1v-.6c.1-.3.3-.5.6-.6.2 0 .6-.1.8.1.2.1.3.3.4.5.3-.9 1.1-1.8 2.1-1.8.3.9-.1 1.9-.9 2.5v.1c.4 0 .7.3.8.7.1.5-.3.9-.8 1.1-.1-.3-.3-.7-.6-.7-.4-.1-.8.3-.5.7.4.6 1.1 1 1.8 1.2.2 0 .4-.1.6-.1.2-.1.3-.2.5-.3 0-.1-.1-.1-.1-.2-.3-.1-.7-.2-1.1-.2.4-.5.7-.9 1.1-1.4 0 .4.2.9.5 1.2.1-.5.2-1.1.1-1.7.4.4.9.7 1.3 1.1.1.1-.1.2-.1.3-.9 1-1.9 2-2.8 3-4.3-2.6-8.7-5.1-13-7.6zm11.4 32.6c-.5 0-.9-.4-1-.8-.2-1 .6-2 1.6-2.1.5 0 1 .3 1.1.8.2.9-.7 2-1.7 2.1zm9.7 10.3c.2-.6.8-1.1 1.5-1.3.4-.1 1 0 1.3.3.2.2.2.6.1.9-.2.7-.9 1.2-1.6 1.3-.4.1-.9 0-1.1-.4-.3-.1-.3-.4-.2-.8zm-5.2-26.4c.5-.3 1.2-.1 1.6.3.4.3.6.7.7 1.1 0 .3.1.7-.1.9-.2.4-.8.5-1.2.4-.8-.2-1.4-1-1.5-1.8 0-.3.1-.7.5-.9zm.8 8.9c-.2.6-.6 1.1-1.3 1.3-.5.2-1.2-.1-1.4-.7-.3-1.1.8-2.5 1.9-2.2.8.2 1 1 .8 1.6zM21.6 8.5c.3-.3.5-.6.8-.8 0 .2 0 .5.1.7v1.1c.1.5.7.8 1.3.6.6-.2.8-1.1.3-1.5-.5-.4-.9-.7-1.3-1.2.4 0 .9.1 1.3.1-.1-.5-.2-.9-.4-1.4-.4.1-.7.5-1 .7-.1-.4-.1-.9-.1-1.3-.5.1-.9.3-1.3.5.3.4.6.7.8 1.1-.4.1-.8.1-1.2.1.3.4.5.8.7 1.3zM27.6 6.4c0-.5-.6-.9-1.1-.6-.5.2-.6 1-.1 1.3.5.3 1.2-.1 1.2-.7zM28.4 7.4c.5.3 1.2-.1 1.1-.6 0-.5-.4-.8-.9-.7-.3 0-.4.3-.6.5 0 .3.1.7.4.8zM60.4 6.4c-1.3.3-2.3 1.3-2.5 2.6h2.5V6.4zM61.7 6.4V9h2.5v-.2c0-.1-.1-.2-.1-.4-.4-1-1.4-1.8-2.4-2zM25.5 8.4c.2-.1.4-.3.4-.5.2-.5-.3-1-.8-1-.6 0-.9.8-.5 1.2.2.4.6.3.9.3zM29.2 8.6c.2.4.6.6 1 .4.2-.1.3-.3.5-.5 0-.2 0-.5-.2-.7-.3-.3-.8-.3-1.1 0-.2.2-.2.5-.2.8zM20.8 10.1c.5.3 1.1-.1 1.1-.6.1-.5-.6-.9-1.1-.7-.5.2-.5 1.1 0 1.3zM20 9.7c.2-.6-.5-1.1-1-.9-.5.2-.6.9-.2 1.2.3.5 1.1.3 1.2-.3zM26.9 9.8c0 .4.3.8.5 1.1H27c-.1 0-.2.1-.3.1-.2.3-.1.7 0 1 .2-.1.3-.3.5-.4.4.1.5.6.4.9-.3.6-1.1.9-1.8.8-.4-.2-.6-.5-.7-.9.5-.1.9.1 1.3.3-.2-.6-.3-1.1-.5-1.7-.2.4-.5.8-1 1 0-.5.2-1 .3-1.4-.7.3-1.4.5-2 .8.4.3.9.5 1.2.9-.4.1-.8.1-1.2 0H23c.2.5.5.9.7 1.4h.1c.1-.4.3-.8.7-1.1.2.4.2.7.2 1.1-.2.5-.6.7-1.1.8-.4.1-.9.1-1.2-.3-.1-.2 0-.4 0-.6h.6c-.1-.3-.2-.6-.5-.7-.3-.1-.5.1-.7.4.1-.8-.5-1.7-1.4-1.7v1c.2.4.6.7 1 .9-.2.1-.5.1-.6.4-.1.3.2.6.3.8.1-.3.2-.7.6-.5.4.2.3.6.3.9-.1.1-.2.2-.4.3-.6.1-1.3-.2-1.6-.6.3 0 .6 0 .9.1-.4-.4-.7-.9-1.1-1.3 0 .3 0 .7-.1 1-.1-.2-.2-.3-.3-.5v-.4h-.2c-.2.2-.5.4-.7.7 1.1.7 2 1.7 2.8 2.7.3-.2.5-.3.8-.5.7-.4 1.5-.8 2.3-1.1 1.4-.6 2.8-1.2 4.3-1.6.6-.2 1.2-.3 1.8-.5-.2-1.3-.3-2.6.1-3.8h-1.1c.1.1.1.2.2.4s.1.4.2.6c-.3-.2-.5-.4-.7-.7 0 .6.1 1.1.2 1.7.2-.2.4-.4.6-.5 0 .5-.2 1.1-.6 1.5-.3.1-.6.1-.8 0-.1-.1-.2-.3-.3-.4 0-.2 0-.3.1-.5.3-.1.5 0 .7.1 0-.4-.1-.7-.4-.9-.2 0-.4.1-.6.2 0-.4.1-.7 0-1.1-.1-.4-.5-.7-.8-.9-.3 0-.5.4-.4.7zM50.1 11.8c.5.2 1.1 0 1.3-.4.3-.6-.1-1.5-.8-1.5-.4-.1-.8.2-1.1.5-.1.2-.1.5-.1.7.2.3.4.6.7.7zM71.3 11.9c.5.1 1.1-.2 1.3-.7.1-.4-.1-.9-.4-1.1-.5-.4-1.3-.2-1.6.4-.3.5 0 1.2.7 1.4zM52.7 12c.7.4 1.6-.3 1.5-1 0-.7-.9-1.2-1.5-.8-.7.3-.7 1.5 0 1.8zM57.9 10.2c0 .1.1.3.1.4 0 .1.1.2.1.2.3.7.9 1.2 1.5 1.5.7.3 1.6.4 2.4.2.8-.3 1.5-.9 1.9-1.6.1-.2.1-.4.2-.6l.1-.1h-6.3zM69 12.1c.4 0 .6-.3.8-.6 0-.3.1-.8-.2-1-.3-.4-.9-.5-1.4-.3-.5.3-.6 1-.3 1.5.3.3.7.5 1.1.4zM17.7 11.7c.4.4 1.2 0 1.2-.6.1-.5-.6-.9-1-.7-.6.2-.7 1-.2 1.3zM47.8 12.7c.2 0 .5 0 .7-.1.6-.3.7-1.2.2-1.6-.5-.5-1.5-.3-1.7.3-.2.6.2 1.2.8 1.4zM74.3 12.6c.4-.1.8-.5.7-1 0-.4-.3-.8-.6-.9-.3-.1-.7-.1-1 .1-.3.2-.5.6-.5 1 .1.6.8 1 1.4.8zM55.5 12.8c.6.1 1.2-.4 1.2-1 0-.5-.4-.9-.8-1.1h-.4c-.3.1-.6.2-.7.5-.4.7 0 1.6.7 1.6zM66.3 12.8c.7.1 1.2-.6 1.1-1.2-.1-.4-.4-.7-.8-.8h-.4c-.3.1-.6.3-.7.6-.4.6.1 1.4.8 1.4zM59 13.2c.3-.8-.6-1.6-1.3-1.3-.7.2-.9 1.2-.4 1.7.5.6 1.6.4 1.7-.4zM63.7 11.9c-.6.2-.9.9-.6 1.5.2.5.8.6 1.3.5.3-.2.6-.5.6-.9.1-.7-.7-1.3-1.3-1.1zM19.1 13c0-.5-.6-.7-1-.6-.2.2-.5.4-.5.7 0 .5.5.8 1 .7.3-.2.6-.5.5-.8zM46.6 14.2c.3-.1.4-.4.5-.7 0-.5-.2-1-.7-1.2h-.6c-.3.1-.5.3-.7.6 0 .4-.1.8.2 1.1.3.4.9.5 1.3.2zM75 13.4c0 .6.7 1.1 1.3.9.3-.1.5-.3.7-.6v-.8c-.2-.3-.5-.6-1-.6-.6 0-1.1.6-1 1.1zM59.3 14.2v3.7c0 .2 0 .3.1.5h1.1V14h-.3c-.3-.1-.6-.2-.8-.3-.1.2-.2.3-.1.5zM61.6 18.4h1.1v-4.7l-1.2.3c.1 1.5.1 3 .1 4.4zM44.9 16.7c.2 0 .3-.1.5-.1.3-.2.5-.4.6-.7.2-.6-.3-1.2-.9-1.3-.5-.1-.9.3-1.1.7 0 .3-.1.7.1.9.2.3.5.4.8.5zM76.1 15.7c0 .4.3.9.7 1 .6.2 1.4-.3 1.3-1 0-.7-.7-1.2-1.3-1-.4.1-.8.5-.7 1zM44.7 19.1c.6 0 1.1-.7.9-1.3-.1-.5-.7-.8-1.2-.7-.7.1-1 .9-.7 1.5.2.3.6.6 1 .5zM76.8 17.3c-.6.4-.5 1.5.1 1.8.5.3 1.1 0 1.4-.4.1-.3.1-.7-.1-1-.2-.6-.9-.8-1.4-.4zM53.5 17.3c-.3.6-.7 1.2-1 1.9 0 .3-.1.6 0 .9.3.8 1 1.3 1.4 2.1.3-.8.8-1.4 1-2.2.1-.7-.4-1.4-.8-1.9-.2-.2-.3-.6-.6-.8zM67.2 19.4c-.2.4-.1.8.1 1.2.2.6.6 1.1.8 1.6 0 0 .1 0 .1-.1.4-.7 1-1.1 1.3-1.8.1-.4.1-.8 0-1.2-.3-.6-.5-1.2-1-1.7-.4.7-1 1.2-1.3 2z"/><path class="st0" d="M47.8 23.9c-.2-.7-.1-1.5.1-2.2.1-.2.2-.4.2-.6.1-.1.1-.2.2-.3v-.2l-.6.3c-.8.3-1.5.6-2.3 1 1.1 1.3 1.9 2.8 2.6 4.3.5 1.1.9 2.2 1.3 3.3.1.1-.1.2-.2.3-.6.6-.8 1.4-.6 2.2.2.9.9 1.7 1.6 2.1-3.3 2.2-5.9 5.2-7.7 8.6-.1.1-.2.3-.2.4-.4.9-.8 1.7-1.1 2.7.4.3.6.8 1 .9.2-.4.5-.8.9-1.1.4.2 1 .3 1.3.6-.4.3-.9.6-1.2 1.1.5 0 .8-.5 1.1-.7.4-.3.8-.3 1.2-.2.3.2.7.3.9.7.2.3.2.8.1 1.1-.2.5-.6 1-1.1 1.3-.3-.1-.6-.3-.9-.4-.1 0-.3-.1-.2-.2.4-.4.9-.7 1-1.2-.4 0-.7.3-1 .5-.2.2-.5.3-.7.4.2.5.6.9.8 1.5.3.7.1 1.5.4 2.3.2.8.9 1.3 1.2 2 .1.3 0 .6.1.9 0 .4.2.9.4 1.2 0-.3 0-.6-.1-.9v-.5h14.2v15.4c-.6 0-1.3.2-1.7.7.9.5 1.9.7 2.8 1.1.2.1.4.1.7.2.5.1 1 .4 1.5.4 0-.8.5-1.5.9-2.2-.4 0-.8 0-1.1-.1-.7-.1-1.4-.1-2.1-.2V55h13.9v1.3c-.1.4-.1.7-.1 1.1 0 .2-.1.5-.1.7-.2 1-.4 2-.8 2.9-1.3 3.8-4 7.2-7.6 9-.7.3-.9 1.1-1.2 1.7-.1.3-.2.5-.3.8 0 .2 0 .4-.1.7l.9.3c1.3.4 2.6.6 3.9.9.9.1 1.7.3 2.6.2.3 0 .6-.3.8-.5 3.4-2.8 6-6.6 7.4-10.7 0-.1.1-.3.2-.4 0-.1.1-.2.1-.3.6-2 1-4.1 1.2-6.2v-3.7c-.6-.4-1-1-1.4-1.6l-2.4-.9c-.2-.1-.4-.1-.5-.1-.6.1-1.1.3-1.7.4l-.3-1.2c.5-.2 1-.3 1.4-.4.2-.1.5-.1.6-.3.4-.5.7-.9 1.1-1.4-.2-.4-.5-.8-.7-1.2-.4-.7-.9-1.4-1-2.3l-1.8.9c.2.5.5 1 .8 1.5-.4.2-.7.4-1.1.6l-1.2-2.4c0-.1-.1-.2-.1-.3l1.2-.6c1-.4 1.9-.9 2.8-1.4l.3.3c.2-.3.4-.7.7-1-1.8-3-4.2-5.6-7.1-7.6.6-.4 1.2-1 1.5-1.7.3-.9.2-2-.5-2.7-.2-.1-.2-.3-.1-.5.3-.9.7-1.8 1-2.7.1-.3.2-.5.3-.8.7-1.4 1.4-2.8 2.4-4-1-.4-1.9-.9-2.9-1.2 0 0 .1.1.1.2.1.1.1.3.2.4.3.8.4 1.6.3 2.5-.8-.4-1.3-1.2-1.6-2.1-.1.3-.1.5-.2.8-.2.8-.5 1.6-.9 2.3.7-.4 1.6-.6 2.3-.3-.3.4-.7.7-1.2 1-1.1.5-2.4.4-3.4-.2-.5-.2-.9-.6-.9-1.1.1-.5.5-1.1 1.1-.9.5.2.4.9.4 1.4.5-.5.8-1.1 1-1.8.1-.4.1-.9-.2-1.2-.3-.3-.7-.3-1.1-.2-.6.2-1 .8-1.3 1.4-.1.1-.1.2-.2.4-.1.1-.1.2-.1.3-.1-.6-.3-1.3-.6-1.8-.3-.4-.9-.7-1.4-.4-.4.2-.5.7-.6 1v.6c.1.5.2 1 .5 1.5.1-.4.2-.9.6-1.2.3-.3.9-.1 1 .3.1.3.1.7-.1 1-.2.3-.6.5-1 .6-.2 0-.3.1-.5.1-.7.1-1.5.1-2.2-.1-.1-.1-.3-.1-.4-.1-1-.4-1.6-1.3-1.7-2.3 1 .2 1.9.7 2.5 1.5 0-.2 0-.5-.1-.7 0-.9-.1-1.7 0-2.6v-.6c-.6.8-1.5 1.4-2.5 1.5.3-1.1 1.1-2 2.1-2.6h-5.2c.9.7 1.7 1.5 2 2.6-1-.2-1.8-.7-2.4-1.5 0 .5 0 1.1.1 1.6.1.2.1.5 0 .8v1.4c.7-.7 1.5-1.2 2.4-1.4 0 1.2-1 2.2-2.1 2.5-.2 0-.3.1-.5.1-.6.1-1.1.1-1.7 0-.2-.1-.4-.1-.5-.1-.4-.2-.9-.4-1-.9-.1-.3-.1-.6.1-.8.2-.3.7-.4 1-.2.4.3.4.8.6 1.2.4-.7.5-1.6.4-2.4-.1-.3-.2-.5-.5-.7-.5-.3-1.1-.1-1.4.3-.4.5-.6 1.2-.7 1.9-.2-.6-.5-1.1-1-1.6-.3-.3-.7-.6-1.2-.5-.3 0-.6.3-.7.5-.2 1 .2 2.1 1 2.8 0-.1-.1-.2-.1-.4 0-.4 0-1 .5-1.1.8-.2 1.4.9.9 1.5-.5.7-1.4.9-2.3 1.1-1.2.2-2.3-.3-3.1-1.2.8-.4 1.6-.1 2.4.2-.3-.6-.5-1.2-.7-1.7-.1-.3-.2-.5-.2-.8 0-.2-.1-.4-.1-.6-.4 1.3-.9 2-1.7 2.5zM50 35.6c.3.3.6.6.8.9l-.1.1c-.3.2-.5.5-.8.7.7.8 1.4 1.5 2.1 2.3-.2.4-.6.6-.9.9-.7-.8-1.4-1.5-2.2-2.3-.3.3-.6.6-.9.8-.3-.3-.6-.6-.8-.9 1-.8 1.9-1.6 2.8-2.5zm-3.4 3.3c1.1.9 2.3 1.8 3.5 2.7-.2.4-.5.7-.8 1-1.1-.9-2.3-1.8-3.5-2.7.3-.3.5-.7.8-1zm-.1 7.2c-1.1.4-2.3-.3-2.7-1.4-.1-.5-.2-1 0-1.5.3-.7.8-1.4 1.6-1.6 1.1-.3 2.3.4 2.7 1.4.2.6.1 1.1-.1 1.7-.3.7-.8 1.2-1.5 1.4zm.1 8.4c0-.6 0-1.2.1-1.9.1-.3.1-.6.1-.9 0-.2.1-.5.1-.7.3-1.3.6-2.5 1.2-3.7.7-1.7 1.8-3.4 3-4.8 1.8-2 4.2-3.6 6.8-4.3.3-.1.7-.1 1-.2.6-.1 1.2-.2 1.8-.2v16.5c-4.6.2-9.4.1-14.1.2zm12.3-18.2l-.6 1.2c-.6.1-1.2.1-1.8 0-.6-.1-1.3 0-1.8-.3-1-.5-1.5-1.6-1.2-2.7.3-1 1.3-1.7 2.3-1.8h.5c.8.1 1.5.6 1.8 1.3.1.4.3.7.3 1.1 0 .4-.2.9-.4 1.3.3-.1.6-.1.9-.1zm2.7.5c-.6.1-1.2 0-1.7-.2-.5-.3-.8-.8-.9-1.4v-3h1.3v2.9c0 .3.3.4.5.5.3 0 .9 0 .9-.5.1-1 0-1.9 0-2.9h1.4v2.4c0 .5-.1 1.1-.4 1.5-.3.5-.7.6-1.1.7zm11.8 36.3c-.3-.3-.7-.6-.9-.9.3-.4.7-.7 1-1 .1-.1-.1-.3-.2-.4l-1 1c-.1.1-.3 0-.4-.1-.2-.2-.4-.5-.7-.7l1.1-1.1-.3-.3c-.4.4-.8.8-1.2 1.1-.3-.3-.7-.5-.8-.9.7-.7 1.4-1.4 2.1-2 1.1 1.1 2.2 2.1 3.3 3.2-.7.7-1.4 1.4-2 2.1zm2.6-3.4c-.4-.2-.8-.6-1.3-.8.5-.2 1.3-.3 1.4-.9-.5.1-1 .4-1.5.6-.8.1-1.7-.5-1.7-1.4 0-.9.8-1.5 1.5-1.7.5.2.8.6 1.3.8-.5.1-1.1.4-1.5.7v.3c.4-.1.7-.3 1.1-.4.2-.1.4-.1.5-.2h.4c.6.2 1.1.6 1.1 1.3.1.7-.5 1.4-1.3 1.7zm.7-14.9c.1-.3.1-.6.1-.9h4.6v1.8c-.1.4-.3.9-.6 1.1-.6.4-1.5.3-1.9-.3-.3-.4-.4-.9-.4-1.4-.5-.1-1.1 0-1.7-.1-.1.1-.1-.1-.1-.2zm-.1 2.6c1.3.2 2.5.5 3.8.7.2.1.5.1.7.1 0 .2 0 .5-.1.7 0 .2-.1.4-.1.6-.1.6-.2 1.1-.3 1.7-.4-.1-.8-.1-1.2-.2.1-.5.2-1 .3-1.6-.1 0-.3 0-.4-.1l-.3 1.5c-.4-.1-.8-.2-1.2-.2l.3-1.5c-.1 0-.3-.1-.4-.1-.1.5-.2 1.1-.3 1.6-.4-.1-.8-.1-1.2-.2 0-1 .2-2 .4-3zm-.7 3.3l.9.3c1.1.4 2.2.9 3.4 1.3l-.3.9c-.8.3-1.7.6-2.5.9-.2.1-.3.1-.5.2.7.2 1.4.6 2.1.8-.1.4-.3.8-.4 1.2-.7-.3-1.4-.6-2.2-.9-.2-.1-.4-.1-.5-.2-.5-.2-1.1-.4-1.6-.6.1-.3.3-.7.4-1 .9-.3 1.8-.6 2.6-.9.1 0 .1-.1.2-.1-.1 0-.3-.1-.4-.1-.6-.2-1.1-.5-1.7-.7 0-.1.1-.2.1-.3.2-.2.3-.5.4-.8zm-1.8-13.2c.6 1.5 1 3 1.2 4.5.1.8.2 1.6.2 2.4H61.6V37.9c.5.1 1 .1 1.4.2.2 0 .4.1.6.1 3.9.8 7.2 3.6 9.2 6.9.6.8 1 1.6 1.3 2.4zM63.6 37.1c0-.3.1-.6.2-.9 0-.2.1-.4.1-.6.1-.2.1-.4.1-.7 0-.2.1-.4.1-.6.1-.6.3-1.3.4-1.9.2 0 .5.1.7.1.2 0 .4.1.5.1 0 .2-.1.4-.1.6-.1.4-.1.7-.2 1 0 .2-.1.4-.1.6-.1.4-.2.8-.2 1.2 0 .2-.1.4-.1.6 0 .2-.1.4-.1.7-.4-.1-.8-.2-1.3-.2zm12.1 1.7c.2.2.4.5.5.7-.2.5-.5 1-.8 1.5-.4 1-1 2-1.5 3.1h-.1c-.2-.4-.5-.7-.8-1.1.1-.3.3-.6.4-.9-.3-.4-.6-.7-.8-1.1l-.1-.1c-.2.1-.5.2-.8.2-.3-.3-.7-.6-1-1 .5-.1 1-.3 1.5-.4.3-.1.5-.2.8-.2.1 0 .2-.1.3-.1l2.4-.6zm-3.2-3.1c.3.2.5.4.8.6-.9 1.2-1.8 2.5-2.8 3.7-.4-.2-.7-.5-1.1-.8.5-.6.9-1.2 1.4-1.8-.5.1-.9.2-1.4.3 0-.5-.1-1-.2-1.4-.5.6-.9 1.3-1.4 1.9l-.6-.3-.6-.3v-.2c.9-1.2 1.7-2.5 2.6-3.7.1 0 .2 0 .3.1l.6.3c.1.7.2 1.3.3 2 .8-.1 1.5-.2 2.1-.4zm-22.7-4.9c.6-.7 1.5-1 2.4-1.3 2.3-.6 4.6-.7 6.9-.8 2.7 0 5.4 0 8.1.3 1 .1 2.1.3 3.1.6.8.3 1.6.6 2.1 1.4.1.3.2.6.1.9-.2.8-.9 1.4-1.6 1.7-.6-.4-1.3-.8-1.9-1.1-.2-.1-.5-.2-.7-.3-1.2-.5-2.5-.8-3.9-1-1.4-.2-2.9-.2-4.3-.2-.5 0-1.1 0-1.6.1-2.6.3-5.2 1.1-7.4 2.5-.6-.4-1.3-.9-1.5-1.6 0-.4 0-.9.2-1.2zM45.8 19.8c-.3-.4-.9-.3-1.3-.1-.2.3-.5.6-.4 1 0 .7.8 1.1 1.4.9.7-.3.9-1.3.3-1.8z"/><path class="st0" d="M76.5 19.6c-.3.2-.6.5-.6.9-.1.6.5 1.1 1.1 1.1.7 0 1.2-.9.8-1.5-.1-.5-.8-.7-1.3-.5zM15.5 85.6c.2 0 .4.1.6.1h.9c.6-.2.9-.8 1.4-1.2.3-.2.7-.1 1 0 .2.3.1.6 0 .9.1 0 .3-.1.4-.1.5-.2.9-.6 1.1-1.1 0-.5.1-1-.2-1.4 0-.2-.1-.4 0-.6.3-.1.6-.1.9-.1.2.1.5.2.6.5.2.3 0 .6 0 .8.4-.1.7-.2.9-.6.2-.3.2-.7.3-1.1-.1-.3-.1-.5-.3-.8-.4-.6-1.2-.7-1.8-.6-.1-.2-.3-.4-.5-.6-.1 0-.2-.1-.2-.1-.3-.1-.5-.1-.8-.2-.4 0-.8 0-1.2.1-.5.2-.8.7-1.2 1-.5.4-1.1.3-1.7.1-1.1-.5-1.8-1.6-2.3-2.7-.5-1.4-.7-2.8-.7-4.3.1-1 .7-1.8 1.5-2.2 1.2-.7 2.6-1 3.8-1.7 2.4-1.3 4.5-3.2 5.9-5.6.6-1.1.9-2.2 1.1-3.4.1-.4.1-.9.1-1.3.1-.7.1-1.4 0-2.1v-1.1c.7.4 1.4 1 1.9 1.7.7 1 .9 2.1.9 3.3.1 1.1-.3 2.2-1.2 2.8-.4.3-1 .5-1.5.7v.7c.2.3.5.4.8.6.3.2.5.7.5 1 0 .2.1.5.1.7 0 .2.1.3.1.5.5 1.4 1.4 2.6 2.5 3.4.1-.9 0-1.8 0-2.7.2.2.5.3.6.6.6 1 .5 2.3 1.2 3.3.4.6 1.1.9 1.8.9h.5s-.1-.1-.2-.1c-.3-.3-.5-.9-.2-1.3.2-.3.6-.2.8 0 .6.5 1 1.1 1.4 1.7.1.2.4.3.6.3.7.1 1.4 0 2.1 0 .4-.1.6-.6 1-.5.2 0 .4 0 .5.1.4.3.2.8.2 1.2-.1.2-.2.4-.2.6.6-.2 1.2-.5 1.5-1 .2-.4.3-.9.2-1.3v-.7c.3-.1.7-.3 1.1-.2.6.2.9.8 1.1 1.3l.6-.9v-.7c0-.1-.1-.2-.1-.4-.3-.6-.8-1.1-1.5-1.3 0-.5-.4-.9-.9-1.1-.7 0-1.5-.1-2.2 0-.4.2-.7.5-1 .8-.5.3-1 .1-1.5 0-1.1-.4-2-1-2.9-1.7-1.2-1-2.4-2.1-3-3.6-.1-.3-.1-.6 0-.9.3-.6.8-1 1.3-1.4.8-.7 1.7-1.3 2.4-2.1.4-.6.7-1.2.7-2 0-1.4-.7-2.8-1.8-3.7-1.5-1.3-3.2-2.3-4.8-3.5-.1 0-.2-.2-.1-.3.6-.5 1.4-.8 2.2-.9 1.3-.2 2.6-.1 3.8.4.2-.6.6-1 .9-1.5 0-.1.1-.3.1-.4 0-.1.1-.3.1-.4.5.9 0 2 .2 2.9.1.1.1.4.3.4.6-.5 1.4-.8 1.7-1.6.1-.2 0-.6.2-.7-.1.2 0 .5-.1.8-.1.7-.2 1.4-.1 2.1 0 .3.2.5.4.8.1-.3.2-.7.4-.9.3-.3.8-.4 1.2-.1.5.5.2 1.4-.3 1.7-.5.3-.9.6-1.2 1.1 0 .3-.1.7.1 1 .2.4.7.6.8 1-.1.4-.5.8-1 .7-.2 0-.5-.1-.7-.2.2.4.5.8 1 1 .4.2.8.2 1.2.1.7-.2 1.2-.8 1.5-1.4.3.8.2 2-.7 2.4.1 0 .3.1.4.1h.6c.5-.1 1-.4 1.2-.8.4-.3.4-1 .4-1.6.4.1 1 .3 1.1.8.2.5 0 1-.2 1.5.7-.1 1.5-.5 1.7-1.2.2-.6-.2-1.2-.4-1.7s0-1.1-.2-1.6c-.3-.6-.8-1.2-1.1-1.9 0-.2 0-.5-.1-.7-.1-.3-.1-.6-.1-.9-.2-.9-.6-1.7-1.2-2.4-1.3-1.5-2.7-3-4-4.5-.8-1-1.8-1.9-2.6-2.9.6.1 1.1.5 1.5.9.9.9 1.8 1.7 2.6 2.6.2-.4.4-.9.6-1.3.7-1.5 1.5-3 2.5-4.4.9-1.3 1.9-2.4 2.9-3.5-.9.2-1.8.6-2.7 1.1 0-1.1-.3-2.4-1.2-3.2V33c.1-.3.1-.5 0-.8 0-.5-.1-.9-.3-1.4-.7-1.6-2.1-2.7-3.5-3.7 1.1.3 2 1.1 3.1 1.3.5.2 1.1-.1 1.5-.4v-.1c-.7-.1-1-.7-1.4-1.2-1.2-1.8-2.8-3.2-4.6-4.2v-.1c-.1 0-.3-.1-.4-.1h.5c1.3.4 2.1 1.6 3.5 1.8.6.1 1.2-.2 1.7-.5-.1 0-.3-.1-.4-.1-.4-.2-.9-.5-1.2-.9-.7-.8-1.4-1.7-2.2-2.5-.7-.8-1.7-1.3-2.7-1.7.8.1 1.6.4 2.4.1.5-.1.9-.5 1.3-.9-.4 0-.9 0-1.2-.1-.8-.3-1.4-.8-2.3-.9.1-.6.3-1.1.3-1.7 0-.7-.2-1.5-.5-2.1-1 0-1.9.4-2.7.9-.2-.9-1.3-.9-2-.8.1.3.1.6.1.8-.1.2-.2.2-.4.2-1.5.4-3 .8-4.5 1.4-.9.3-1.7.8-2.5 1.2-.6.3-1.1.7-1.7 1-.1.1-.3.2-.4.2-.3-.1-.4-.4-.6-.6-.6.4-1.2 1.1-.9 1.9-1 .1-2.1.4-2.9 1.1.1 1.3 1.2 2.3 2.3 2.9-.5.5-.9 1.1-1.1 1.8-.2.5-.1 1.1-.1 1.6-.1.6 0 1.3-.2 1.9-.2.5-.5.9-.8 1.3h.5c.4-.1.7-.2 1-.5.7-.6 1-1.6 1.3-2.4.2-.6.4-1.3 1-1.6 0 .3 0 .6-.1.9-.1.2-.1.4-.1.5-.1.2-.1.5-.2.7-.3.8-.7 1.5-1 2.3 0 .2-.1.4-.1.5-.1.7-.2 1.4-.1 2.2.1.3.1.5.1.8.2 1 .6 2.2-.1 3.1.7-.1 1.2-.8 1.5-1.4.8-1.8.7-3.8 1.5-5.6.1-.2.2-.6.4-.5.3 1 0 2-.3 2.9-.1.5-.2 1-.3 1.4-.1 1.3 0 2.6-.2 3.9-.1.5-.3 1-.6 1.4.6 0 1.2-.4 1.6-.9 1-1.1 1.4-2.6 2.2-3.7 0-.1.1-.2.1-.3v.3c-.1.1-.1.3-.2.4-.5 1.4-.9 2.8-1.4 4.2 0 .1-.1.2-.1.4 0 .1-.1.2-.1.3-.3 1-.7 2-1 3-.1.1-.1.3-.2.4l-.3.9c-.6 1.5-1.2 3.1-2.2 4.5-2 2.8-3.7 5.8-5.6 8.6-1 1.4-2.1 3-3.8 3.7-.7.3-1.5.3-2.2.1-.8-.2-1.5-.8-1.8-1.6-.1-.1-.1-.3-.2-.4-.1-.7-.1-1.4 0-2.2.2-.8.5-1.7 1-2.4 1.1-1.9 2.7-3.4 4.3-5 1.6-1.6 3.2-3.2 4.4-5 .7-1.1 1.2-2.3 1.4-3.5.1-.9 0-1.9-.4-2.7-.6-1.4-2.2-2.3-3.7-2.3-1.3 0-2.4.6-3.4 1.4-.5-.1-1-.3-1.5-.3-.7 0-1.4.3-1.8.9-.8.9-1.2 2.1-1.6 3.1 0-.1-.1.1-.1.2-.4 1-1 2.2-2.2 2.5-.2 0-.3 0-.5.1.7.3 1.5.2 2.1-.1 1.2-.5 2.2-1.5 3-2.5-.1.6-.3 1.1-.6 1.6-.7 1-1.9 1.6-2.9 2.2-1.2.7-2.5 1.5-2.9 2.8-.3.6-.3 1.4-.3 2.1.2-.2.3-.4.3-.6H.8c.2-.4.5-.8.9-1.1 1.1-1 2.5-1.5 3.8-2.1 1.1-.5 2.2-.9 3.2-1.5 1.2-.7 2.3-1.5 2.9-2.7.5-.9.6-2 .4-3-.2-.4-.5-.8-.8-1.1.2-.1.5-.3.8-.4.8-.3 1.7-.4 2.4 0 .7.3 1.2 1.1 1.3 1.9.2 1-.1 2.1-.5 3.1-1.2 2.3-3.1 4-4.8 5.9-2 2.1-4.2 4.3-5.2 7.1-.4 1-.5 2.2-.4 3.3.1.2.2.5.3.8l.6 1.2c-.1 0-.2.1-.3.1h-.7c-.4-.2-.8-.4-1.2-.7 0 1 .7 1.8 1.6 2.1.8.4 1.8.4 2.6 0 .4.1.8.2 1.1.2-.5 1.2-1.9 1.7-3.1 1.7.4.3.8.5 1.2.6.2 0 .4.1.7.1h1c1.1-.2 2.2-.6 3-1.3.8-.6 1.4-1.5 1.4-2.6 2.1-1.7 3.3-4.3 4.9-6.5 0 .2 0 .5-.1.7 0 .1 0 .3-.1.5-.9 1.6-1.8 3.3-2.5 5.1-.1.1-.1.3-.2.4 0 .1-.1.2-.1.3 0 .1-.1.2-.1.3-.3 1-.5 2-.6 3-.1.9-.3 1.8-.6 2.7-.4 1.1-1 2.2-2 2.8-.7.5-1.7.7-2.4.2-.3-.1-.6-.1-.8 0-.2.1-.3.3-.3.5-.1.6.4 1.1.2 1.7-.2.4-.5.7-.7 1.1-.5.7-.9 1.6-1 2.4-.1.4-.1.8 0 1.2.1 1 .6 2 .5 3.1h.1c1-.7 1.5-1.8 1.9-2.9 0 .2 0 .4.1.6.1.4 0 .8 0 1.1-.1 1-.8 2-.7 3 0 .6.3 1.2.5 1.7h.2c.1-.6.6-1 1.2-1.1.4-.1.9.2 1.1.6 0 .3-.3.5-.5.7-.2.2-.3.5-.4.8v1.1c.3.7 1 1 1.7.9l-.3-.3v-.3c.2-.1.3-.3.5-.4.1 0 .2-.1.4-.1.9.3 1.8.4 2.6.7zm17.1-69.2s.1-.1.2-.1c-.1.2-.2.4-.3.7 0 .1-.1.3-.1.4 0 .2-.1.4-.1.7 0 .9-1.1 1.5-1.9 1.3-.6-.3-1.2-.6-1.5-1.3 1.2-.5 2.5-1.1 3.7-1.7zm-6 6c.2-.1.3-.1.5-.2 1-.4 2.1-.8 3.1-1.2.3-.1.7-.2 1-.1.3.2.6.5.9.8v.4c-.5.1-.9-.4-1.4-.2-.2.1-.4.4-.3.6.2.3.6.3.9.5-.5.3-1.3.6-1.4 1.2 0 .6.4 1.1.9 1.3h.8c.5.3.8.9 1 1.5.3.6.3 1.4-.2 1.9-.3.4-.8.6-1.2.7-1 .1-1.9-.7-2.1-1.6-.1-.5-.3-.9-.3-1.4.2-.4.7-.6.7-1.1.1-.5-.1-1.1-.6-1.3-.5-.1-1.1.1-1.6.2.1-.3.3-.7.2-1.1-.1-.2-.4-.2-.6-.1-.5.2-.5.8-.8 1-.4-.2-.2-.7-.2-1.1-.2-.3.2-.5.7-.7zm-3-.6c-.4-.3-.7-.6-1.1-.8-.3-.1-.5-.2-.8-.3.9-.3 1.8-.5 2.7-.9l.9-.3c.2-.1.3-.1.5-.2.1.7 0 1.5-.4 2.1-.3.4-1.2.7-1.8.4zM87.2 35.5c.4.1.8.2 1.3.1.7-.2 1.4-.7 1.8-1.4.3-.6.3-1.3 0-1.9-.3-.5-1-.8-1.5-.8-1.3 0-2.6 1.3-2.4 2.6-.1.7.3 1.2.8 1.4zm1.3-3c.3 0 .7-.1.9.2.3.2.4.7.2 1-.3.8-1.1 1.3-2 1.1-.3-.1-.4-.3-.5-.5-.1-.9.6-1.6 1.4-1.8zM55.1 34.2c-.5.4-.4 1.4.2 1.7.6.3 1.4 0 1.7-.6 0-.4 0-.8-.2-1.1-.5-.4-1.2-.3-1.7 0zM71.3 44.8c.1-.2.3-.4.3-.7-.3 0-.5 0-.8.2-1.5-1.9-3.4-3.6-5.7-4.5-.4-.1-.8-.3-1.1-.4-.1-.2-.2-.5-.4-.5-.2-.1-.4.1-.5.3-.2-.1-.4-.2-.7-.3 0 .2.1.5.1.7-.1.1-.4.2-.3.4 0 .3.2.4.4.6v5.2c-.3 0-.5.1-.7.3.2.1.5.2.7.3V52c-.2.1-.5.3-.4.6 0 .3.3.3.5.4l-.1.1c-.1.1-.1.3-.2.4.1 0 .1.1.2.1.2 0 .4-.1.5-.1.1.1.2.3.2.4.2 0 .3-.1.5-.1.1-.1.1-.2.2-.3h3.8c0 .3.1.5.3.7.1-.1.2-.3.3-.4v-.2h4.2c.2.2.3.4.6.5.2-.1.4-.3.4-.5.2.1.4.1.6.2 0-.2-.1-.4-.2-.7.1-.1.3-.2.4-.3 0-.3-.2-.6-.5-.7-.1-.2-.1-.5-.1-.7-.4-2.1-1.2-4.2-2.4-6 0-.3-.1-.4-.1-.6zm1.4 3.6c.6 1.5.9 3 1.1 4.6H63.1V39.6c.2 0 .5.1.6.1-.1.1-.3.1-.4.2v12.9h10.4c-.1-1.3-.4-2.7-.9-3.9-.1-.1-.1-.3-.2-.4-1.2-3.1-3.4-6-6.4-7.6-.8-.4-1.7-.8-2.6-1 .1-.1.2-.1.2-.2 1.9.6 3.6 1.6 5 2.9 1.5 1.5 2.8 3.2 3.6 5.2l.3.6zM64 46.3c.2-.1.4-.2.5-.3-.2-.1-.4-.3-.6-.3 0-.2.1-.4 0-.6-.1-.1-.3-.2-.4-.2v-4.2c.1 0 .3.1.4.2v-.6c.4.2.9.3 1.3.5.1.1.3.1.4.2 1.5.8 2.8 1.9 3.9 3.2v.5c.1.1.3.1.4.2h-.1c-.1.2-.1.4-.2.5.2 0 .4 0 .6-.1 0 .2.1.5.4.5.3.1.3.4.5.6.5.9.9 1.8 1.2 2.7l.3.9c.1.6.2 1.1.4 1.7-.2 0-.3 0-.5-.1 0 .1 0 .3.1.4l.1.1h-3.6c0-.1-.1-.2-.1-.3-.1 0-.2-.1-.2-.1-.1 0-.3.1-.4.1-.1-.2-.1-.5-.4-.5-.1.2-.2.3-.3.5-.1 0-.2-.1-.4-.1-.2.1-.4.2-.4.5h-3.1l.1-.1v-.4c-.2 0-.4.1-.6.2V47c.1 0 .3-.1.4-.2.3-.1.3-.3.3-.5zM60 41.9c-.9-.5-2-.1-2.9-.6.1-.1.1-.3.2-.4.3 0 .5-.1.7-.1.7-.2 1.1-.8 1.7-1.2.1 0 .2 0 .3-.1 0 0 0-.1.1-.2-.3 0-.5.1-.8.1-.3.1-.6.4-.8.6v-.4c-.5.3-1.1.5-1.4 1-.3.3-.4.8 0 1 .9.4 1.9.1 2.8.5 0 .2.1.4-.1.5-.6.3-1.3.3-1.9.1-.5-.2-1.1-.1-1.7-.1.2-.3.2-.6.4-.9-.3-.4-.7-1-1.3-.7H55l-.3.6c-.1.4-.2.8-.3 1.3-.1-.1-.2-.2-.4-.3 0-.4.3-.8 0-1.1 0 .1-.1.2-.1.3-.2.1-.3-.2-.5-.2-.1.2-.1.3 0 .5-.1.1-.2.3-.3.5h.4c0 .2.1.3.2.5h-.2c-.1 0-.2-.1-.2-.2 0 .1 0 .2.1.4.3 0 .6.1.9.3v.3c-.4.1-.7.1-1.1.2-.2.1-.6.4-.7 0-.1-.2-.3-.3-.5-.4v.4c-.2 0-.4.1-.5.3.2 0 .3.2.5.2 0 .2.1.4.2.6.1-.2.2-.3.3-.4.2.3.5 0 .7 0l-.1.3c.2-.2.4-.2.6-.2.1.1.2.2.3.4V45h.6l.3-.3c.2 0 .3 0 .5.1.2-.1.5-.3.7-.4V44h.9c0 .3.1.5.4.5-.1.1-.2.1-.3.2-.1-.1-.2-.3-.3-.4-.2 0-.4.1-.6.3h.3c0 .2 0 .4.1.6.2 0 .3.1.4.2V45c0-.4.3-.2.5-.1.1-.1.1-.2.2-.3.2 0 .5.1.7-.2-.1-.2-.3-.4-.2-.7l.1.1h.5c.1-.3.4-.2.6-.2v.5H59c-.1.1-.2.1-.3.2.2.1.4.2.4.4.1.1.2.2.2.3 0-.1.1-.2.3-.3.1.1.2.2.4.3 0-.3 0-.6.1-.9.1-.2 0-.3-.1-.4 0-.1.1-.2.1-.2-.4-.2-.9-.2-1.4-.4.5 0 1-.1 1.4-.4.3-.2.2-.7-.1-.8zm-4.6-.5c.1-.1.4.1.2.2-.1.1-.3-.1-.2-.2zm.2 1h-.3c0-.1.1-.2.2-.3v-.3c.1.1.3.1.4.2h-.3v.4zm.3-.7c.2 0 .2 0 .2.2-.2 0-.2-.1-.2-.2zM74.2 40.5c-.2.1-.4.1-.5.2.1.1.2.2.3.4.1-.3.1-.4.2-.6z"/><path class="st0" d="M63.9 47.9c0 .1 0 .2-.1.3.2 0 .4 0 .6.1l.4.4h.2s-.1-.1-.1-.2 0-.2.1-.4c.4.2.5-.3.8-.3.3 0 .4-.5.8-.4.2.1.4-.1.5-.3.1.5.5.8.9 1l.6.3c-.4 0-.8-.1-1.2 0-.3.1-.5.3-.7.6-.1.4.2.9.5 1.2h-.9l-.4-.4c-.2.1-.4.1-.5.2 0 .1 0 .3.2.3-.1.2 0 .5.1.7l.2-.2c0 .1.1.2.1.3h.3v-.3c.6.2 1.2 0 1.8-.1.2-.3-.2-.7-.3-1 .1-.4.5-.6.9-.6.3.6.6 1.1 1.3 1.4.3.1.6-.1.9-.3 0 .2.1.6-.1.7-.3-.2-.6 0-.9.2.2.1.4.2.5.3-.1.2.1.4.2.5.1-.1.2-.2.3-.2l.6.3v-.5c-.1-.1-.1-.2-.1-.2l.6-.6c-.1 0-.2-.1-.3-.1.1-.1.3-.2.4-.4h-.4c.5-.2-.2-.8-.5-.4h-.7c-.3-.2-.6-.4-.7-.8.3.2.7.5 1.1.4.2 0 .4-.2.5-.4v-.5c-.4-.7-1.6-.9-1.6-1.9 0-.1-.1-.2-.1-.3-.2-.3-.3-.7-.5-1.1-.2.5-.3 1.1 0 1.6.4.8 1.4 1.1 1.9 1.8v.3c-.2 0-.4.1-.5 0-.5-.2-.9-.7-1.2-1.1-.3-.4-.7-.9-.9-1.4v-.6c.1-.3.1-.5.2-.8.1-.3 0-.6-.1-.9-.3-.4-.5-.7-.5-1.2h-.3c-.2-.2-.4-.3-.6-.5-.1.1-.2.1-.2.2h-.3c-.2.1-.4.2-.7.3-.1.3.2.5.4.7.1-.1.2-.2.2-.3.1 0 .2.1.3.1v.2h-.7v.5h1c.1.6-.6.7-.8 1.2-.1-.1-.3-.2-.3-.3-.3-.4-.6-.8-1.1-1-.2-.4.2-1-.3-1.4 0 .2-.1.4-.1.5-.2-.1-.3-.3-.5-.4v.5c.1 0 .2.1.3.1H64c0 .1-.1.4-.1.5.2 0 .3 0 .5-.1v.6l-.3-.3v.4c.2.1.3.1.5.1 0 .2.1.3.2.5h.2c.2.5.5 1 1.1 1.3-.4.3-.7.9-1.3 1-.1-.1-.2-.2-.2-.3H64c.1.1.2.2.2.3-.1.4-.2.5-.3.6zm.5-.3c.3-.1 0 .4 0 0zM45.2 43.2c-.3.3-.3.6-.3 1 .2.5.7.8 1.2.7.8-.1 1.2-1.3.6-1.8-.5-.4-1.2-.4-1.5.1zM58.1 45.6c.1-.1.1-.2.2-.3-.7.2-1.5-.2-2.2.2-.3 0-.7-.1-1 .1h.1c-.4 0-.5.5-.3.7.2.3.6.3 1 .3.5 0 1.1 0 1.6-.1.7-.1 1.4-.1 2.1 0v.3c-.8.3-1.6.2-2.5.1-1.1-.2-2.2-.1-3.3-.1 0-.1.1-.2.1-.4s.1-.4.3-.5c-.1-.1-.2-.1-.3-.2-.1-.3-.3-.5-.5-.6h-1v.4c-.3.2-.3.5-.4.8 0 .1.1.2.1.2v.3c-.4-.1-.7-.4-1-.7 0-.2 0-.4.1-.6 0-.2 0-.4-.1-.5h-.2v.3h-.3c0-.1-.1-.2-.1-.2h-.2c0 .2 0 .3.1.5-.1.2-.2.4-.2.6.2 0 .4 0 .6-.1 0 .1-.1.2-.2.2.1.1.2.2.3.2l-.2.2c-.1-.1-.2-.2-.3-.2-.1.4.2.5.6.4.5.2.8.5 1.3.7 0 .1.1.2.1.3h-.5c-.1 0-.3.1-.4.2-.1 0-.2.1-.4.1-.1 0-.2-.1-.2-.1 0-.1 0-.2-.1-.3-.2-.1-.4-.2-.6-.2 0 .1.1.3.1.4-.1 0-.2 0-.3.1-.1.1-.2.2-.4.3h.3c0 .2.2.2.3.2 0 .2 0 .6.3.6.1-.2.2-.3.3-.5.1.4.5.1.7.1v.3c.1-.1.2-.2.2-.3.2 0 .5.1.6.3h.1c0-.3.3-.3.5-.3v.2c.4-.1.7-.4 1-.7h.6c.2-.1.3-.4.6-.5.4-.1.7 0 1.1 0v.4c.1.1.3.1.4.2-.1 0-.3.1-.4.2-.1-.1-.2-.4-.4-.4s-.4.2-.6.3c.1 0 .2 0 .3.1v.6c.3 0 .5.1.6.3 0-.1.1-.3.1-.4.1 0 .3.1.4.2 0-.5.5-.3.8-.3 0-.2 0-.5-.2-.6 0 0 0-.1-.1-.2.5 0 1 .1 1.5-.1.2-.1.4-.1.6-.1v.5c-.3-.1-.7 0-.9.3.1 0 .2.1.4.1 0 0 .1.1.2.1l-.1.1c.1.1.2.3.3.4 0-.1.1-.4.3-.3.1.1.3.1.4.2 0-.1 0-.3.1-.4-.1-.1-.1-.2-.2-.3.1 0 .2-.1.2-.1v-.9c-.4-.2-.8-.2-1.3-.2.4 0 .8-.1 1.2-.3.1-.2.1-.3.2-.5-.4-.3-.9-.4-1.4-.4-.9 0-1.9.2-2.8.1-.2 0-.4-.1-.7-.2 0-.1 0-.2.1-.3.3 0 .7-.1 1 0 .8.3 1.6.2 2.4 0 .5-.1 1-.1 1.5-.1-.5-.5-1.3-.3-2-.2zm-5 .2c-.1.2-.3.1-.3-.1 0-.1.3 0 .3.1zm-.1 1c-.1.1-.2.1-.2.2-.1-.3.3-.6.1-.9.2.1.3.2.5.2-.2 0-.5.2-.4.5zm.3-.7c0-.2.3-.2.4 0 0 .2-.3.1-.4 0zM79.7 49c-.1.2-.3.4-.3.6.3 0 .5.1.8.3-.1-.3-.2-.6-.4-.9 0 .1 0 0-.1 0zM55.5 50.2c.4 0 .8.3 1.2.3 1.1.1 2.2-.5 3.4-.3-.1-.1-.2-.2-.3-.2-.2-.1-.5-.2-.7-.1-.2 0-.5.1-.6-.1-.6.1-1.2 0-1.7 0-.4 0-.7.2-1 .2-.5 0-1-.1-1.5.1-.3.1-.4.3-.4.6.3.3.7.4 1.1.4h1.9c.7-.1 1.3-.1 2-.2.2.1.5.1.7.1 0 .1 0 .2-.1.2-.9.3-1.8.2-2.7.1-1.1-.1-2.2-.1-3.3-.1-.3 0-.6 0-.8.1-.1 0-.1-.1-.2-.1h.1c.1-.3.2-.6.4-.9-.2-.1-.3-.3-.4-.5-.3-.4-.9-.2-1.3-.3v.3l-.3.3c0 .2 0 .4-.1.5v.4h-.5c-.2-.2-.4-.4-.7-.6v-1c-.1-.1-.2-.1-.3-.2v.4c-.2-.1-.3-.1-.4-.3h-.2c0 .2.1.3.1.5-.1.2-.2.4-.2.6.2 0 .4-.1.5-.1-.1.2-.1.4.1.5l-.2.2-.3-.3c0 .1 0 .3.1.4.3 0 .6.1.9.3.3.2.5.7 1 .5 0 .1.1.3.1.4-.6-.1-1.1.2-1.6.2-.1-.1-.1-.3-.2-.4-.2 0-.3-.1-.5-.1v.4c-.2.1-.4.1-.5.2 0 .1 0 .2-.1.2h.2c0 .2.1.2.3.2 0 .2.1.4.2.7.1-.1.3-.3.4-.5.1.4.5.1.7 0v.3c.1-.1.2-.2.2-.3.3 0 .6.1.6.4.1-.1.1-.2.2-.2.3 0 .5-.1.8 0 .4-.2.9-.4 1.3-.7h.9c.3-.2.5-.4.8-.5h1.1v.4c.2.1.3.1.5.2-.2 0-.3.1-.5.1-.1-.1-.2-.3-.3-.4-.3 0-.4.2-.6.3.1 0 .3 0 .4.1 0 .1-.1.2-.2.3 0 .1.1.2.1.4h.3c.1.1.2.2.4.3 0-.1 0-.3.1-.4.2.1.3.1.5.2 0-.1 0-.2.1-.3h.7c0-.3-.2-.6-.3-.8.2 0 .5.1.7.1.5 0 .9-.4 1.4-.3v.6c-.1 0-.3-.1-.4-.1-.2.1-.3.2-.5.3.2.1.4.2.5.3l-.1.1c.1.1.2.3.3.4.1-.1.1-.2.2-.3.1.2.3.3.5.3 0-.2 0-.5-.1-.7.4-.2.1-.7.2-1.1-.5-.2-1-.2-1.4-.2.5-.1 1.3 0 1.6-.6-.3-.4-.9-.5-1.3-.5-1.3 0-2.6.2-3.9.1-.2 0-.5-.1-.7-.3.1-.1.2-.2.4-.3.4 0 .8-.2 1.2-.2zm-4 .1v-.2c.3-.2.3.4 0 .2zm.1 1.1c-.3-.1-.1-.4 0-.6v-.4c.1.1.2.2.4.2-.4.1-.3.5-.4.8zm.7-.8c-.1.1-.4 0-.3-.2.2-.1.4 0 .3.2zM80 55.8v-.5h-.4v.4c.1.1.3.1.4.1zM62.2 59.3h.2c.1.1.1.2.3.2 0 .3.1.5.4.7v-.3c.1-.1.2-.2.2-.4 0 .4.4.2.7.1 0 .4.3 0 .6.1.2 0 .3.2.4.3.1-.2.3-.3.5-.3l.1.2c.2-.1.4-.2.6-.5.2 0 .4-.1.6-.2h.9c.3-.1.6-.4.9-.5.4-.1.8 0 1.1 0v.4c.1.1.3 0 .4.2-.1 0-.3.2-.4 0-.1-.1-.2-.3-.4-.3-.2.1-.4.2-.5.4h.4c0 .1-.1.2-.1.3.1.1.1.3.2.4 0 0 .1-.1.1-.2.1.1.2.2.3.4.1 0 .2-.1.2-.1l-.2-.2c.2-.1.4 0 .6.1 0-.1.1-.2.1-.3h.7v-.4c-.1-.1-.2-.3-.3-.4.3 0 .5.1.8.1.5 0 .9-.4 1.3-.3v.5h-.5c-.2.1-.3.2-.5.3h.3c.1.1.1.3.2.4 0 .1.1.2.1.3.1-.1.2-.2.3-.2.2.1.3.2.5.3 0-.1 0-.3.1-.5 0-.1-.1-.2-.1-.2.2-.1.3-.3.3-.5-.2-.2 0-.5 0-.7-.2.2-.3.1-.4-.1-.4 0-.7 0-1.1-.1.5-.1 1.1 0 1.5-.4.1-.4-.4-.6-.7-.6-1.5-.1-3 .2-4.5 0-.2 0-.4-.1-.5-.3.1 0 .2-.1.3-.2h1.5c.1.1.2.1.3.2.6.1 1.1.1 1.7 0 .7-.2 1.4-.4 2.2-.4-.6-.2-1.2-.1-1.8.1.1-.1.3-.2.4-.3h-2.1c-.3 0-.5.2-.8.2-.6 0-1.3-.1-1.8.2 0 .2-.2.3-.1.5.1.3.4.3.7.4 1.5.3 3-.2 4.5-.1.2 0 .6.1.4.3-.8.4-1.8.2-2.7.1-1.4-.1-2.9-.3-4.3 0 .1-.2.3-.5.3-.7 0-.1.1-.2.1-.3-.3-.2-.3-.6-.7-.7-.3-.2-.7 0-1-.1 0 .2 0 .5-.3.5-.2 0-.1.3 0 .3-.1.1-.1.2-.2.3.1.1.1.3.2.4-.6.1-1-.3-1.3-.7 0-.3.1-.5 0-.8-.1-.1-.2-.2-.2-.4 0 .2 0 .3-.1.5-.2-.1-.4-.2-.6-.4 0 .2 0 .4.2.6h-.2c0 .2 0 .4-.1.6.1 0 .3-.1.3-.1.1.2.1.4.3.6-.2.2-.3 0-.5 0 0 .3.3.5.6.4.1.1.2.1.2.2.3.1.5.4.7.6.3-.3.5.1.6.3-.5 0-.9.2-1.3.2-.1-.3-.4-.5-.7-.6v.4c-.2 0-.3.1-.5.1.2-.1.1 0 .1.1zm3.9-2.4c-.1.1-.2.1-.3 0v-.2c.1-.1.3 0 .3.2zm-.8-.5c.2-.1.3.3.1.3-.2.1-.3-.2-.1-.3zm.2.7h-.1v-.2c.1.1.2.1.3.2v.2l-.2-.2v.5h-.3c-.1-.2.1-.4.3-.5zM59.7 58.8c0-.2.1-.4 0-.6-.2-.2-.5-.2-.7-.3 0-.6-.1-1.3-.8-1.6-.8-.4-1.6.1-2.4.3-.1 0-.2.1-.3.1-.1 0-.2.1-.3.1-1.3.4-2.7.6-4.1.1-.5-.1-1-.5-1.5-.6-.1.2-.1.4-.2.5 0-.3-.3-.5-.6-.6-.3.1-.5.2-.6.5 0 .2 0 .5.2.6.2.2.5.2.8.1-.1.2-.4.6.1.6-.1 1.1.1 2.1.4 3.2 0 .1.1.2.1.3 1 2.7 3.4 5 6.2 5.8.4 0 .8-.1 1.1 0 .4.1.6.7.3 1.1-.2.3-.5.2-.8.2 0-.1-.1-.2-.1-.3.1-.3.5-.1.7-.4 0-.1-.1-.2-.2-.3-.3-.1-.8-.1-1 .2-.4.4-.2 1 .2 1.3.3.3.7.2 1 .2.6 0 1-.5 1.2-1.1v-.4c.2 0 .3-.1.5-.1.1-.3.2-.6.1-.9 0 0-.1-.1-.2-.1.1-2.6.1-5.3.2-7.9.2.2.5.1.7 0zM51 61c-.1-.3-.1-.5-.1-.8v-1.5c1.9 2.6 3.7 5.3 5.5 7.9-2.5-.9-4.7-2.9-5.4-5.6zm5.8 4c0 .2 0 .4-.1.6 0 .1-.1.2-.1.3-1.6-2.4-3.4-4.8-5-7.2h1.2c1.3 1.9 2.7 3.9 4.1 5.8-.1.1-.1.3-.1.5zm.2-1.5l-3.6-5.1c.1 0 .3 0 .4-.1.1 0 .2-.1.3-.1.1 0 .3-.1.4-.1l2.7 3.9c0 .5-.1 1-.2 1.5zm.2-4.8c.2.1.4.1.6.2-.1.7-.2 1.5-.4 2.2-.7-1.1-1.5-2.1-2.2-3.2.7-.2 1.3-.6 2-.8.2-.1.5-.1.7 0 0 .3.1.5 0 .8h-.3c-.2.1-.4.2-.4.3-.2.2-.1.3 0 .5z"/><path class="st0" d="M72.4 75.8c-1.3.1-2.5 0-3.8-.2-.2-.1-.4-.1-.7-.1-.2 0-.4-.1-.6-.1-2.7-.6-5.3-1.5-7.8-2.5-.4-.2-.8-.3-1.2-.5-.8-.3-1.6-.7-2.4-1 .1-1.3-.7-2.5-1.9-3-.2-.1-.4-.1-.5-.2h-.8c-.2.1-.4.1-.6.1-1.7-1.6-3.1-3.5-4-5.6l-.3-.6c-.5-1.3-.9-2.6-1.1-4h-.2v.3c-.3.6-.8 1.1-1.4 1.4-.1 0-.2.1-.2.1-.5.2-1.1.3-1.6.3 0-.2 0-.4-.1-.6-.3 0-.5.4-.8.5-.7.4-1.6.2-2.4 0 .1.9.4 1.8.7 2.6.4 1.3.9 2.7 1.6 3.9 0 .1.1.2.1.2 1.4 2.6 3.2 5 5.4 7v.8c.1.1.1.3.2.4.4.9 1.2 1.6 2.1 1.9.7.1 1.5-.1 2.1-.5.4.1.8.4 1.2.5 1.3.6 2.6 1.1 4 1.4 1.9.5 3.8 1 5.8 1.1.6.1 1.3.1 1.9 0 1.3-.2 2.5-.7 3.7-1.3 1.3-.5 2.6-1.3 3.6-2.3zm-30-13.7c.4-.9 1.4-1.6 2.4-1.5.9.1 1.7.7 2 1.5.2.7.3 1.4-.1 2.1-.5 1-1.7 1.4-2.7 1.2-1.3-.4-2.1-2-1.6-3.3zm3.8 8.4c-.2-.3-.5-.7-.7-1 .4-.3.9-.6 1.3-.9-.1-.5-.5-.8-.7-1.2-.5.3-.9.6-1.4 1-.2-.4-.6-.7-.7-1.1 1.2-.9 2.5-1.8 3.7-2.6.2.4.5.7.7 1-.4.3-.9.7-1.4 1 .3.4.5.7.8 1.1.5-.3.9-.6 1.4-1 .3.4.5.7.8 1.1-1.3.8-2.5 1.8-3.8 2.6zm7.8-.7c-1.1-.2-1.7.9-2.3 1.5.3.3.6.5.8.9.1.2 0 .5 0 .7-.5.6-1.3.1-1.9-.2-.4.6-1 1.3-.8 2.1.3.7 1.2.8 1.7 1.3-.4.2-.9.3-1.3.1-.8-.3-1.5-1-1.7-1.9 0-1.1.5-2.1 1.1-2.9-.2-.3-.4-.7-.5-1 .4.1.7.1 1.1.2.8-.8 1.6-1.6 2.8-1.9 1-.2 1.8.5 2.3 1.3.1.2.1.4.2.5-.6-.1-1-.5-1.5-.7zm3.6 6.4c-.8.5-2-.1-2-1.1-.1-.8.7-1.5 1.4-1.4.5 0 1 .5 1.2.9.1.6-.1 1.3-.6 1.6zm5.5 2c-.6.1-1.3-.3-1.4-.9-.2-.6.2-1.4.9-1.5.6-.2 1.2.2 1.5.8v.7c-.2.4-.5.7-1 .9zM62.2 63.4c0 .1.1.2.2.2.1.2.1.3.2.5l.2.2c0-.2.1-.3.2-.5.1.2.4.2.6 0l.2.2c.2-.1.4-.1.6-.1l.3.3c.2-.3.5-.5.8-.2.2-.1.4-.3.5-.4.3-.1.5-.3.8-.3.2-.2.3-.4.5-.5.3 0 .6 0 .9.1 0 .3.3.5.5.6-.1 0-.3 0-.4.1-.2-.1-.3-.3-.5-.3s-.4.2-.5.3h.3c0 .1-.1.3-.1.4.1.3.4.2.5.5h.2v-.3c.2 0 .3.1.5.1 0-.1.1-.2.1-.3h.6c0-.1.1-.2.1-.2l-.3-.6c.2.1.5.1.7.1.5 0 .9-.4 1.4-.2-.1.1-.1.3-.2.4-.3 0-.5 0-.8.1 0 0 0 .1-.1.2.4 0 .3.5.4.7 0-.3.4-.3.6-.1h.2c0-.2.1-.4 0-.6.1-.1.2-.1.2-.2v-.1c.1-.1.1-.2.2-.3 0 0-.1-.1-.1-.2.1-.1.1-.3.2-.4-.3-.1-.5-.2-.8-.2l.2-.1h-.4s-.1-.1-.1-.2c-.4 0-.7.1-1.1 0-1.3-.1-2.6-.3-3.9-.1.1-.3.3-.6.4-.9-.3-.1-.3-.5-.6-.6-.3-.2-.7-.1-1-.1v.3l-.3.3c0 .2 0 .4-.1.5v.5c-.3 0-.6-.1-.8-.2-.1-.3 0-.6 0-.8 0-.2-.2-.3-.3-.4v.4h-.2c-.1-.1-.3-.2-.4-.2 0 .2.1.3.1.5-.1.1-.2.3-.2.5h.5c0 .1 0 .2-.1.3.1.1.2.1.3.2-.2.1-.4 0-.5-.1 0 .3.2.5.5.4.2.1.4.3.6.1.2.1.4.2.6.2v.4c-.4-.1-.8.1-1.2.2-.2 0-.2-.2-.3-.4-.1-.1-.3-.1-.4-.2 0 .1-.1.3-.1.4-.2 0-.4.1-.5.3.2-.3.4-.2.4-.2zm3.2-2.5c-.2.1-.3 0-.2-.2.2-.1.2 0 .2.2zm-.1.4c0-.1 0-.2-.1-.3.2 0 .4 0 .5-.2.1 0 .2.1.3.1-.2.2-.4.3-.7.4v.4H65c0-.1.2-.2.3-.4z"/><path class="st0" d="M70.6 60.7c.2-.1.4-.1.6-.2-.8 0-1.6-.3-2.4 0-.4.1-.8 0-1.2.2-.3.2-.1.7.2.8 1.1.3 2.3-.1 3.4 0 .2 0 .5 0 .5.2-.1.3-.5.2-.7.2.4.3 1.2.1 1-.5l-.2-.2c-.4-.2-.9-.1-1.4-.1-.1-.1-.1-.2-.2-.2.7-.1 1.5-.5 2.2-.4-.4-.1-1.1.1-1.8.2zm-2.3.6c-.2 0-.6-.1-.5-.4.4-.1.9-.1 1.3.2.4 0 .9.1 1.3-.1v.4c-.7-.2-1.4.1-2.1-.1zM45 64.1c.2-.2.5-.3.6-.6.3-.7-.3-1.6-1.1-1.5-.5 0-.9.5-1 1 0 .2.1.4.1.6.1.2.3.4.6.6.3 0 .6 0 .8-.1zM64.3 68.5v.2c.1-.1.2-.2.2-.3h.6c.2-.3.3-.6.4-.9l.9-.3s-.1.1-.1.2c0 .3.1.5.2.8h.2c-.2 0-.3.1-.5.1-.1-.1-.2-.3-.3-.4-.2.1-.4.2-.5.3h.2v.5l.6.3v-.3c.1 0 .4.2.5 0 .1-.3.4-.1.6-.2-.1-.5-.2-.9-.3-1.4.3 0 .7 0 1-.1.1 0 .2.1.3.2l.1.1c-.1.1-.3.3-.4.1-.2-.1-.4-.1-.6 0 .1 0 .2.1.2.2-.2.1-.2.3-.3.5h.3c.1.2.1.3.1.5.1-.1.2-.1.3-.2v-.2c.2 0 .4-.1.5-.2 0-.2.2-.3.4-.4l-.2-.2.3-.3-.1-.1c-.1-.1-.2-.3-.4-.4.5 0 1.1 0 1.5-.3.1-.1.3-.2.4-.3v-.5c-1.1-.1-2.2.1-3.3 0-.1-.2.1-.4.3-.5.4.3 1 .2 1.5.2.8-.1 1.6-.5 2.5-.5-.3-.1-.7-.1-1-.1l.1-.1c-.3.2-.7.2-1.1.2.1 0 .4-.1.5-.1-.5-.1-1-.1-1.5-.1-.5-.1-1 .2-1.5.5.1.2.1.5.1.7 1 .5 2.2 0 3.3.2 0 .1-.1.2-.1.2-.6.3-1.4.3-2.1.2-.8-.2-1.7-.2-2.5 0 .2-.3.3-.6.4-1-.3-.2-.3-.6-.7-.7-.3-.1-.6 0-.9-.1v.3c-.3.2-.3.5-.4.8v.8c-.2-.3-.5-.6-.8-.9 0-.3.1-.7-.1-1h-.2c0 .1.1.2.1.3-.2 0-.4-.1-.6-.2.1.3 0 .6-.1.9h.4c0 .2 0 .3.1.4v.1c-.1 0-.3 0-.5.1.2.2.4.2.6.2.3.1.4.5.6.7.2.2.4.3.6.4v.2c-.4-.1-.8.2-1.3.2-.1-.3-.3-.5-.6-.5v.3c-.1.1-.3.1-.4.1 0 .1-.1.2-.1.3l.2-.1.3.3.3.6c.1-.2.1-.3.2-.4.2.2.6-.1.8.2.1-.2.3-.1.5-.2v.1h.3zm5-3.6c.3-.2 0 .3 0 0zm-4.5 0h.1c0 .1 0 .4.1.5.1-.1.2-.1.4-.2.1 0 .1.1.2.1-.3.1-.8.2-.6.6-.2.1-.3.1-.3-.1.4-.1.1-.6.1-.9zM121.6 70.9c-.7-.7-1.7-1-2.7-.9-1 .2-1.8.8-2.3 1.6-.6 1-.5 2.4.2 3.3.9 1.3 2.8 1.7 4.1.9 1.1-.6 1.7-1.8 1.6-3-.1-.7-.4-1.4-.9-1.9zm-.5 3.8c-.3.3-.7.5-1.1.7-.4 0-.8.1-1.3 0-.8-.3-1.4-.9-1.6-1.7-.3-1.1.4-2.3 1.5-2.7 1.1-.4 2.4.2 2.9 1.2 0 .1.1.3.2.4 0 .7-.1 1.5-.6 2.1zM104 71.8c-.1-.4-.3-.8-.7-1-.6-.7-1.8-.7-2.5 0-.7.6-.9 1.6-.8 2.5.2.6.4 1.2.9 1.5.6.4 1.4.5 2 .1.8-.6 1.2-1.6 1.1-2.6.1-.2 0-.3 0-.5zm-1.2 2.2c-.3.3-.8.5-1.2.2-1.1-.7-1-2.5.1-3.1.6-.2 1.2.2 1.3.8.4.7.3 1.5-.2 2.1zM104.2 78.8c.5.5 1.1.8 1.8.9.8.1 1.8-.2 2.3-.9.3-.4.3-1 .2-1.5-.3-1-1.3-1.6-2.2-1.7h-.6c-.2.1-.4.1-.7.1-.5.2-1 .5-1.2 1-.3.6-.1 1.5.4 2.1zm1.2-2.3c.8-.2 1.9.1 2.3.9.2.5-.1 1-.5 1.2-.9.4-2.2.1-2.6-.9-.2-.6.3-1.1.8-1.2zM107.9 88.4c-.8.1-1.6.1-2.4 0-.3-.1-.5-.1-.8-.1-.2 0-.3-.1-.5-.1-1.3-.3-2.5-.8-3.7-1.4-4.7-2.4-8.8-5.7-13.4-8.3-.2-.1-.3-.2-.5-.3-.8-.4-1.6-.8-2.4-1.1-.1 0-.2-.1-.4-.1-.1 0-.2 0-.3-.1-1.5-.5-3.2-.6-4.8-.1-.1 0-.2.1-.3.1l-.6.3c-1.3.6-2.3 1.7-2.8 3-.5 1.2-1.1 2.3-1.8 3.4-.3.5-.6.9-.9 1.4-.3.7-.4 1.5 0 2.2.5.9 1.4 1.4 2.3 1.9.7.4 1.6.7 2.3 1.2.4.3.7.7.7 1.2-1 .5-2 .8-3.1 1.1-.1 0-.2 0-.3.1-.2 0-.3.1-.5.1s-.4.1-.5.1c-2 .5-4 .8-6 1-.4 0-.8 0-1.1.1-2.2.2-4.4.2-6.6.2-.7 0-1.4 0-2.1-.1-.5-.1-1.1 0-1.6-.1-.4 0-.8 0-1.3-.1-2.1-.2-4.2-.6-6.2-1.1-.1 0-.3-.1-.4-.1-1.2-.3-2.4-.7-3.5-1.2 0-.8.7-1.3 1.4-1.6.1-.1.2-.1.3-.2.9-.4 1.8-.9 2.6-1.5.7-.5 1.3-1.2 1.3-2.1 0-1-.7-1.8-1.2-2.7-.7-1.1-1.3-2.3-1.8-3.5-.8-1.7-2.3-2.9-4.1-3.3-1.1-.2-2.3-.2-3.4 0-.2 0-.3.1-.5.1-2.3.6-4.4 1.9-6.5 3.1-3.9 2.4-7.7 5.3-11.9 7.3-.9.4-1.8.7-2.8 1-.4.1-.7.2-1.1.2-.9.1-1.7.1-2.6 0-.2-.1-.4-.1-.5-.1-.1-.1-.2-.1-.3 0 .9.5 1.8 1 2.7 1.7 1.5 1.1 2.8 2.4 4.6 3 .9.2 1.8.1 2.6 0 .3-.1.7-.2 1-.3.1 0 .2-.1.3-.1.9-.3 1.7-.7 2.6-1.1 4-2.2 7.4-5.2 11.5-7.1 1.7-.8 3.5-1.4 5.4-1.3-.8.9-1.8 1.6-2.8 2.4-.7.5-1.3 1.3-1.3 2.3 0 1 .7 1.9 1.2 2.7.7.9 1.2 1.9 1.5 3 .3 1.1.5 2.3.9 3.4.6 1.5 2.2 2.4 3.7 3 .2.1.3.1.5.2 2 .7 4.2 1 6.3 1.3.3 0 .7 0 1 .1.6.1 1.3 0 1.9.2 2.8.1 5.5.1 8.3 0 1 0 2-.1 3-.2.4-.1.7-.1 1.1-.1 1.9-.2 3.8-.6 5.6-1.2 1.6-.6 3.2-1.5 3.9-3.1.5-1.4.7-2.8 1.2-4.2.4-1 1-1.9 1.6-2.8.5-.7 1-1.6.8-2.6-.1-.8-.7-1.4-1.3-1.8-.9-.8-2-1.4-2.8-2.4 1.6-.1 3.1.4 4.5 1 3.1 1.3 5.8 3.3 8.5 5.2 2 1.4 4.1 2.7 6.5 3.5.1 0 .2.1.3.1.1 0 .2 0 .3.1.8.2 1.6.3 2.3.3 1-.1 1.9-.5 2.7-1.1 1.8-1.2 3.4-2.8 5.4-3.7h-.2c-.2-.3-.4-.2-.7-.2zm-80.7 1.5c-.7.9-1.8 1.3-2.7 1.8-.9-1.4-1.7-2.8-2.6-4.3.8-.4 1.5-.9 2.4-1.2 1.1-.4 2.3.2 2.9 1.1.5.9.6 1.9 0 2.6zm2.8-1.3c-.9-1.4-1.8-2.8-2.7-4.3.4-.2.8-.5 1.1-.7.9 1.4 1.8 2.8 2.7 4.3-.4.2-.8.5-1.1.7zm2.8-1.9c-.9-1.4-1.8-2.8-2.6-4.3.9-.6 1.9-1.2 2.8-1.8.2.4.5.7.7 1.1-.5.3-1 .7-1.6 1 0 .2.1.3.2.5.6-.3 1.1-.7 1.6-1 .2.4.5.7.7 1.1-.4.4-1 .7-1.4 1-.1.2.1.4.2.5.5-.3 1-.6 1.5-1 .1-.1.2-.1.3-.1.2.4.4.7.7 1.1-1.2.7-2.1 1.3-3.1 1.9zm7.2-4.6c-.3.9-1.3 1.3-2.1 1.5-.8.2-1.5-.3-1.9-.9-.4-.6-.6-1.3-.9-1.9-.2-.4-.4-.8-.5-1.2l1.2-.6h.1c.3.7.6 1.5 1 2.2.2.4.3.9.8 1.1.5 0 1.3-.3 1.1-1-.2-.6-.5-1.1-.7-1.7-.2-.5-.5-.9-.6-1.5.5-.1.9-.3 1.4-.4.2.5.4 1.1.7 1.6l.3.6c0 .8.4 1.5.1 2.2zm3.9 8.1c-.1.2-.1.4-.2.5v.4c-1-.6-2.1-1.2-2.7-2.3-.4-.7-.4-1.7.1-2.3 1.1-1.4 2.8-2.1 4-3.4 1.2.2 2.4.6 3.4 1.3.4.3.7.7.9 1.2v.6c-.2.4-.5.8-.9 1-1.2.8-2.5 1.2-3.6 2-.4.2-.7.6-1 1zm3.2 8.4c-.1-.8-.1-1.6-.1-2.3-.1-.9-.1-1.9-.1-2.8.7.2 1.3.4 2 .5.2 0 .3.1.5.1.3.1.6.1.9.2.1.5 0 .9 0 1.4-.3-.1-.6-.1-.9-.2-.3-.1-.7-.2-1-.2v.5c.6.2 1.2.3 1.8.5 0 .5 0 .9.1 1.4-.6-.2-1.2-.3-1.7-.5v.6c.6.3 1.3.3 1.9.5 0 .5 0 .9.1 1.4-1.3-.3-2.4-.7-3.5-1.1zm6.6-2.4v4c-.5-.1-1-.1-1.5-.2v-3.9l-1.5-.3v-1.4c1.5.2 3 .5 4.4.6v1.4c-.4-.1-.9-.2-1.4-.2zm9.7 4.3H62v-2.8c-.4.4-.8.9-1.2 1.3h-.1c-.4-.4-.8-.9-1.2-1.3 0 .6-.1 1.3 0 1.9 0 .2-.1.5 0 .7 0 0-.1.1-.1.2h-1.3v-5.2c.5.1 1.1-.2 1.4.3.4.5.9 1 1.3 1.6l1.5-1.8c.4 0 .8 0 1.2-.1v1.6c-.1 1.1 0 2.4-.1 3.6zm5.9-1.6c-.8 1.4-2.9 1.9-4.3 1-.4-.3-.7-.7-.9-1.1 0-.1-.1-.2-.1-.4-.1-.8-.1-1.6.5-2.3 1-1.4 3.2-1.6 4.4-.4.3.3.5.7.7 1.1.1.7.1 1.5-.3 2.1zm5.9-4.8l-.3 4.5c-.4.1-.7.3-1.1.4-.7-.7-1.4-1.5-2.2-2.2-.1.9-.1 1.9-.2 2.9-.5.1-1 .2-1.4.3l.3-5.4c.4 0 .9-.4 1.2 0l2.1 2.1c0-.4 0-.8.1-1.2.1-.5.1-1.1.1-1.6.5-.1 1-.3 1.4-.4.1.2.1.4 0 .6zm5.2-8.3c.4.4.7.8.9 1.3 0 .2.1.3.1.5v.4c-.1.2-.1.4-.1.6-.5 1.2-1.7 2-2.9 2.6 0-.3 0-.7-.2-1-.5-.7-1.2-1.2-1.9-1.6-.1-.1-.3-.2-.4-.2-.9-.4-1.8-.8-2.5-1.4-.3-.3-.6-.6-.6-1.1 0-.6.5-1.2.9-1.5 1-.7 2.2-1 3.3-1.2.9 1 2.3 1.6 3.4 2.6zm2.8-3.4c-.2 0-.3.1-.5.1-.4 0-.7.1-1.1 0-.8-.1-1.5-.3-2.3-.5.5-1.6 1.2-3.2 1.7-4.8.6.1 1.1.3 1.7.4.7.1 1.3.5 1.8 1 .3.4.5 1 .4 1.6-.2.9-.7 1.8-1.7 2.2zm3.5 2.6c0-.3 0-.5-.1-.8 0-.5 0-1-.2-1.5h-.2l-.9 1.5-1.2-.6c.8-1.5 1.7-2.9 2.5-4.4.6.3 1.1.6 1.6.9.6.3 1.1.9 1.1 1.6 0 .7-.7 1.4-1.4 1.4.1 1 .2 1.9.3 2.9-.5-.4-1-.7-1.5-1zm2.1.7c-.3-1.2.5-2.5 1.6-2.9.5-.2 1-.2 1.5-.1.6.2 1.3.5 1.7 1 .3.3.4.7.6 1.1v.9c0 .1-.1.2-.1.4-.3.6-.7 1.2-1.4 1.5-1.5.6-3.5-.3-3.9-1.9zm5.5 4.3c-.4-.3-.8-.5-1.2-.8.9-1.4 1.8-2.8 2.6-4.3.4.2.8.5 1.3.7-.7 1-1.3 2-1.9 3-.3.5-.6 1-.8 1.4zm6.6-.7c-.5-.2-1-.5-1.5-.7-.6.9-1.2 1.9-1.8 2.9-.1.3-.4 0-.6-.1-.2-.1-.5-.2-.7-.3.6-1 1.3-2.1 2-3.1-.4-.3-.9-.5-1.3-.8.2-.4.4-.8.6-1.1.6.4 1.2.7 1.8 1 .8.4 1.5.8 2.3 1.1-.3.4-.5.8-.8 1.1z"/><path class="st0" d="M82.1 78.8c-.2.6-.4 1.2-.7 1.7-.1.2-.1.4-.2.6.1 0 .2 0 .3.1.4.1.9.1 1.3 0 .4-.4.8-.9.6-1.5-.1-.7-.8-.8-1.3-.9zM63.9 90.2c.1-.2.1-.5.2-.7.1-.5.2-1.1.5-1.5h.2c.4.3.5.7.7 1.1.6-.5.9-1.2 1.1-1.9.2-1-.3-2.1-1.2-2.5-.5-.2-1-.2-1.6-.1V81c-1.7-.1-3.5-.4-5.2-.8-.1 0-.3-.1-.4-.1v4.5c-.5 0-1-.1-1.5.1-.8.3-1.4 1.2-1.3 2.1 0 .9.5 1.6 1 2.3h.2c0-.1.1-.2.1-.3.1-.3.3-.6.7-.8.4.5.4 1.2.6 1.8.1.1.1.3.1.4.1.3.3.6.5.8.2.1.4.2.5.3h.3c0 .4-.1.9.2 1.3.4.8 1.6 1 2.3.5.3-.2.5-.6.6-.9v-.9h.3c.6-.2.9-.6 1.1-1.1zm-2 1.9c-.1.3-.3.5-.5.6-.4.1-.9-.1-1-.5-.2-.5.2-1.1.8-1.1.1 0 .3.1.4.1.1.2.4.5.3.9zm-.5-2.1c-.1-.4.2-.7.3-1.1.1-.2-.1-.4-.1-.6-.2-.1-.5-.1-.7-.1-.2.1-.4.2-.4.4-.1.5.4.8.3 1.2 0 .8-1.2 1.1-1.7.5-.4-.5-.5-1.2-.7-1.8 0-.1-.1-.2-.1-.4-.2-.4-.3-.9-.8-1-.4-.1-.7.3-.9.6-.2-.4-.4-.8-.4-1.3 0-.6.4-1.2 1-1.3.5-.2 1.1-.1 1.5.3.5.5.5 1.3.9 1.8.4.3 1.1-.1.9-.6-.2-.7-.8-1-1.1-1.7-.3-.5-.1-1.1.2-1.6.4-.6.9-1 1.5-1.5.6.5 1.2 1 1.6 1.7.2.5.3 1.1 0 1.5-.3.5-.9.9-1 1.6 0 .5.6.7 1 .5.3-.6.4-1.5 1-2 .4-.3.9-.3 1.3-.2.4.2.8.5.9 1 .2.6-.1 1.2-.3 1.7-.2-.4-.6-.8-1.1-.6-.5.2-.6.7-.7 1.2-.2.6-.3 1.3-.7 1.9-.5.8-1.5.6-1.7-.1zM87.6 81.1c-.1-.1-.2-.1-.3-.2-.1.2-.2.3-.3.5l-.1.1c.2.1.3.2.5.3.2 0 .4 0 .4-.2.1-.2-.1-.3-.2-.5zM91.8 84h-.7c-.5.2-.9.7-.9 1.3 0 .8.9 1.3 1.6 1.2.4-.1.7-.3.9-.6.1-.4.2-.9-.1-1.2-.2-.5-.6-.6-.8-.7zM24.7 87.6c-.3.1-.6.2-.8.4.3.7.8 1.3 1.1 1.9.4-.1.9-.4 1.1-.8.4-.9-.5-1.9-1.4-1.5zM66 96.6c-.7.4-.8 1.5-.2 2 .4.4 1.1.4 1.6.2.4-.2.6-.5.7-.8 0-.3.1-.7-.2-1-.3-.7-1.3-.8-1.9-.4z"/></svg>